<?xml version="1.0" encoding="UTF-8"?>
<svg width="1212px" height="759px" viewBox="0 0 1212 759" version="1.1" xmlns="http://www.w3.org/2000/svg" xmlns:xlink="http://www.w3.org/1999/xlink">
    <title>Group Copy 6</title>
    <defs>
        <filter x="-2.1%" y="-2.3%" width="104.3%" height="107.2%" filterUnits="objectBoundingBox" id="filter-1">
            <feOffset dx="0" dy="10" in="SourceAlpha" result="shadowOffsetOuter1"></feOffset>
            <feGaussianBlur stdDeviation="5" in="shadowOffsetOuter1" result="shadowBlurOuter1"></feGaussianBlur>
            <feColorMatrix values="0 0 0 0 0   0 0 0 0 0   0 0 0 0 0  0 0 0 0.7 0" type="matrix" in="shadowBlurOuter1" result="shadowMatrixOuter1"></feColorMatrix>
            <feMerge>
                <feMergeNode in="shadowMatrixOuter1"></feMergeNode>
                <feMergeNode in="SourceGraphic"></feMergeNode>
            </feMerge>
        </filter>
    </defs>
    <g id="Page-1" stroke="none" stroke-width="1" fill="none" fill-rule="evenodd">
        <g id="Group" transform="translate(16, -122)">
            <g id="Group-Copy-6" filter="url(#filter-1)" transform="translate(0, 129)">
                <g id="Group" transform="translate(-0, 0)">
                    <g id="Group-Copy-12" transform="translate(839.2622, 357.4397) scale(-1, 1) translate(-839.2622, -357.4397)translate(498.5243, -0)">
                        <g id="Group" transform="translate(497.2705, 438.388) rotate(-110) translate(-497.2705, -438.388)translate(373.0019, 287.6965)" fill="#639641" stroke="#000000" stroke-width="5.47944059">
                            <path d="M11.7218331,75.5159899 L52.6625314,2.49546623 C58.4281651,9.20845433 62.5817461,13.6711414 65.1232744,15.8835275 C65.9238714,16.5804428 69.2164464,19.6954444 69.9305229,20.1978808 C79.523613,26.9477431 89.3584704,33.1468016 95.9030206,36.1495987 C102.637434,39.2395095 111.575794,44.3411044 123.4053,47.2822143 C124.64837,47.5912727 133.284176,48.512663 136.721735,48.664729 C138.890949,48.7606877 142.536987,48.9550751 147.659847,49.2478911 L104.84368,122.321365 C105.969632,127.084414 105.968935,130.442125 104.841589,132.394498 C103.714242,134.346872 100.727762,135.768767 95.8821476,136.660185 C84.4706647,135.201857 76.3872709,133.782247 71.6319665,132.401354 C56.7534458,128.080781 45.9654731,123.057066 39.0710073,119.191147 C31.8494023,115.141793 21.3543407,109.139101 13.0186038,100.052034 C10.7268567,97.5537229 7.32934598,93.1490997 2.8260716,86.8381641 C2.12414204,83.5109162 2.12460783,81.2679854 2.82746896,80.1093719 C3.53033009,78.9507583 6.49511814,77.419631 11.7218331,75.5159899 Z" id="Path" transform="translate(74.9799, 69.5778) scale(1, -1) rotate(2) translate(-74.9799, -69.5778)"></path>
                            <path d="M63.398425,159.038832 L104.339123,86.018308 C110.104757,92.731296 114.258338,97.1939831 116.799866,99.4063693 C117.600463,100.103284 120.893038,103.218286 121.607115,103.720723 C131.200205,110.470585 141.035062,116.669643 147.579612,119.67244 C154.314026,122.762351 163.252386,127.863946 175.081892,130.805056 C176.324962,131.114114 184.960768,132.035505 188.398327,132.187571 C190.567541,132.283529 194.213578,132.477917 199.336439,132.770733 L156.520272,205.844206 C157.646224,210.607256 157.645527,213.964967 156.51818,215.91734 C155.390834,217.869713 152.404354,219.291609 147.558739,220.183027 C136.147257,218.724699 128.063863,217.305089 123.308558,215.924196 C108.430038,211.603623 97.642065,206.579908 90.7475991,202.713989 C83.5259942,198.664635 73.0309325,192.661943 64.6951956,183.574875 C62.4034486,181.076565 59.0059378,176.671941 54.5026634,170.361006 C53.8007339,167.033758 53.8011997,164.790827 54.5040608,163.632214 C55.2069219,162.4736 58.17171,160.942473 63.398425,159.038832 Z" id="Path-Copy" transform="translate(126.6565, 153.1007) scale(1, -1) rotate(2) translate(-126.6565, -153.1007)"></path>
                            <path d="M110.299477,237.743303 L151.240175,164.72278 C157.005809,171.435768 161.15939,175.898455 163.700918,178.110841 C164.501515,178.807756 167.79409,181.922758 168.508167,182.425194 C178.101257,189.175056 187.936114,195.374115 194.480664,198.376912 C201.215078,201.466823 210.153438,206.568418 221.982943,209.509528 C223.226014,209.818586 231.86182,210.739976 235.299379,210.892042 C237.468593,210.988001 241.11463,211.182388 246.237491,211.475204 L203.421324,284.548678 C204.547276,289.311727 204.546579,292.669439 203.419232,294.621812 C202.291886,296.574185 199.305406,297.99608 194.459791,298.887499 C183.048308,297.429171 174.964915,296.00956 170.20961,294.628668 C155.33109,290.308095 144.543117,285.284379 137.648651,281.418461 C130.427046,277.369106 119.931984,271.366415 111.596248,262.279347 C109.304501,259.781036 105.90699,255.376413 101.403715,249.065477 C100.701786,245.738229 100.702252,243.495299 101.405113,242.336685 C102.107974,241.178072 105.072762,239.646944 110.299477,237.743303 Z" id="Path" transform="translate(173.5576, 231.8051) scale(1, -1) rotate(2) translate(-173.5576, -231.8051)"></path>
                        </g>
                        <g id="Group-Copy" transform="translate(595.1013, 315.8584) rotate(-49) translate(-595.1013, -315.8584)translate(570.6284, 260.6419)">
                            <path d="M17.2368148,4.31898082 C30.783154,-5.51431086 36.8153115,3.02633528 41.3608613,14.1259972 C45.906411,25.2256591 48.9457309,44.3947484 48.9457309,56.5956613 C48.9457309,68.6462412 47.7521046,87.314487 40.6906541,99.8836009 C40.4567235,100.299989 30.6421148,117.904842 17.2368148,106.718007 C3.83151472,95.531172 3.63146201,83.2076018 3.63146201,55.2924616 C3.63146201,27.3773215 3.69047551,14.1522725 17.2368148,4.31898082 Z" id="Path" stroke="#000000" stroke-width="5.58911599" fill="#639641"></path>
                            <ellipse id="Oval" fill="#F3F7C4" cx="23.6563746" cy="54.5337638" rx="23.6563746" ry="54.0053015"></ellipse>
                            <ellipse id="Oval-2" fill="#FDF17B" cx="25.928373" cy="55.2910966" rx="4.72305485" ry="36.5866473"></ellipse>
                            <path d="M26.7343434,20.1626512 C28.8925248,24.143055 30.3617598,27.8183652 31.1420486,31.1885818 C32.3124817,36.2439068 33.3139195,42.8253899 33.3139195,46.3225624 C33.3139195,48.7319944 33.3139195,49.6126766 33.3139195,55.1729235 C33.3139195,62.1722187 34.0391037,70.4712865 32.5312222,76.8021378 C31.4830482,81.202904 28.9092289,86.7351748 24.8097643,93.3989503" id="Path" stroke="#D5DF58" stroke-width="6.05866232"></path>
                            <path d="M30.2196592,26.3390909 C27.6895071,16.1046815 25.063443,14.8243683 22.3414667,22.4981513 C18.2585023,34.0088259 18.0138048,43.547219 18.0138048,60.7494669 C18.0138048,77.9517147 23.1491595,89.2369169 25.3795146,92.8400422 C26.866418,95.2421257 29.2503205,89.9014278 32.5312222,76.8179485" id="Path" stroke="#000000" stroke-width="5.58911599"></path>
                        </g>
                        <g id="Group" transform="translate(340.5266, 357.4397) rotate(-66) translate(-340.5266, -357.4397)translate(59.3721, 109.9705)">
                            <g id="Group-Copy-15" transform="translate(437.9069, 54.96) rotate(-49) translate(-437.9069, -54.96)translate(413.4341, -0.6601)">
                                <path d="M17.2368148,4.35055527 C30.783154,-5.55462391 36.8153115,3.04845968 41.3608613,14.2292671 C45.906411,25.4100744 48.9457309,44.7193018 48.9457309,57.0094109 C48.9457309,69.148088 47.7521046,87.9528105 40.6906541,100.613812 C40.4567235,101.033244 30.6421148,118.7668 17.2368148,107.498182 C3.83151472,96.2295645 3.63146201,83.8159013 3.63146201,55.696684 C3.63146201,27.5774668 3.69047551,14.2557345 17.2368148,4.35055527 Z" id="Path" stroke="#000000" stroke-width="5.58911599" fill="#639641"></path>
                                <ellipse id="Oval" fill="#F3F7C4" cx="23.6563746" cy="54.9374308" rx="23.6563746" ry="54.4089685"></ellipse>
                                <ellipse id="Oval-2" fill="#FDF17B" cx="25.928373" cy="55.6947635" rx="4.72305485" ry="36.9903143"></ellipse>
                                <path d="M26.7343434,20.1626512 C28.8925248,24.1869337 30.3617598,27.9027594 31.1420486,31.3101282 C32.3124817,36.4211815 33.3139195,43.0752168 33.3139195,46.610941 C33.3139195,49.0469339 33.3139195,49.9373244 33.3139195,55.5588658 C33.3139195,62.6353189 34.0391037,71.0258731 32.5312222,77.4265136 C31.4830482,81.8757925 28.9092289,87.4690494 24.8097643,94.2062843" id="Path" stroke="#D5DF58" stroke-width="6.05866232"></path>
                                <path d="M30.2196592,26.4324935 C27.6895071,16.0891267 25.063443,14.7951831 22.3414667,22.5506626 C18.2585023,34.1838818 18.0138048,43.8238224 18.0138048,61.2092085 C18.0138048,78.5945946 23.1491595,89.9999411 25.3795146,93.6414259 C26.866418,96.0690824 29.2503205,90.6715265 32.5312222,77.4487581" id="Path" stroke="#000000" stroke-width="5.58911599"></path>
                            </g>
                            <g id="Group-Copy-12" transform="translate(281.1546, 249.6835) rotate(-110) translate(-281.1546, -249.6835)translate(105.7042, 14.4494)" fill="#639641" stroke="#000000" stroke-width="5.47944059">
                                <path d="M11.7466883,75.5168213 L52.6643109,2.49353903 C58.4270376,9.20697289 62.5785168,13.6699628 65.1187486,15.8825088 C65.9189373,16.5794743 69.2098377,19.6946952 69.9235475,20.1971708 C79.5117118,26.9475578 89.3415046,33.1471189 95.882662,36.1501954 C102.613584,39.2403937 111.547331,44.3424191 123.370653,47.283912 C124.613074,47.5930106 133.244342,48.5146203 136.68009,48.6667631 C138.848161,48.7627702 142.492279,48.9572407 147.612442,49.2501743 L104.820342,122.326371 C105.945796,127.089677 105.945166,130.447553 104.818454,132.399999 C103.691742,134.352446 100.706866,135.774351 95.8638268,136.665715 C84.0319055,138.611306 75.7395334,138.893573 70.9867103,137.512517 C56.1159534,133.191431 45.2945099,125.537044 38.4036041,121.670797 C31.1857281,117.621098 21.2352361,109.606118 12.9037145,100.518436 C10.6131264,98.0199568 7.26383789,93.4602686 2.85584914,86.8393718 C2.15422288,83.5119464 2.15464319,81.2689056 2.85711008,80.1102494 C3.55957697,78.9515931 6.52276971,77.4204504 11.7466883,75.5168213 Z" id="Path" transform="translate(74.9712, 70.433) scale(1, -1) rotate(2) translate(-74.9712, -70.433)"></path>
                                <path d="M62.9175401,162.824242 L103.835287,89.8045187 C109.598002,96.5176088 113.749473,100.98037 116.289701,103.192801 C117.089888,103.889731 120.380783,107.004791 121.094492,107.50724 C130.682644,114.257275 140.512425,120.456511 147.053577,123.459427 C153.784493,126.54946 162.718231,131.651216 174.541547,134.592542 C175.783968,134.901623 184.415233,135.823172 187.85098,135.975301 C190.019052,136.0713 193.663169,136.265755 198.783331,136.558665 L155.991107,209.631303 C157.116552,214.39437 157.115917,217.752079 155.989202,219.70443 C154.862486,221.656782 151.877608,223.078621 147.034567,223.969949 C135.62908,222.511412 127.549926,221.091654 122.797105,219.710674 C107.926357,215.38983 97.1439848,210.365919 90.2530861,206.499876 C83.0352176,202.450391 72.5455839,196.44751 64.2140786,187.360294 C61.9234949,184.861943 58.527696,180.45726 54.0266818,174.146245 C53.3250614,170.818986 53.3254856,168.576057 54.0279544,167.417457 C54.7304233,166.258857 57.6936185,164.727785 62.9175401,162.824242 Z" id="Path" transform="translate(126.1421, 156.8872) scale(1, -1) rotate(2) translate(-126.1421, -156.8872)"></path>
                                <path d="M114.157795,244.601205 L155.075542,171.581482 C160.838257,178.294572 164.989728,182.757333 167.529956,184.969764 C168.330143,185.666694 171.621038,188.781754 172.334747,189.284203 C181.922899,196.034238 191.75268,202.233474 198.293832,205.23639 C205.024748,208.326423 213.958485,213.428179 225.781802,216.369505 C227.024223,216.678586 235.655488,217.600135 239.091235,217.752265 C241.259307,217.848263 244.903424,218.042718 250.023586,218.335628 L207.231361,291.408266 C208.356807,296.171333 208.356172,299.529042 207.229456,301.481393 C206.102741,303.433745 203.117863,304.855584 198.274822,305.746913 C186.869335,304.288375 178.790181,302.868617 174.03736,301.487637 C159.166612,297.166793 148.38424,292.142882 141.493341,288.276839 C134.275472,284.227354 123.785839,278.224473 115.454333,269.137257 C113.16375,266.638906 109.767951,262.234223 105.266937,255.923208 C104.565316,252.595949 104.56574,250.35302 105.268209,249.19442 C105.970678,248.03582 108.933873,246.504748 114.157795,244.601205 Z" id="Path" transform="translate(177.3823, 238.6642) scale(1, -1) rotate(2) translate(-177.3823, -238.6642)"></path>
                                <path d="M165.834387,328.124047 L206.752134,255.104323 C212.514848,261.817414 216.66632,266.280174 219.206547,268.492606 C220.006735,269.189536 223.29763,272.304596 224.011339,272.807045 C233.59949,279.55708 243.429272,285.756316 249.970424,288.759232 C256.70134,291.849265 265.635077,296.951021 277.458394,299.892347 C278.700815,300.201428 287.33208,301.122977 290.767827,301.275106 C292.935898,301.371105 296.580015,301.565559 301.700178,301.85847 L258.907953,374.931108 C260.033399,379.694175 260.032764,383.051884 258.906048,385.004235 C257.779333,386.956586 254.794455,388.378426 249.951414,389.269754 C238.545926,387.811217 230.466772,386.391459 225.713952,385.010479 C210.843204,380.689635 200.060831,375.665724 193.169933,371.799681 C185.952064,367.750195 175.462431,361.747314 167.130925,352.660099 C164.840342,350.161747 161.444543,345.757064 156.943528,339.44605 C156.241908,336.118791 156.242332,333.875862 156.944801,332.717262 C157.64727,331.558662 160.610465,330.02759 165.834387,328.124047 Z" id="Path-Copy" transform="translate(229.0589, 322.187) scale(1, -1) rotate(2) translate(-229.0589, -322.187)"></path>
                                <path d="M212.735439,406.828518 L253.653186,333.808795 C259.4159,340.521885 263.567372,344.984646 266.107599,347.197078 C266.907787,347.894007 270.198682,351.009067 270.91239,351.511517 C280.500542,358.261552 290.330324,364.460787 296.871476,367.463703 C303.602392,370.553736 312.536129,375.655493 324.359446,378.596819 C325.601867,378.9059 334.233132,379.827449 337.668879,379.979578 C339.83695,380.075576 343.481067,380.270031 348.60123,380.562941 L305.809005,453.635579 C306.934451,458.398647 306.933816,461.756356 305.8071,463.708707 C304.680385,465.661058 301.695506,467.082898 296.852466,467.974226 C285.446978,466.515688 277.367824,465.09593 272.615004,463.714951 C257.744255,459.394106 246.961883,454.370195 240.070985,450.504152 C232.853116,446.454667 222.363483,440.451786 214.031977,431.36457 C211.741394,428.866219 208.345595,424.461536 203.84458,418.150521 C203.14296,414.823262 203.143384,412.580333 203.845853,411.421733 C204.548322,410.263133 207.511517,408.732062 212.735439,406.828518 Z" id="Path" transform="translate(275.96, 400.8915) scale(1, -1) rotate(2) translate(-275.96, -400.8915)"></path>
                            </g>
                        </g>
                    </g>
                    <g id="Group-Copy-15" transform="translate(0, 11.1207)">
                        <g id="Group" transform="translate(524.6081, 416.4895) rotate(-110) translate(-524.6081, -416.4895)translate(400.3395, 265.798)" fill="#639641" stroke="#000000" stroke-width="5.47944059">
                            <path d="M11.7218331,75.5159899 L52.6625314,2.49546623 C58.4281651,9.20845433 62.5817461,13.6711414 65.1232744,15.8835275 C65.9238714,16.5804428 69.2164464,19.6954444 69.9305229,20.1978808 C79.523613,26.9477431 89.3584704,33.1468016 95.9030206,36.1495987 C102.637434,39.2395095 111.575794,44.3411044 123.4053,47.2822143 C124.64837,47.5912727 133.284176,48.512663 136.721735,48.664729 C138.890949,48.7606877 142.536987,48.9550751 147.659847,49.2478911 L104.84368,122.321365 C105.969632,127.084414 105.968935,130.442125 104.841589,132.394498 C103.714242,134.346872 100.727762,135.768767 95.8821476,136.660185 C84.4706647,135.201857 76.3872709,133.782247 71.6319665,132.401354 C56.7534458,128.080781 45.9654731,123.057066 39.0710073,119.191147 C31.8494023,115.141793 21.3543407,109.139101 13.0186038,100.052034 C10.7268567,97.5537229 7.32934598,93.1490997 2.8260716,86.8381641 C2.12414204,83.5109162 2.12460783,81.2679854 2.82746896,80.1093719 C3.53033009,78.9507583 6.49511814,77.419631 11.7218331,75.5159899 Z" id="Path" transform="translate(74.9799, 69.5778) scale(1, -1) rotate(2) translate(-74.9799, -69.5778)"></path>
                            <path d="M63.398425,159.038832 L104.339123,86.018308 C110.104757,92.731296 114.258338,97.1939831 116.799866,99.4063693 C117.600463,100.103284 120.893038,103.218286 121.607115,103.720723 C131.200205,110.470585 141.035062,116.669643 147.579612,119.67244 C154.314026,122.762351 163.252386,127.863946 175.081892,130.805056 C176.324962,131.114114 184.960768,132.035505 188.398327,132.187571 C190.567541,132.283529 194.213578,132.477917 199.336439,132.770733 L156.520272,205.844206 C157.646224,210.607256 157.645527,213.964967 156.51818,215.91734 C155.390834,217.869713 152.404354,219.291609 147.558739,220.183027 C136.147257,218.724699 128.063863,217.305089 123.308558,215.924196 C108.430038,211.603623 97.642065,206.579908 90.7475991,202.713989 C83.5259942,198.664635 73.0309325,192.661943 64.6951956,183.574875 C62.4034486,181.076565 59.0059378,176.671941 54.5026634,170.361006 C53.8007339,167.033758 53.8011997,164.790827 54.5040608,163.632214 C55.2069219,162.4736 58.17171,160.942473 63.398425,159.038832 Z" id="Path-Copy" transform="translate(126.6565, 153.1007) scale(1, -1) rotate(2) translate(-126.6565, -153.1007)"></path>
                            <path d="M110.299477,237.743303 L151.240175,164.72278 C157.005809,171.435768 161.15939,175.898455 163.700918,178.110841 C164.501515,178.807756 167.79409,181.922758 168.508167,182.425194 C178.101257,189.175056 187.936114,195.374115 194.480664,198.376912 C201.215078,201.466823 210.153438,206.568418 221.982943,209.509528 C223.226014,209.818586 231.86182,210.739976 235.299379,210.892042 C237.468593,210.988001 241.11463,211.182388 246.237491,211.475204 L203.421324,284.548678 C204.547276,289.311727 204.546579,292.669439 203.419232,294.621812 C202.291886,296.574185 199.305406,297.99608 194.459791,298.887499 C183.048308,297.429171 174.964915,296.00956 170.20961,294.628668 C155.33109,290.308095 144.543117,285.284379 137.648651,281.418461 C130.427046,277.369106 119.931984,271.366415 111.596248,262.279347 C109.304501,259.781036 105.90699,255.376413 101.403715,249.065477 C100.701786,245.738229 100.702252,243.495299 101.405113,242.336685 C102.107974,241.178072 105.072762,239.646944 110.299477,237.743303 Z" id="Path" transform="translate(173.5576, 231.8051) scale(1, -1) rotate(2) translate(-173.5576, -231.8051)"></path>
                        </g>
                        <g id="Group-Copy" transform="translate(620.8463, 294.8842) rotate(-49) translate(-620.8463, -294.8842)translate(596.3735, 239.6678)">
                            <path d="M17.2368148,4.31898082 C30.783154,-5.51431086 36.8153115,3.02633528 41.3608613,14.1259972 C45.906411,25.2256591 48.9457309,44.3947484 48.9457309,56.5956613 C48.9457309,68.6462412 47.7521046,87.314487 40.6906541,99.8836009 C40.4567235,100.299989 30.6421148,117.904842 17.2368148,106.718007 C3.83151472,95.531172 3.63146201,83.2076018 3.63146201,55.2924616 C3.63146201,27.3773215 3.69047551,14.1522725 17.2368148,4.31898082 Z" id="Path" stroke="#000000" stroke-width="5.58911599" fill="#639641"></path>
                            <ellipse id="Oval" fill="#F3F7C4" cx="23.6563746" cy="54.5337638" rx="23.6563746" ry="54.0053015"></ellipse>
                            <ellipse id="Oval-2" fill="#FDF17B" cx="25.928373" cy="55.2910966" rx="4.72305485" ry="36.5866473"></ellipse>
                            <path d="M26.7343434,20.1626512 C28.8925248,24.143055 30.3617598,27.8183652 31.1420486,31.1885818 C32.3124817,36.2439068 33.3139195,42.8253899 33.3139195,46.3225624 C33.3139195,48.7319944 33.3139195,49.6126766 33.3139195,55.1729235 C33.3139195,62.1722187 34.0391037,70.4712865 32.5312222,76.8021378 C31.4830482,81.202904 28.9092289,86.7351748 24.8097643,93.3989503" id="Path" stroke="#D5DF58" stroke-width="6.05866232"></path>
                            <path d="M30.2196592,26.3390909 C27.6895071,16.1046815 25.063443,14.8243683 22.3414667,22.4981513 C18.2585023,34.0088259 18.0138048,43.547219 18.0138048,60.7494669 C18.0138048,77.9517147 23.1491595,89.2369169 25.3795146,92.8400422 C26.866418,95.2421257 29.2503205,89.9014278 32.5312222,76.8179485" id="Path" stroke="#000000" stroke-width="5.58911599"></path>
                        </g>
                        <g id="Group" transform="translate(340.5266, 357.4397) rotate(-66) translate(-340.5266, -357.4397)translate(59.3721, 109.9705)">
                            <g id="Group-Copy-15" transform="translate(437.9069, 54.96) rotate(-49) translate(-437.9069, -54.96)translate(413.4341, -0.6601)">
                                <path d="M17.2368148,4.35055527 C30.783154,-5.55462391 36.8153115,3.04845968 41.3608613,14.2292671 C45.906411,25.4100744 48.9457309,44.7193018 48.9457309,57.0094109 C48.9457309,69.148088 47.7521046,87.9528105 40.6906541,100.613812 C40.4567235,101.033244 30.6421148,118.7668 17.2368148,107.498182 C3.83151472,96.2295645 3.63146201,83.8159013 3.63146201,55.696684 C3.63146201,27.5774668 3.69047551,14.2557345 17.2368148,4.35055527 Z" id="Path" stroke="#000000" stroke-width="5.58911599" fill="#639641"></path>
                                <ellipse id="Oval" fill="#F3F7C4" cx="23.6563746" cy="54.9374308" rx="23.6563746" ry="54.4089685"></ellipse>
                                <ellipse id="Oval-2" fill="#FDF17B" cx="25.928373" cy="55.6947635" rx="4.72305485" ry="36.9903143"></ellipse>
                                <path d="M26.7343434,20.1626512 C28.8925248,24.1869337 30.3617598,27.9027594 31.1420486,31.3101282 C32.3124817,36.4211815 33.3139195,43.0752168 33.3139195,46.610941 C33.3139195,49.0469339 33.3139195,49.9373244 33.3139195,55.5588658 C33.3139195,62.6353189 34.0391037,71.0258731 32.5312222,77.4265136 C31.4830482,81.8757925 28.9092289,87.4690494 24.8097643,94.2062843" id="Path" stroke="#D5DF58" stroke-width="6.05866232"></path>
                                <path d="M30.2196592,26.4324935 C27.6895071,16.0891267 25.063443,14.7951831 22.3414667,22.5506626 C18.2585023,34.1838818 18.0138048,43.8238224 18.0138048,61.2092085 C18.0138048,78.5945946 23.1491595,89.9999411 25.3795146,93.6414259 C26.866418,96.0690824 29.2503205,90.6715265 32.5312222,77.4487581" id="Path" stroke="#000000" stroke-width="5.58911599"></path>
                            </g>
                            <g id="Group-Copy-12" transform="translate(281.1546, 249.6835) rotate(-110) translate(-281.1546, -249.6835)translate(105.7042, 14.4494)" fill="#639641" stroke="#000000" stroke-width="5.47944059">
                                <path d="M11.7466883,75.5168213 L52.6643109,2.49353903 C58.4270376,9.20697289 62.5785168,13.6699628 65.1187486,15.8825088 C65.9189373,16.5794743 69.2098377,19.6946952 69.9235475,20.1971708 C79.5117118,26.9475578 89.3415046,33.1471189 95.882662,36.1501954 C102.613584,39.2403937 111.547331,44.3424191 123.370653,47.283912 C124.613074,47.5930106 133.244342,48.5146203 136.68009,48.6667631 C138.848161,48.7627702 142.492279,48.9572407 147.612442,49.2501743 L104.820342,122.326371 C105.945796,127.089677 105.945166,130.447553 104.818454,132.399999 C103.691742,134.352446 100.706866,135.774351 95.8638268,136.665715 C84.0319055,138.611306 75.7395334,138.893573 70.9867103,137.512517 C56.1159534,133.191431 45.2945099,125.537044 38.4036041,121.670797 C31.1857281,117.621098 21.2352361,109.606118 12.9037145,100.518436 C10.6131264,98.0199568 7.26383789,93.4602686 2.85584914,86.8393718 C2.15422288,83.5119464 2.15464319,81.2689056 2.85711008,80.1102494 C3.55957697,78.9515931 6.52276971,77.4204504 11.7466883,75.5168213 Z" id="Path" transform="translate(74.9712, 70.433) scale(1, -1) rotate(2) translate(-74.9712, -70.433)"></path>
                                <path d="M62.9175401,162.824242 L103.835287,89.8045187 C109.598002,96.5176088 113.749473,100.98037 116.289701,103.192801 C117.089888,103.889731 120.380783,107.004791 121.094492,107.50724 C130.682644,114.257275 140.512425,120.456511 147.053577,123.459427 C153.784493,126.54946 162.718231,131.651216 174.541547,134.592542 C175.783968,134.901623 184.415233,135.823172 187.85098,135.975301 C190.019052,136.0713 193.663169,136.265755 198.783331,136.558665 L155.991107,209.631303 C157.116552,214.39437 157.115917,217.752079 155.989202,219.70443 C154.862486,221.656782 151.877608,223.078621 147.034567,223.969949 C135.62908,222.511412 127.549926,221.091654 122.797105,219.710674 C107.926357,215.38983 97.1439848,210.365919 90.2530861,206.499876 C83.0352176,202.450391 72.5455839,196.44751 64.2140786,187.360294 C61.9234949,184.861943 58.527696,180.45726 54.0266818,174.146245 C53.3250614,170.818986 53.3254856,168.576057 54.0279544,167.417457 C54.7304233,166.258857 57.6936185,164.727785 62.9175401,162.824242 Z" id="Path" transform="translate(126.1421, 156.8872) scale(1, -1) rotate(2) translate(-126.1421, -156.8872)"></path>
                                <path d="M114.157795,244.601205 L155.075542,171.581482 C160.838257,178.294572 164.989728,182.757333 167.529956,184.969764 C168.330143,185.666694 171.621038,188.781754 172.334747,189.284203 C181.922899,196.034238 191.75268,202.233474 198.293832,205.23639 C205.024748,208.326423 213.958485,213.428179 225.781802,216.369505 C227.024223,216.678586 235.655488,217.600135 239.091235,217.752265 C241.259307,217.848263 244.903424,218.042718 250.023586,218.335628 L207.231361,291.408266 C208.356807,296.171333 208.356172,299.529042 207.229456,301.481393 C206.102741,303.433745 203.117863,304.855584 198.274822,305.746913 C186.869335,304.288375 178.790181,302.868617 174.03736,301.487637 C159.166612,297.166793 148.38424,292.142882 141.493341,288.276839 C134.275472,284.227354 123.785839,278.224473 115.454333,269.137257 C113.16375,266.638906 109.767951,262.234223 105.266937,255.923208 C104.565316,252.595949 104.56574,250.35302 105.268209,249.19442 C105.970678,248.03582 108.933873,246.504748 114.157795,244.601205 Z" id="Path" transform="translate(177.3823, 238.6642) scale(1, -1) rotate(2) translate(-177.3823, -238.6642)"></path>
                                <path d="M165.834387,328.124047 L206.752134,255.104323 C212.514848,261.817414 216.66632,266.280174 219.206547,268.492606 C220.006735,269.189536 223.29763,272.304596 224.011339,272.807045 C233.59949,279.55708 243.429272,285.756316 249.970424,288.759232 C256.70134,291.849265 265.635077,296.951021 277.458394,299.892347 C278.700815,300.201428 287.33208,301.122977 290.767827,301.275106 C292.935898,301.371105 296.580015,301.565559 301.700178,301.85847 L258.907953,374.931108 C260.033399,379.694175 260.032764,383.051884 258.906048,385.004235 C257.779333,386.956586 254.794455,388.378426 249.951414,389.269754 C238.545926,387.811217 230.466772,386.391459 225.713952,385.010479 C210.843204,380.689635 200.060831,375.665724 193.169933,371.799681 C185.952064,367.750195 175.462431,361.747314 167.130925,352.660099 C164.840342,350.161747 161.444543,345.757064 156.943528,339.44605 C156.241908,336.118791 156.242332,333.875862 156.944801,332.717262 C157.64727,331.558662 160.610465,330.02759 165.834387,328.124047 Z" id="Path-Copy" transform="translate(229.0589, 322.187) scale(1, -1) rotate(2) translate(-229.0589, -322.187)"></path>
                                <path d="M212.735439,406.828518 L253.653186,333.808795 C259.4159,340.521885 263.567372,344.984646 266.107599,347.197078 C266.907787,347.894007 270.198682,351.009067 270.91239,351.511517 C280.500542,358.261552 290.330324,364.460787 296.871476,367.463703 C303.602392,370.553736 312.536129,375.655493 324.359446,378.596819 C325.601867,378.9059 334.233132,379.827449 337.668879,379.979578 C339.83695,380.075576 343.481067,380.270031 348.60123,380.562941 L305.809005,453.635579 C306.934451,458.398647 306.933816,461.756356 305.8071,463.708707 C304.680385,465.661058 301.695506,467.082898 296.852466,467.974226 C285.446978,466.515688 277.367824,465.09593 272.615004,463.714951 C257.744255,459.394106 246.961883,454.370195 240.070985,450.504152 C232.853116,446.454667 222.363483,440.451786 214.031977,431.36457 C211.741394,428.866219 208.345595,424.461536 203.84458,418.150521 C203.14296,414.823262 203.143384,412.580333 203.845853,411.421733 C204.548322,410.263133 207.511517,408.732062 212.735439,406.828518 Z" id="Path" transform="translate(275.96, 400.8915) scale(1, -1) rotate(2) translate(-275.96, -400.8915)"></path>
                            </g>
                        </g>
                    </g>
                </g>
            </g>
        </g>
    </g>
</svg>