<?xml version="1.0" encoding="UTF-8"?>
<svg width="108px" height="36px" viewBox="0 0 108 36" version="1.1" xmlns="http://www.w3.org/2000/svg" xmlns:xlink="http://www.w3.org/1999/xlink">
    <title>Frame</title>
    <defs>
        <path d="M0,0 L106,0 L106,35 L0,35 L0,0 Z" id="path-1"></path>
        <linearGradient x1="50%" y1="0%" x2="50%" y2="100%" id="linearGradient-2">
            <stop stop-color="#F6E3A0" offset="0%"></stop>
            <stop stop-color="#E9C367" offset="100%"></stop>
        </linearGradient>
    </defs>
    <g id="Frame" stroke="none" fill="none" transform="translate(1, 1)" xlink:href="#path-1" fill-rule="evenodd" stroke-width="1">
        <g id="Group" fill="url(#linearGradient-2)" stroke="#000000">
            <path d="M14.6687182,0 L91.3312818,7.1530067e-16 C95.8228826,-4.88590056e-16 97.9055187,0.556953667 99.8610742,1.60279622 C101.81663,2.64863878 103.351361,4.18337022 104.397204,6.13892578 C105.443046,8.09448133 106,10.1771174 106,14.6687182 L106,22 C106,28.627417 100.627417,34 94,34 C73.2450683,34 52.4901366,34 31.7352049,34 C25.1568032,34 18.5784016,34 12,34 C5.372583,34 0,28.627417 0,22 L0,14.6687182 C0,10.1771174 0.556953667,8.09448133 1.60279622,6.13892578 C2.64863878,4.18337022 4.18337022,2.64863878 6.13892578,1.60279622 C8.09448133,0.556953667 10.1771174,0 14.6687182,0 Z" id="Rectangle-Copy-4"></path>
        </g>
        <g id="ô€¢-Check" transform="translate(16, 7)" fill="#000000">
            <path d="M9.47119141,18.3989258 C10.5724284,18.3989258 11.610026,18.1872559 12.5839844,17.763916 C13.5579427,17.3405762 14.4156901,16.758138 15.1572266,16.0166016 C15.898763,15.2750651 16.4798177,14.4187012 16.9003906,13.4475098 C17.3209635,12.4763184 17.53125,11.4373372 17.53125,10.3305664 C17.53125,9.22932943 17.3195801,8.19173177 16.8962402,7.21777344 C16.4729004,6.2438151 15.8904622,5.38468424 15.1489258,4.64038086 C14.4073893,3.89607747 13.5496419,3.31502279 12.5756836,2.8972168 C11.6017253,2.47941081 10.5641276,2.27050781 9.46289063,2.27050781 C8.36165365,2.27050781 7.32543945,2.47941081 6.35424805,2.8972168 C5.38305664,3.31502279 4.52530924,3.89607747 3.78100586,4.64038086 C3.03670247,5.38468424 2.45426432,6.2438151 2.03369141,7.21777344 C1.61311849,8.19173177 1.40283203,9.22932943 1.40283203,10.3305664 C1.40283203,11.4373372 1.61450195,12.4763184 2.0378418,13.4475098 C2.46118164,14.4187012 3.04361979,15.2750651 3.78515625,16.0166016 C4.52669271,16.758138 5.38305664,17.3405762 6.35424805,17.763916 C7.32543945,18.1872559 8.36442057,18.3989258 9.47119141,18.3989258 Z M9.47119141,16.9213867 C8.55810547,16.9213867 7.703125,16.7512207 6.90625,16.4108887 C6.109375,16.0705566 5.40934245,15.5987956 4.80615234,14.9956055 C4.20296224,14.3924154 3.73258464,13.6923828 3.39501953,12.8955078 C3.05745443,12.0986328 2.88867188,11.2436523 2.88867188,10.3305664 C2.88867188,9.41748047 3.05745443,8.5625 3.39501953,7.765625 C3.73258464,6.96875 4.20296224,6.26871745 4.80615234,5.66552734 C5.40934245,5.06233724 6.10799154,4.59195964 6.90209961,4.25439453 C7.69620768,3.91682943 8.54980469,3.74804688 9.46289062,3.74804688 C10.3759766,3.74804688 11.2323405,3.91682943 12.0319824,4.25439453 C12.8316243,4.59195964 13.5330404,5.06233724 14.1362305,5.66552734 C14.7394206,6.26871745 15.2097982,6.96875 15.5473633,7.765625 C15.8849284,8.5625 16.0537109,9.41748047 16.0537109,10.3305664 C16.0537109,11.2436523 15.8849284,12.0986328 15.5473633,12.8955078 C15.2097982,13.6923828 14.7394206,14.3924154 14.1362305,14.9956055 C13.5330404,15.5987956 12.8330078,16.0705566 12.0361328,16.4108887 C11.2392578,16.7512207 10.3842773,16.9213867 9.47119141,16.9213867 Z M8.60791016,14.065918 C8.89013672,14.065918 9.11149089,13.9358724 9.27197266,13.6757813 L12.824707,8.11425781 C12.8745117,8.03678385 12.9187826,7.95377604 12.9575195,7.86523438 C12.9962565,7.77669271 13.015625,7.68538411 13.015625,7.59130859 C13.015625,7.40869141 12.9464518,7.26204427 12.8081055,7.15136719 C12.6697591,7.0406901 12.5148112,6.98535156 12.3432617,6.98535156 C12.1108398,6.98535156 11.914388,7.10986328 11.7539063,7.35888672 L8.58300781,12.4472656 L7.08056641,10.5214844 C6.98649089,10.3997396 6.89241536,10.3167318 6.79833984,10.2724609 C6.70426432,10.2281901 6.59912109,10.2060547 6.48291016,10.2060547 C6.30029297,10.2060547 6.14672852,10.269694 6.0222168,10.3969727 C5.89770508,10.5242513 5.83544922,10.6791992 5.83544922,10.8618164 C5.83544922,11.0388997 5.89908854,11.2104492 6.02636719,11.3764648 L7.91064453,13.6757813 C8.01578776,13.8141276 8.12369792,13.913737 8.234375,13.9746094 C8.34505208,14.0354818 8.4695638,14.065918 8.60791016,14.065918 Z" id="Shape" fill-rule="nonzero"></path>
            <path d="M27.7679945,0.602050781 C27.2754814,0.834472656 26.8244723,0.997721354 26.4149671,1.09179688 C22.6685478,4.6500651 21.6420179,8.70638021 23.3353773,13.2607422 C23.9441012,15.3027344 25.2556247,16.2047526 27.2699476,15.9667969 C29.4724215,16.0830078 30.9499606,15.2224935 31.7025648,13.3852539 C31.5918877,13.1085612 31.428639,12.9868164 31.2128187,13.0200195 C28.5344333,14.1157227 26.7691338,13.6232096 25.9169202,11.5424805 C25.2971286,8.85302734 25.7094007,6.51774089 27.1537366,4.53662109 C28.0004163,3.56266276 28.9411715,3.39941406 29.9760023,4.046875 C29.8210544,4.60026042 29.9040622,5.05126953 30.2250257,5.39990234 L31.088307,5.51611328 C33.855234,3.57373047 33.362721,1.93570964 29.6107679,0.602050781 L29.2455335,0.602050781 L27.7679945,0.602050781 Z" id="Path" fill-rule="nonzero"></path>
            <path d="M35.487721,0.643554687 C35.1446221,1.07519531 34.7904554,1.39615885 34.425221,1.60644531 C34.3975517,2.15429688 34.3256116,2.6163737 34.2094007,2.99267578 L34.2094007,3.30810547 L33.9935804,4.16308594 C33.9880465,4.53938802 33.9520765,4.82438151 33.8856702,5.01806641 C33.8358655,5.53271484 33.7666924,5.95882161 33.6781507,6.29638672 L33.6781507,6.61181641 C33.5730075,6.90511068 33.5370374,7.19010417 33.5702405,7.46679688 C33.437428,7.88183594 33.3654879,8.27473958 33.3544202,8.64550781 L33.2465101,9.38427734 C33.097096,10.4025065 32.9200127,11.2215169 32.7152601,11.8413086 L32.8231702,13.8666992 C32.9006442,13.9718424 32.9366142,14.0797526 32.9310804,14.1904297 L33.0389905,14.7216797 L33.2465101,15.6762695 C33.6006767,15.5379232 33.8856702,15.3968099 34.1014905,15.2529297 L34.2094007,14.9375 L35.2719007,12.6962891 L35.2719007,12.3725586 L35.3798109,12.1650391 L35.487721,11.7333984 L35.8114515,9.70800781 L36.018971,9.81591797 L36.3427015,9.92382813 L36.550221,10.0317383 C37.6957288,10.3803711 38.6226494,10.5934245 39.3309827,10.6708984 L39.3309827,10.9863281 C39.5800062,11.6448568 39.7211195,12.2148438 39.7543226,12.6962891 C39.6934502,13.9635417 39.8705335,15.0647786 40.2855726,16 L41.140553,14.9375 C41.2456963,14.5722656 41.3508395,14.2872721 41.4559827,14.0825195 L41.671803,13.7587891 L41.7797132,13.4433594 L41.8876234,13.0117188 L41.9955335,12.6962891 L42.203053,12.3725586 L42.3109632,12.0571289 C42.3663017,11.5480143 42.4742119,11.1191406 42.6346937,10.7705078 L43.0580335,9.60009766 L43.0580335,9.28466797 L43.0580335,8.4296875 C42.9307549,8.18619792 42.8588148,7.93717448 42.8422132,7.68261719 L42.9501234,7.25927734 L42.9501234,6.93554688 C43.0220635,6.59798177 43.0580335,6.31298828 43.0580335,6.08056641 L43.0580335,5.76513672 L43.0580335,5.44140625 C43.1299736,5.10384115 43.1659437,4.81884766 43.1659437,4.58642578 L43.1659437,4.27099609 L43.1659437,3.83935547 L43.1659437,3.52392578 L43.1659437,1.390625 C41.7714124,0.283854167 40.7753187,0.604817708 40.1776624,2.35351563 L40.5013929,2.77685547 L40.609303,2.99267578 L40.609303,3.63183594 L40.5013929,3.94726563 C40.6010023,5.52441406 40.4571221,6.91064453 40.0697523,8.10595703 L39.3309827,7.99804688 L38.5839124,7.8984375 L38.3680921,7.79052734 L38.0443616,7.79052734 L37.2972913,7.46679688 L36.2347913,7.04345703 L36.2347913,6.61181641 C36.3565361,6.21891276 36.4284762,5.86474609 36.4506116,5.54931641 C36.5170179,5.2117513 36.550221,4.92675781 36.550221,4.69433594 L36.6581312,4.47851563 L36.6581312,4.16308594 L36.7660413,3.41601563 C36.9873955,2.59700521 37.0593356,1.8499349 36.9818616,1.17480469 C36.5723564,0.770833333 36.1462497,0.59375 35.7035413,0.643554687 L35.487721,0.643554687 Z" id="Path" fill-rule="nonzero"></path>
            <path d="M45.7142835,0.942382812 C45.4873955,1.4625651 45.2605075,1.87483724 45.0336195,2.17919922 L44.9257093,2.40332031 C44.6656182,2.69661458 44.4774671,2.99544271 44.3612562,3.29980469 C44.7154228,3.98046875 44.8648369,4.65559896 44.8094984,5.32519531 C44.7043551,6.29915365 44.405527,7.08496094 43.913014,7.68261719 C43.8687432,8.49609375 43.9821872,9.17122396 44.253346,9.70800781 L43.913014,11.6171875 L43.796803,12.4057617 C43.6252536,13.5291341 43.5892835,14.4671224 43.6888929,15.2197266 C44.4138278,15.4742839 45.124928,15.5489909 45.8221937,15.4438477 L46.1625257,15.4438477 C47.5681247,15.9363607 48.8796481,16.1245117 50.097096,16.0083008 C50.3793226,15.5323893 50.5287366,15.0813802 50.5453382,14.6552734 C49.9144788,14.2070312 49.4662366,13.6813151 49.2006116,13.078125 L48.2958265,12.9702148 C47.593027,12.7488607 46.9953708,12.5994466 46.5028577,12.5219727 L46.5028577,12.1816406 L46.6107679,11.9575195 L46.6107679,11.6171875 L46.834889,10.7207031 L47.0590101,9.93212891 L47.3993421,9.93212891 L47.6234632,9.82421875 L48.5199476,9.82421875 C49.2338148,9.71907552 49.8342379,9.71907552 50.3212171,9.82421875 C53.1158135,8.81152344 53.2292575,7.83479818 50.6615491,6.89404297 L50.097096,7.12646484 L49.756764,7.12646484 L48.5199476,6.89404297 L47.3993421,6.66992187 L47.3993421,6.33789062 L47.5072523,6.11376953 L47.6234632,4.08837891 L47.9637952,3.97216797 L48.4120374,3.86425781 L49.3085218,3.86425781 C50.3322848,3.60970052 51.1955661,3.46028646 51.8983655,3.41601563 C52.717376,2.1875 52.2303968,1.24951172 50.437428,0.602050781 L49.756764,0.826171875 L48.8602796,0.826171875 L48.5199476,0.826171875 L48.1879163,0.942382812 L47.9637952,0.826171875 L47.175221,0.718261719 L46.834889,0.718261719 C46.4807223,0.64078776 46.1818942,0.602050781 45.9384046,0.602050781 L45.7142835,0.942382812 Z" id="Path" fill-rule="nonzero"></path>
            <path d="M57.874928,0.602050781 C57.382415,0.834472656 56.9314059,0.997721354 56.5219007,1.09179688 C52.7754814,4.6500651 51.7489515,8.70638021 53.4423109,13.2607422 C54.0510348,15.3027344 55.3625583,16.2047526 57.3768812,15.9667969 C59.5793551,16.0830078 61.0568942,15.2224935 61.8094984,13.3852539 C61.6988213,13.1085612 61.5355726,12.9868164 61.3197523,13.0200195 C58.6413669,14.1157227 56.8760674,13.6232096 56.0238538,11.5424805 C55.4040622,8.85302734 55.8163343,6.51774089 57.2606702,4.53662109 C58.1073499,3.56266276 59.0481051,3.39941406 60.0829359,4.046875 C59.9279879,4.60026042 60.0109958,5.05126953 60.3319593,5.39990234 L61.1952405,5.51611328 C63.9621676,3.57373047 63.4696546,1.93570964 59.7177015,0.602050781 L59.3524671,0.602050781 L57.874928,0.602050781 Z" id="Path" fill-rule="nonzero"></path>
            <path d="M64.706471,1.38232422 C64.5957939,1.79736328 64.5238538,2.1570638 64.4906507,2.46142578 L64.4906507,2.77685547 C64.3301689,3.30257161 64.2609958,3.77018229 64.2831312,4.1796875 C64.1503187,4.59472656 64.0783786,4.99039714 64.0673109,5.36669922 C63.6135348,5.65445964 63.2898044,5.9781901 63.0961195,6.33789063 L63.3119398,7.30078125 C63.0186455,7.92610677 63.0546155,8.5016276 63.4198499,9.02734375 L63.3119398,9.78271484 L63.2040296,9.99853516 L63.0961195,10.6376953 L62.9882093,11.5009766 C63.0103447,12.1650391 62.9384046,12.7405599 62.772389,13.2275391 C62.9716077,13.9192708 63.0795179,14.4920247 63.0961195,14.9458008 L63.3119398,15.9169922 C63.5277601,15.9557292 63.7076103,15.811849 63.8514905,15.4853516 L64.0673109,15.2695312 L64.175221,15.0537109 L64.3910413,14.9458008 C64.5238538,14.519694 64.7009372,14.1627604 64.9222913,13.875 L65.0302015,13.5512695 C65.2515557,12.9812826 65.467376,12.5136719 65.6776624,12.1484375 C65.7219333,11.3017578 65.9017835,10.5491536 66.2172132,9.890625 L66.4330335,10.3139648 L66.6488538,10.5297852 L66.8646741,10.8535156 L66.9725843,11.1772461 C67.3488864,11.6033529 67.6338799,11.9990234 67.8275648,12.3642578 L68.1512952,13.1196289 C68.4279879,13.418457 68.6438083,13.7062174 68.7987562,13.9829102 L68.9066663,14.2983398 C69.4821872,14.7797852 69.9138278,15.2473958 70.2015882,15.7011719 L70.4174085,15.809082 L71.0565687,16.0249023 C71.3000583,15.7426758 71.4439385,15.4908854 71.4882093,15.2695312 L71.7040296,14.6220703 C71.5103447,14.218099 71.4024346,13.8611654 71.3802991,13.5512695 L71.272389,13.1196289 C70.9735609,12.5164388 70.7605075,12.0128581 70.6332288,11.6088867 C70.5059502,11.5369466 70.4340101,11.4650065 70.4174085,11.3930664 L70.2015882,11.0693359 L70.093678,10.7456055 C69.9663994,10.6736654 69.8944593,10.6017253 69.8778577,10.5297852 L69.7699476,10.3139648 L69.5541273,9.99853516 C68.9398695,9.15738932 68.5082288,8.43798828 68.2592054,7.84033203 C70.6442965,7.19840495 72.1163017,5.8343099 72.675221,3.74804687 C70.8877861,3.68164063 69.3438408,4.11328125 68.0433851,5.04296875 L66.8646741,5.47460938 L66.8646741,5.04296875 L66.9725843,4.61132813 L66.9725843,4.28759766 L67.0804945,3.96386719 L67.0804945,3.64013672 L67.4042249,1.921875 C66.8729749,1.19140625 66.225514,0.759765625 65.4618421,0.626953125 L64.706471,1.38232422 Z" id="Path" fill-rule="nonzero"></path>
        </g>
    </g>
</svg>