<?xml version="1.0" encoding="UTF-8"?>
<svg width="140px" height="34px" viewBox="0 0 140 34" version="1.1" xmlns="http://www.w3.org/2000/svg" xmlns:xlink="http://www.w3.org/1999/xlink">
    <title>Group</title>
    <defs>
        <linearGradient x1="50%" y1="0%" x2="50%" y2="100%" id="linearGradient-1">
            <stop stop-color="#F6E3A0" offset="0%"></stop>
            <stop stop-color="#E9C367" offset="100%"></stop>
        </linearGradient>
    </defs>
    <g id="Page-1" stroke="none" stroke-width="1" fill="none" fill-rule="evenodd">
        <g id="Group" transform="translate(0, 0.5)">
            <path d="M14.9754658,0 L125.024534,6.63502932e-16 C129.284232,-4.78230508e-16 131.405519,0.556953667 133.361074,1.60279622 C135.31663,2.64863878 136.851361,4.18337022 137.897204,6.13892578 C138.943046,8.09448133 139.5,10.2157678 139.5,14.4754658 L139.5,18.5245342 C139.5,22.7842322 138.943046,24.9055187 137.897204,26.8610742 C136.851361,28.8166298 135.31663,30.3513612 133.361074,31.3972038 C131.405519,32.4430463 129.284232,33 125.024534,33 L14.9754658,33 C10.7157678,33 8.59448133,32.4430463 6.63892578,31.3972038 C4.68337022,30.3513612 3.14863878,28.8166298 2.10279622,26.8610742 C1.05695367,24.9055187 0.5,22.7842322 0.5,18.5245342 L0.5,14.4754658 C0.5,10.2157678 1.05695367,8.09448133 2.10279622,6.13892578 C3.14863878,4.18337022 4.68337022,2.64863878 6.63892578,1.60279622 C8.59448133,0.556953667 10.7157678,0 14.9754658,0 Z" id="Rectangle-Copy-4" stroke="#000000" fill="url(#linearGradient-1)"></path>
            <g id="Start-Game" transform="translate(0, 7.1021)" fill="#000000" fill-rule="nonzero">
                <path d="M31.0300293,0.0249023438 C27.6101074,0.368001302 25.7701009,1.84554036 25.5100098,4.45751953 C25.9859212,6.77620443 28.041748,8.29248047 31.6774902,9.00634766 C32.0150553,9.3273112 32.1949056,9.68701172 32.217041,10.0854492 C31.1324056,11.2143555 29.942627,11.9724935 28.6477051,12.3598633 C27.9559733,12.8081055 27.3057454,13.0958659 26.6970215,13.2231445 C26.6250814,13.3061523 26.5531413,13.3421224 26.4812012,13.3310547 C25.7119954,13.7626953 25.0257975,14.0504557 24.4226074,14.1943359 C23.9356283,14.4986979 23.5759277,14.8224284 23.3435059,15.1655273 C28.2520345,15.785319 31.9680176,14.5595703 34.4914551,11.4882813 C35.7421061,8.32845052 33.9380697,6.23942057 29.0793457,5.22119141 C28.7085775,4.95003255 28.4208171,4.65950521 28.2160645,4.34960938 C29.1844889,3.08235677 30.5181478,2.57877604 32.217041,2.83886719 C33.5783691,1.01269531 33.1826986,0.0747070313 31.0300293,0.0249023438 Z" id="Path"></path>
                <path d="M38.8078613,0.0498046875 C36.9816895,0.509114583 35.7753092,1.52734375 35.1887207,3.10449219 C35.5871582,4.35514323 36.4532064,4.91959635 37.7868652,4.79785156 C37.6872559,5.36783854 37.6512858,5.86035156 37.6789551,6.27539063 L37.6789551,9.66210938 C37.7010905,10.5419922 37.6623535,11.2973633 37.5627441,11.9282227 C37.6734212,12.4760742 37.6734212,12.9658203 37.5627441,13.3974609 C37.6568197,13.8180339 37.6955566,14.230306 37.6789551,14.6342773 L37.9030762,14.5263672 C38.9268392,15.9042969 39.8316243,15.5639648 40.6174316,13.5053711 L40.6174316,12.6005859 L40.5012207,11.8120117 L40.6174316,11.4716797 L40.6174316,10.6831055 L40.7253418,10.0024414 C40.9411621,8.97314453 41.0158691,8.10709635 40.9494629,7.40429688 L40.9494629,7.06396484 C41.3036296,6.01253255 41.4558105,5.03304036 41.4060059,4.12548828 C42.7728678,3.79899089 43.450765,2.93017578 43.4396973,1.51904297 C42.0008952,0.35139974 40.4569499,-0.138346354 38.8078613,0.0498046875 Z" id="Path"></path>
                <path d="M47.9802246,1.34472656 L47.1169434,2.84716797 L46.104248,5.86865234 L45.1496582,6.44970703 L44.7429199,7.47070312 L44.8508301,8.52490234 C44.4025879,9.42692057 44.0152181,10.320638 43.6887207,11.2060547 L43.4729004,14.2109375 C43.9377441,14.7864583 44.4385579,15.1433919 44.9753418,15.2817383 L46.0461426,14.2109375 L47.0007324,10.8491211 L49.482666,10.3510742 C49.1063639,12.6420898 49.0593262,13.7211914 49.3415527,13.5883789 L50.1218262,15.4975586 C53.010498,11.0649414 53.3674316,6.56038411 51.192627,1.98388672 L51.4084473,1.12890625 C50.7609863,0.785807292 50.2601725,0.428873698 49.9060059,0.0581054688 L47.9802246,1.34472656 Z M48.0632324,7.86083984 L48.9680176,5.70263672 L49.4909668,7.74462891 L48.0632324,7.86083984 Z" id="Shape"></path>
                <path d="M56.2893066,0.0498046875 C53.9429525,0.426106771 53.1350098,2.84440104 53.8654785,7.3046875 C53.6883952,8.14029948 53.4200033,8.82926432 53.0603027,9.37158203 C53.1101074,9.94710286 53.2456868,10.4091797 53.467041,10.7578125 L53.5666504,11.0981445 L53.5666504,12.7167969 C53.6496582,13.735026 53.6828613,14.5789388 53.6662598,15.2485352 C53.7824707,15.3260091 53.848877,15.4034831 53.8654785,15.480957 C54.2749837,15.6635742 54.6789551,15.6995443 55.0773926,15.5888672 C55.1991374,15.3177083 55.3347168,15.0880534 55.4841309,14.8999023 L55.5837402,14.6674805 C55.7331543,13.7599284 55.9683431,13.0322266 56.2893066,12.484375 L56.7956543,13.5219727 L57.1940918,13.7460937 L57.6008301,14.2109375 L58.098877,14.4433594 L58.704834,14.7836914 L59.1115723,15.1323242 C59.6428223,15.3370768 60.0799967,15.5667318 60.4230957,15.8212891 L60.8215332,16.0537109 L61.2282715,16.1699219 L62.0334473,16.7426758 L62.3405762,16.8588867 L62.5397949,17.0913086 L62.838623,17.2075195 L63.145752,17.3154297 L64.7561035,18.3530273 L66.067627,18.5854492 L66.5739746,17.7802734 L66.5739746,16.9750977 C66.4577637,16.8976237 66.3913574,16.8201497 66.3747559,16.7426758 C66.2530111,16.6652018 66.1838379,16.5877279 66.1672363,16.5102539 L65.9680176,16.394043 L65.6691895,16.1699219 C65.3537598,15.9098307 65.118571,15.6414388 64.963623,15.3647461 C64.5651855,15.1378581 64.2608236,14.8694661 64.0505371,14.5595703 L63.8513184,14.4433594 L63.6520996,14.3271484 L63.0461426,13.8623047 L62.4401855,13.6381836 L62.2409668,13.4057617 L62.0334473,13.2895508 C61.3251139,12.9685872 60.755127,12.5452474 60.3234863,12.0195312 L60.1159668,11.9116211 L59.916748,11.7954102 L59.310791,11.3305664 C58.6411947,10.8325195 58.1376139,10.2569987 57.8000488,9.60400391 L57.2937012,9.14746094 C61.4108887,7.21614583 62.9243978,4.83658854 61.8342285,2.00878906 C59.9914551,0.669596354 58.1431478,0.0166015625 56.2893066,0.0498046875 Z M56.6877441,2.97167969 C58.5747884,3.45865885 58.475179,4.16422526 56.388916,5.08837891 L56.388916,4.78955078 L56.6877441,2.97167969 Z" id="Shape"></path>
                <path d="M66.3996582,0.0498046875 C64.5734863,0.509114583 63.3671061,1.52734375 62.7805176,3.10449219 C63.1789551,4.35514323 64.0450033,4.91959635 65.3786621,4.79785156 C65.2790527,5.36783854 65.2430827,5.86035156 65.270752,6.27539063 L65.270752,9.66210938 C65.2928874,10.5419922 65.2541504,11.2973633 65.154541,11.9282227 C65.2652181,12.4760742 65.2652181,12.9658203 65.154541,13.3974609 C65.2486165,13.8180339 65.2873535,14.230306 65.270752,14.6342773 L65.494873,14.5263672 C66.5186361,15.9042969 67.4234212,15.5639648 68.2092285,13.5053711 L68.2092285,12.6005859 L68.0930176,11.8120117 L68.2092285,11.4716797 L68.2092285,10.6831055 L68.3171387,10.0024414 C68.532959,8.97314453 68.607666,8.10709635 68.5412598,7.40429688 L68.5412598,7.06396484 C68.8954264,6.01253255 69.0476074,5.03304036 68.9978027,4.12548828 C70.3646647,3.79899089 71.0425618,2.93017578 71.0314941,1.51904297 C69.5926921,0.35139974 68.0487467,-0.138346354 66.3996582,0.0498046875 Z" id="Path"></path>
                <path d="M80.4030762,0.0415039062 C74.4652507,3.18473307 73.0513509,7.61735026 76.161377,13.3393555 L77.6555176,14.6010742 C79.2603353,15.6414388 80.751709,15.6027018 82.1296387,14.4848633 C83.7787272,13.8152669 84.6945801,12.5922852 84.8771973,10.815918 C84.4234212,7.88297526 82.2458496,6.73746745 78.3444824,7.37939453 L78.1120605,7.8359375 C77.979248,8.26757813 77.9405111,8.64941406 77.9958496,8.98144531 C78.1120605,8.99251302 78.2282715,8.95654297 78.3444824,8.87353516 C78.6433105,9.01188151 78.8729655,9.20279948 79.0334473,9.44628906 C79.1662598,9.51822917 79.2409668,9.5929362 79.2575684,9.67041016 L79.6062012,9.78662109 L80.5192871,10.359375 C80.8181152,10.6305339 81.0865072,10.8214518 81.3244629,10.9321289 C80.4224447,11.6515299 79.4678548,11.8811849 78.4606934,11.6210938 L77.9958496,10.815918 C76.8503418,7.72249349 77.5780436,5.20182292 80.1789551,3.25390625 C81.1031087,3.64127604 81.9442546,3.83219401 82.7023926,3.82666016 C83.3387858,3.44482422 83.8340658,3.0242513 84.1882324,2.56494141 C83.8340658,0.783040365 82.572347,-0.0581054688 80.4030762,0.0415039062 Z" id="Path"></path>
                <path d="M89.5090332,1.34472656 L88.645752,2.84716797 L87.6330566,5.86865234 L86.6784668,6.44970703 L86.2717285,7.47070312 L86.3796387,8.52490234 C85.9313965,9.42692057 85.5440267,10.320638 85.2175293,11.2060547 L85.001709,14.2109375 C85.4665527,14.7864583 85.9673665,15.1433919 86.5041504,15.2817383 L87.5749512,14.2109375 L88.529541,10.8491211 L91.0114746,10.3510742 C90.6351725,12.6420898 90.5881348,13.7211914 90.8703613,13.5883789 L91.6506348,15.4975586 C94.5393066,11.0649414 94.8962402,6.56038411 92.7214355,1.98388672 L92.9372559,1.12890625 C92.2897949,0.785807292 91.7889811,0.428873698 91.4348145,0.0581054688 L89.5090332,1.34472656 Z M89.592041,7.86083984 L90.4968262,5.70263672 L91.0197754,7.74462891 L89.592041,7.86083984 Z" id="Shape"></path>
                <path d="M105.363525,0.282226563 L103.902588,1.41113281 C103.50415,1.80957031 103.202555,2.14713542 102.997803,2.42382812 C102.494222,3.50292969 101.855062,4.33024089 101.080322,4.90576172 C100.277913,3.80452474 99.4146322,2.97721354 98.4904785,2.42382812 C98.4904785,1.859375 98.4517415,1.40836589 98.3742676,1.07080078 L97.1374512,0.174316406 C96.6062012,0.810709635 96.005778,0.99609375 95.3361816,0.73046875 C94.9654134,1.25065104 94.7385254,1.77913411 94.6555176,2.31591797 C95.0926921,2.97998047 95.2808431,3.6163737 95.2199707,4.22509766 L95.2199707,4.56542969 C95.1148275,4.87532552 95.0788574,5.17692057 95.1120605,5.47021484 L94.8796387,6.93115234 C94.8575033,7.51220703 94.7827962,8.00195312 94.6555176,8.40039063 C94.6555176,9.4296875 94.5061035,10.3317057 94.2072754,11.1064453 L94.3234863,11.8950195 C94.4396973,12.1717122 94.5144043,12.4345703 94.5476074,12.6835938 L94.9958496,14.7172852 L95.2199707,14.6010742 L95.7844238,13.9204102 L96.232666,13.3642578 L96.348877,13.0239258 L96.4650879,12.6835938 L97.1374512,11.3305664 L97.3615723,9.75341797 L97.3615723,9.30517578 L97.4777832,9.07275391 L97.5856934,8.06005859 L97.5856934,7.72802734 L97.5856934,7.38769531 L97.7019043,7.04736328 C97.7295736,6.42757161 97.8042806,5.90185547 97.9260254,5.47021484 C98.9497884,6.57698568 99.5142415,7.81656901 99.6193848,9.18896484 C99.8960775,9.5320638 100.084229,9.86962891 100.183838,10.2016602 L100.63208,10.09375 C100.709554,9.9609375 100.784261,9.88623047 100.856201,9.86962891 L101.760986,8.28417969 L101.985107,8.17626953 L102.209229,8.06005859 L102.325439,7.8359375 L102.549561,7.72802734 C102.826253,7.35725911 103.089111,7.05566406 103.338135,6.82324219 C103.338135,7.6422526 103.263428,8.31738281 103.114014,8.84863281 L103.114014,9.18896484 C102.831787,10.245931 102.75708,11.2226563 102.889893,12.1191406 L102.657471,12.7998047 L102.889893,15.2734375 L103.338135,15.3896484 C105.48527,12.5341797 106.423258,9.11425781 106.1521,5.12988281 C106.373454,4.5875651 106.486898,4.10058594 106.492432,3.66894531 C106.746989,3.25390625 106.93514,2.87760417 107.056885,2.54003906 C106.896403,1.68229167 106.857666,0.9296875 106.940674,0.282226563 C106.453695,0.0885416667 106.002686,0.0138346354 105.587646,0.0581054687 L105.363525,0.282226563 Z" id="Path"></path>
                <path d="M109.389404,0.340332031 C109.162516,0.860514323 108.935628,1.27278646 108.70874,1.57714844 L108.60083,1.80126953 C108.340739,2.0945638 108.152588,2.39339193 108.036377,2.69775391 C108.390544,3.37841797 108.539958,4.05354818 108.484619,4.72314453 C108.379476,5.69710286 108.080648,6.48291016 107.588135,7.08056641 C107.543864,7.89404297 107.657308,8.56917318 107.928467,9.10595703 L107.588135,11.0151367 L107.471924,11.8037109 C107.300374,12.9270833 107.264404,13.8650716 107.364014,14.6176758 C108.088949,14.8722331 108.800049,14.9469401 109.497314,14.8417969 L109.837646,14.8417969 C111.243245,15.3343099 112.554769,15.5224609 113.772217,15.40625 C114.054443,14.9303385 114.203857,14.4793294 114.220459,14.0532227 C113.5896,13.6049805 113.141357,13.0792643 112.875732,12.4760742 L111.970947,12.3681641 C111.268148,12.1468099 110.670492,11.9973958 110.177979,11.9199219 L110.177979,11.5795898 L110.285889,11.3554687 L110.285889,11.0151367 L110.51001,10.1186523 L110.734131,9.33007812 L111.074463,9.33007812 L111.298584,9.22216797 L112.195068,9.22216797 C112.908936,9.11702474 113.509359,9.11702474 113.996338,9.22216797 C116.790934,8.20947266 116.904378,7.2327474 114.33667,6.29199219 L113.772217,6.52441406 L113.431885,6.52441406 L112.195068,6.29199219 L111.074463,6.06787109 L111.074463,5.73583984 L111.182373,5.51171875 L111.298584,3.48632812 L111.638916,3.37011719 L112.087158,3.26220703 L112.983643,3.26220703 C114.007406,3.00764974 114.870687,2.85823568 115.573486,2.81396484 C116.392497,1.58544922 115.905518,0.647460937 114.112549,0 L113.431885,0.224121094 L112.5354,0.224121094 L112.195068,0.224121094 L111.863037,0.340332031 L111.638916,0.224121094 L110.850342,0.116210937 L110.51001,0.116210937 C110.155843,0.0387369792 109.857015,0 109.613525,0 L109.389404,0.340332031 Z" id="Path"></path>
            </g>
        </g>
    </g>
</svg>