<?xml version="1.0" encoding="UTF-8"?>
<svg width="140px" height="34px" viewBox="0 0 140 34" version="1.1" xmlns="http://www.w3.org/2000/svg" xmlns:xlink="http://www.w3.org/1999/xlink">
    <title>Frame</title>
    <defs>
        <path d="M0,0 L140,0 L140,33 L0,33 L0,0 Z" id="path-1"></path>
        <linearGradient x1="50%" y1="0%" x2="50%" y2="100%" id="linearGradient-2">
            <stop stop-color="#F6E3A0" offset="0%"></stop>
            <stop stop-color="#E9C367" offset="100%"></stop>
        </linearGradient>
    </defs>
    <g id="Frame" stroke="none" fill="none" transform="translate(0, 0.5)" xlink:href="#path-1" fill-rule="evenodd" stroke-width="1">
        <g id="Group" fill="url(#linearGradient-2)" stroke="#000000">
            <path d="M14.9754658,0 L125.024534,6.63502932e-16 C129.284232,-4.78230508e-16 131.405519,0.556953667 133.361074,1.60279622 C135.31663,2.64863878 136.851361,4.18337022 137.897204,6.13892578 C138.943046,8.09448133 139.5,10.2157678 139.5,14.4754658 L139.5,21 C139.5,27.627417 134.127417,33 127.5,33 C99.0383443,33 70.5766885,33 42.1150328,33 C32.2433552,33 22.3716776,33 12.5,33 C5.872583,33 0.5,27.627417 0.5,21 L0.5,14.4754658 C0.5,10.2157678 1.05695367,8.09448133 2.10279622,6.13892578 C3.14863878,4.18337022 4.68337022,2.64863878 6.63892578,1.60279622 C8.59448133,0.556953667 10.7157678,0 14.9754658,0 Z" id="Rectangle-Copy-4"></path>
        </g>
        <g id="Play-Again" transform="translate(19, 7.7744)" fill="#000000">
            <path d="M2.50488281,0.483398438 C0.834960938,1.63769531 0.600585938,2.80664062 1.80175781,3.99023437 C1.71972656,4.4296875 1.68164062,4.81933594 1.6875,5.15917969 C1.50585937,5.71582031 1.42675781,6.22265625 1.45019531,6.6796875 C0.0908203125,7.74023437 -0.064453125,8.91210937 0.984375,10.1953125 L0.870117188,10.7753906 C0.875976563,11.5839844 0.6796875,12.2871094 0.28125,12.8847656 C1.1484375,18.2578125 2.31738281,18.0615234 3.78808594,12.2958984 C3.82324219,11.4755859 3.94042969,10.7753906 4.13964844,10.1953125 C9.13183594,11.1269531 11.6279297,9.68261719 11.6279297,5.86230469 C10.9541016,2.22363281 8.34082031,0.5859375 3.78808594,0.94921875 C3.44824219,0.755859375 3.02050781,0.600585937 2.50488281,0.483398438 Z M4.84277344,3.99023438 C7.51464844,3.7734375 8.72460938,4.74902344 8.47265625,6.91699219 C7.1953125,7.84863281 5.83007812,8.04492188 4.37695312,7.50585938 L4.49121094,7.15429688 L4.49121094,6.56542969 L4.60546875,6.21386719 L4.60546875,5.86230469 L4.60546875,5.51074219 L4.84277344,3.99023438 Z" id="Shape" fill-rule="nonzero"></path>
            <path d="M15.9785156,0.94921875 C15.8554688,1.37109375 15.7324219,1.69628906 15.609375,1.92480469 L15.7324219,2.78613281 L15.609375,3.0234375 C15.46875,3.89648438 15.2666016,4.62890625 15.0029297,5.22070313 L14.8798828,6.07324219 L14.3876953,7.29492188 C14.1708984,8.91796875 13.6845703,10.2597656 12.9287109,11.3203125 C12.7529297,11.9648438 12.5068359,12.5332031 12.1904297,13.0253906 C12.1435547,13.9570313 12.3486328,14.7685547 12.8056641,15.4599609 C12.8583984,15.9345703 12.9404297,16.3417969 13.0517578,16.6816406 L14.5107422,15.8291016 C15.1201172,15.7998047 15.6474609,15.8408203 16.0927734,15.9521484 L16.4619141,15.9521484 L17.0683594,16.0751953 L17.4375,16.0751953 C18.0820313,16.2392578 18.6503906,16.3183594 19.1425781,16.3125 L20.7333984,16.5585937 L21.2167969,16.5585937 L21.4628906,16.6816406 C22.5761719,16.4296875 23.5517578,16.3476563 24.3896484,16.4355469 L25.1191406,15.3369141 C24.375,14.3583984 23.4404297,13.6699219 22.3154297,13.2714844 L21.3398438,13.5087891 L20.9707031,13.3857422 L20.4873047,13.3857422 L19.8720703,13.2714844 L19.5117188,13.2714844 L19.1425781,13.1484375 C18.7148438,13.1367188 18.3896484,13.0957031 18.1669922,13.0253906 C17.3935547,12.9785156 16.7431641,12.8964844 16.2158203,12.7792969 L16.4619141,11.9267578 L16.4619141,11.5576172 L16.7080078,10.7050781 L16.8310547,10.4677734 L17.0683594,9.60644531 L17.1914063,9.12304688 L17.8066406,6.92578125 L17.9208984,6.31933594 L18.0439453,5.95019531 L18.1669922,5.71289063 L18.7822266,3.63867187 L18.7822266,3.26953125 L19.265625,1.31835937 C18.3632813,0.8671875 17.5517578,0.583007812 16.8310547,0.465820312 L15.9785156,0.94921875 Z" id="Path" fill-rule="nonzero"></path>
            <path d="M30.0498047,1.84570312 L29.1357422,3.43652344 L28.0634766,6.63574219 L27.0527344,7.25097656 L26.6220703,8.33203125 L26.7363281,9.44824219 C26.2617187,10.4033203 25.8515625,11.3496094 25.5058594,12.2871094 L25.2773438,15.46875 C25.7695312,16.078125 26.2998047,16.4560547 26.8681641,16.6025391 L28.0019531,15.46875 L29.0126953,11.9091797 L31.640625,11.3818359 C31.2421875,13.8076172 31.1923828,14.9501953 31.4912109,14.8095703 L32.3173828,16.8310547 C35.3759766,12.1376953 35.7539062,7.36816406 33.4511719,2.52246094 L33.6796875,1.6171875 C32.9941406,1.25390625 32.4638672,0.875976562 32.0888672,0.483398438 L30.0498047,1.84570312 Z M30.1376953,8.74511719 L31.0957031,6.45996094 L31.6494141,8.62207031 L30.1376953,8.74511719 Z" id="Shape" fill-rule="nonzero"></path>
            <path d="M37.5996094,0.711914062 C36.5683594,1.22167969 35.8095703,1.86621094 35.3232422,2.64550781 L35.4375,3.21679688 L35.7802734,3.21679688 C35.9033203,3.29296875 35.9794922,3.36914063 36.0087891,3.4453125 L36.3427734,3.66503906 L36.5712891,3.89355469 L36.9140625,4.12207031 L37.1425781,4.35058594 L37.3710938,4.69335938 C37.9804688,5.05664063 38.4345703,5.43457031 38.7333984,5.82714844 C38.6865234,6.30761719 38.7246094,6.7265625 38.8476562,7.08398438 C39.2167969,7.62304688 39.4833984,8.11523438 39.6474609,8.56054688 L39.5332031,8.90332031 C39.4453125,9.47753906 39.3310547,9.93164063 39.1904297,10.265625 C39.0966797,11.3085938 38.8681641,12.1816406 38.5048828,12.8847656 L38.6191406,14.2470703 C38.5371094,15.1142578 38.765625,15.796875 39.3046875,16.2949219 C39.3515625,16.8691406 39.5039062,16.9453125 39.7617187,16.5234375 L39.9902344,16.2949219 L40.1044922,16.0664063 L40.4384766,15.2753906 L40.6669922,15.1611328 C40.9306641,14.5751953 41.1972656,14.1181641 41.4667969,13.7900391 L41.6953125,12.65625 L42.4951172,10.1513672 L42.4951172,8.90332031 C42.6884766,8.29394531 42.7998047,7.76367188 42.8291016,7.3125 C42.9931641,6.70898438 43.0693359,6.17578125 43.0576172,5.71289063 C44.5458984,4.453125 45.3808594,3.01464844 45.5625,1.39746094 C43.8925781,0.899414063 42.3369141,1.69335938 40.8955078,3.77929688 C39.5771484,2.90625 38.6689453,1.84570313 38.1708984,0.59765625 L37.7138672,0.483398438 L37.5996094,0.711914062 Z" id="Path" fill-rule="nonzero"></path>
            <path d="M53.7275391,1.84570312 L52.8134766,3.43652344 L51.7412109,6.63574219 L50.7304688,7.25097656 L50.2998047,8.33203125 L50.4140625,9.44824219 C49.9394531,10.4033203 49.5292969,11.3496094 49.1835938,12.2871094 L48.9550781,15.46875 C49.4472656,16.078125 49.9775391,16.4560547 50.5458984,16.6025391 L51.6796875,15.46875 L52.6904297,11.9091797 L55.3183594,11.3818359 C54.9199219,13.8076172 54.8701172,14.9501953 55.1689453,14.8095703 L55.9951172,16.8310547 C59.0537109,12.1376953 59.4316406,7.36816406 57.1289063,2.52246094 L57.3574219,1.6171875 C56.671875,1.25390625 56.1416016,0.875976562 55.7666016,0.483398438 L53.7275391,1.84570312 Z M53.8154297,8.74511719 L54.7734375,6.45996094 L55.3271484,8.62207031 L53.8154297,8.74511719 Z" id="Shape" fill-rule="nonzero"></path>
            <path d="M65.2324219,0.465820312 C58.9453125,3.79394531 57.4482422,8.48730469 60.7412109,14.5458984 L62.3232422,15.8818359 C64.0224609,16.9833984 65.6015625,16.9423828 67.0605469,15.7587891 C68.8066406,15.0498047 69.7763672,13.7548828 69.9697266,11.8740234 C69.4892578,8.76855469 67.1835938,7.55566406 63.0527344,8.23535156 L62.8066406,8.71875 C62.6660156,9.17578125 62.625,9.58007812 62.6835938,9.93164062 C62.8066406,9.94335937 62.9296875,9.90527344 63.0527344,9.81738281 C63.3691406,9.96386719 63.6123047,10.1660156 63.7822266,10.4238281 C63.9228516,10.5 64.0019531,10.5791016 64.0195312,10.6611328 L64.3886719,10.7841797 L65.3554688,11.390625 C65.671875,11.6777344 65.9560547,11.8798828 66.2080078,11.9970703 C65.2529297,12.7587891 64.2421875,13.0019531 63.1757813,12.7265625 L62.6835938,11.8740234 C61.4707031,8.59863281 62.2412109,5.9296875 64.9951172,3.8671875 C65.9736328,4.27734375 66.8642578,4.47949219 67.6669922,4.47363281 C68.3408203,4.06933594 68.8652344,3.62402344 69.2402344,3.13769531 C68.8652344,1.25097656 67.5292969,0.360351563 65.2324219,0.465820312 Z" id="Path" fill-rule="nonzero"></path>
            <path d="M74.8740234,1.84570312 L73.9599609,3.43652344 L72.8876953,6.63574219 L71.8769531,7.25097656 L71.4462891,8.33203125 L71.5605469,9.44824219 C71.0859375,10.4033203 70.6757812,11.3496094 70.3300781,12.2871094 L70.1015625,15.46875 C70.59375,16.078125 71.1240234,16.4560547 71.6923828,16.6025391 L72.8261719,15.46875 L73.8369141,11.9091797 L76.4648438,11.3818359 C76.0664062,13.8076172 76.0166016,14.9501953 76.3154297,14.8095703 L77.1416016,16.8310547 C80.2001953,12.1376953 80.578125,7.36816406 78.2753906,2.52246094 L78.5039062,1.6171875 C77.8183594,1.25390625 77.2880859,0.875976562 76.9130859,0.483398438 L74.8740234,1.84570312 Z M74.9619141,8.74511719 L75.9199219,6.45996094 L76.4736328,8.62207031 L74.9619141,8.74511719 Z" id="Shape" fill-rule="nonzero"></path>
            <path d="M83.3291016,0.465820312 C82.5908203,1.15722656 82.2363281,1.97753906 82.265625,2.92675781 C82.5,3.36621094 82.6582031,3.796875 82.7402344,4.21875 L83.0917969,4.21875 C83.9824219,3.82617188 84.8027344,3.62988281 85.5527344,3.62988281 L85.5527344,3.98144531 C85.3359375,4.74902344 85.21875,5.4140625 85.2011719,5.9765625 L84.9638672,6.6796875 L84.7353516,8.67480469 L84.6123047,9.02636719 L84.4980469,10.1953125 L84.3837891,10.4326172 C84.3427734,11.2763672 84.2636719,11.9794922 84.1464844,12.5419922 C82.4179688,12.9111328 81.5185547,12.6357422 81.4482422,11.7158203 C80.3173828,12.3310547 79.7314453,13.2304687 79.6904297,14.4140625 L80.15625,14.765625 L81.4482422,15.2402344 L81.7998047,15.3544922 L82.0371094,15.46875 L82.3886719,15.5917969 L85.0869141,16.2949219 C85.1806641,16.4296875 85.21875,16.5849609 85.2011719,16.7607422 L86.1416016,16.6464844 L86.9589844,16.5234375 C87.7910156,16.5878906 88.4941406,16.5117188 89.0683594,16.2949219 C89.2324219,15.9199219 89.3496094,15.5683594 89.4199219,15.2402344 C88.2832031,14.578125 87.4628906,13.7958984 86.9589844,12.8935547 L87.0732422,12.4189453 L87.0732422,11.953125 L87.1962891,11.3642578 L87.1962891,11.0126953 L87.3105469,10.546875 L87.4248047,10.1953125 L87.4248047,9.72949219 L87.5478516,9.25488281 L87.6621094,7.97167969 L87.7763672,7.49707031 L87.7763672,7.14550781 L87.8994141,6.91699219 L88.2509766,4.5703125 C90.4599609,4.62890625 91.5146484,3.96386719 91.4150391,2.57519531 C91.1279297,2.03027344 90.8554687,1.59960938 90.5976562,1.28320312 L90.2460937,1.16894531 L88.9541016,0.931640625 C88.5205078,0.990234375 88.1279297,0.990234375 87.7763672,0.931640625 L87.5478516,0.817382812 L87.1962891,0.817382812 L86.8447266,0.817382812 L86.4931641,0.817382812 L86.0185547,0.703125 C84.9873047,0.755859375 84.0908203,0.676757812 83.3291016,0.465820312 Z" id="Path" fill-rule="nonzero"></path>
            <path d="M101.021484,0 C100.916016,0.404296875 100.810547,0.600585937 100.705078,0.588867187 L100.388672,0.905273437 C100.154297,1.39746094 99.8378906,1.74902344 99.4394531,1.95996094 L99.1230469,2.48730469 L99.0175781,2.80371094 C99.1640625,3.06152344 99.1992188,3.41308594 99.1230469,3.85839844 L98.9121094,5.01855469 L98.8066406,5.33496094 L98.7011719,5.86230469 L98.5957031,6.17871094 L98.5957031,6.49511719 L98.3847656,7.33886719 C98.15625,7.99511719 98.015625,8.55761719 97.9628906,9.02636719 L97.7519531,8.70996094 C97.6523438,8.35839844 97.546875,8.07714844 97.4355469,7.86621094 L96.4863281,5.22949219 C96.8085938,4.45605469 96.9140625,3.71777344 96.8027344,3.01464844 C95.9882813,2.46386719 95.1796875,2.32324219 94.3769531,2.59277344 C93.8203125,2.97949219 93.3984375,3.36621094 93.1113281,3.75292969 L92.9003906,4.28027344 C92.7421875,4.86035156 92.671875,5.52832031 92.6894531,6.28417969 C92.5136719,6.67089844 92.3378906,6.98730469 92.1621094,7.23339844 L92.1621094,7.65527344 L92.0566406,8.39355469 L91.9511719,9.13183594 L91.8457031,9.76464844 L91.7402344,10.0810547 L91.6347656,10.8193359 L91.6347656,11.5576172 L91.5292969,11.8740234 C91.5175781,12.2783203 91.4824219,12.6298828 91.4238281,12.9287109 L91.4238281,13.2451172 C91.2480469,13.9423828 91.1425781,14.5400391 91.1074219,15.0380859 C91.6289062,15.5478516 91.9453125,16.1103516 92.0566406,16.7255859 C92.53125,16.1396484 93.0585938,15.7177734 93.6386719,15.4599609 C93.7734375,13.6669922 94.2304688,12.1201172 95.0097656,10.8193359 L95.2207031,11.1357422 L95.4316406,11.4521484 L95.5371094,11.6630859 L95.9589844,12.4013672 C96.28125,13.5380859 96.7734375,14.4873047 97.4355469,15.2490234 C98.0097656,15.3603516 98.5371094,15.3603516 99.0175781,15.2490234 C101.314453,12.3896484 102.193359,9.29589844 101.654297,5.96777344 C101.953125,3.84082031 101.777344,2.01269531 101.126953,0.483398437 L101.021484,0.483398437 L101.126953,0.483398437 L101.021484,0 Z" id="Path" fill-rule="nonzero"></path>
        </g>
    </g>
</svg>