<?xml version="1.0" encoding="UTF-8"?>
<svg width="251px" height="256px" viewBox="0 0 251 256" version="1.1" xmlns="http://www.w3.org/2000/svg" xmlns:xlink="http://www.w3.org/1999/xlink">
    <title>Group</title>
    <g id="Page-1" stroke="none" stroke-width="1" fill="none" fill-rule="evenodd">
        <g id="Group" transform="translate(125, 128) rotate(89) translate(-125, -128)translate(2, 7)">
            <g transform="translate(123, 121) rotate(-37) translate(-123, -121)translate(30.4342, 39.3126)">
                <g id="Group-Copy-15" transform="translate(144.2016, 18.091) rotate(-49) translate(-144.2016, -18.091)translate(136.146, -0.2173)">
                    <path d="M5.6737899,1.43205905 C10.1327972,-1.82839866 12.1183841,1.0034522 13.6146289,4.68380456 C15.1108737,8.36415693 16.1113174,14.7201166 16.1113174,18.7656144 C16.1113174,22.7612659 15.7184151,28.9511591 13.3940189,33.1187426 C13.3170166,33.2568057 10.0863718,39.0941062 5.6737899,35.3848497 C1.26120805,31.6755931 1.19535731,27.5894253 1.19535731,18.3335081 C1.19535731,9.07759088 1.2147826,4.69251676 5.6737899,1.43205905 Z" id="Path" stroke="#000000" stroke-width="1.83975231" fill="#639641"></path>
                    <ellipse id="Oval" fill="#F3F7C4" cx="7.78689689" cy="18.083587" rx="7.78689689" ry="17.9096347"></ellipse>
                    <ellipse id="Oval-2" fill="#FDF17B" cx="8.53476368" cy="18.3328759" rx="1.5546736" ry="12.1759893"></ellipse>
                    <path d="M8.80006252,6.63687859 C9.51046451,7.96153942 9.99408814,9.18466646 10.2509334,10.3062597 C10.6362013,11.9886495 10.9658416,14.1789381 10.9658416,15.3427817 C10.9658416,16.1446301 10.9658416,16.4377172 10.9658416,18.2881429 C10.9658416,20.6174775 11.2045482,23.3793706 10.7082035,25.48625 C10.3631792,26.9508056 9.51596296,28.791921 8.16655466,31.0095961" id="Path" stroke="#D5DF58" stroke-width="1.99431145"></path>
                    <path d="M9.94731332,8.70070351 C9.11447085,5.29600892 8.25005729,4.87008542 7.35407264,7.42293302 C6.01009567,11.2522044 5.92954936,14.4253544 5.92954936,20.148049 C5.92954936,25.8707437 7.61993843,29.6250069 8.35409763,30.8236634 C8.8435371,31.6227677 9.62823905,29.8460706 10.7082035,25.4935722" id="Path" stroke="#000000" stroke-width="1.83975231"></path>
                </g>
                <g id="Group-Copy-12" transform="translate(92.5658, 82.3879) rotate(-110) translate(-92.5658, -82.3879)translate(34.7746, 4.754)" fill="#639641" stroke="#000000" stroke-width="1.80365079">
                    <path d="M3.87292713,25.0707738 L17.3567893,0.823872198 C19.2572483,3.05382432 20.6263112,4.53628991 21.463978,5.27126896 C21.7278482,5.50279188 22.8130763,6.53760381 23.0484193,6.70453116 C26.2100776,8.94707659 29.4513514,11.0067182 31.6081369,12.0045612 C33.8274926,13.0313525 36.7732596,14.7264377 40.6715,15.7042732 C41.0811358,15.8070264 43.9268279,16.1138096 45.0595614,16.1646236 C45.774354,16.1966889 46.9757877,16.2615769 48.6638625,16.3592877 L34.5620143,40.6236043 C34.9334619,42.2055476 34.9335366,43.3206664 34.5622386,43.9689606 C34.1909405,44.6172548 33.2069859,45.0892052 31.6103748,45.3848118 C27.7097103,46.0299296 24.9758486,46.122971 23.4087896,45.6639358 C18.5057344,44.2276946 14.9374043,41.6848355 12.6652388,40.4003122 C10.2852602,39.0548389 7.00404088,36.3923039 4.2564846,33.3736706 C3.50109798,32.5437567 2.39649864,31.029246 0.942686582,28.8301384 C0.711090031,27.725073 0.71104009,26.9801804 0.94253676,26.5954607 C1.17403343,26.2107409 2.15083022,25.702512 3.87292713,25.0707738 Z" id="Path" transform="translate(24.7164, 23.387) scale(1, -1) rotate(2) translate(-24.7164, -23.387)"></path>
                    <path d="M20.716746,53.8114618 L34.2005874,29.5639676 C36.1010485,31.7939769 37.4701127,33.2764807 38.3077802,34.0114788 C38.5716506,34.2430077 39.6568797,35.2778463 39.8922228,35.4447781 C43.0538831,37.6873821 46.2951588,39.747078 48.4519452,40.7449477 C50.6713019,41.7717665 53.6170705,43.4668965 57.5153118,44.4447598 C57.9249477,44.5475159 60.7706402,44.8543093 61.9033737,44.9051254 C62.6181664,44.9371921 63.8196002,45.0020829 65.5076752,45.0997976 L51.4058476,69.3647067 C51.7772966,70.9466897 51.7773723,72.0618363 51.4060748,72.7101464 C51.0347773,73.3584564 50.0508231,73.8304177 48.4542122,74.1260302 C44.6938495,73.6406592 42.0301385,73.1684497 40.463079,72.7094018 C35.5600225,71.2731205 32.0047901,69.6036872 29.7326234,68.3191299 C27.3526435,66.973621 23.89384,64.9790816 21.146281,61.9603707 C20.3908936,61.1304354 19.2709695,59.6672844 17.7865086,57.5709176 C17.5549111,56.4658244 17.5548605,55.7209132 17.7863569,55.3361841 C18.0178532,54.951455 18.9946496,54.4432142 20.716746,53.8114618 Z" id="Path" transform="translate(41.5602, 51.845) scale(1, -1) rotate(2) translate(-41.5602, -51.845)"></path>
                    <path d="M37.5833449,80.729736 L51.0671863,56.4822418 C52.9676473,58.7122512 54.3367116,60.1947549 55.174379,60.929753 C55.4382494,61.1612819 56.5234785,62.1961206 56.7588216,62.3630523 C59.920482,64.6056564 63.1617576,66.6653522 65.3185441,67.6632219 C67.5379007,68.6900407 70.4836693,70.3851707 74.3819106,71.363034 C74.7915465,71.4657901 77.6372391,71.7725835 78.7699726,71.8233997 C79.4847653,71.8554664 80.6861991,71.9203571 82.374274,72.0180718 L68.2724465,96.2829809 C68.6438954,97.864964 68.6439712,98.9801105 68.2726737,99.6284206 C67.9013762,100.276731 66.917422,100.748692 65.3208111,101.044304 C61.5604484,100.558933 58.8967373,100.086724 57.3296779,99.627676 C52.4266214,98.1913947 48.8713889,96.5219614 46.5992223,95.2374042 C44.2192424,93.8918953 40.7604388,91.8973558 38.0128798,88.8786449 C37.2574925,88.0487097 36.1375683,86.5855586 34.6531075,84.4891918 C34.42151,83.3840986 34.4214594,82.6391875 34.6529557,82.2544584 C34.8844521,81.8697292 35.8612484,81.3614885 37.5833449,80.729736 Z" id="Path" transform="translate(58.4268, 78.7633) scale(1, -1) rotate(2) translate(-58.4268, -78.7633)"></path>
                    <path d="M54.5935714,108.222696 L68.0774129,83.9752016 C69.9778739,86.205211 71.3469381,87.6877147 72.1846056,88.4227128 C72.448476,88.6542417 73.5337051,89.6890804 73.7690482,89.8560121 C76.9307086,92.0986162 80.1719842,94.158312 82.3287707,95.1561817 C84.5481273,96.1830005 87.4938959,97.8781305 91.3921372,98.8559938 C91.8017731,98.9587499 94.6474657,99.2655433 95.7801992,99.3163595 C96.4949918,99.3484262 97.6964256,99.4133169 99.3845006,99.5110316 L85.2826731,123.775941 C85.654122,125.357924 85.6541978,126.47307 85.2829003,127.12138 C84.9116028,127.76969 83.9276486,128.241652 82.3310377,128.537264 C78.570675,128.051893 75.9069639,127.579684 74.3399045,127.120636 C69.436848,125.684354 65.8816155,124.014921 63.6094489,122.730364 C61.229469,121.384855 57.7706654,119.390316 55.0231064,116.371605 C54.267719,115.541669 53.1477949,114.078518 51.6633341,111.982152 C51.4317365,110.877058 51.431686,110.132147 51.6631823,109.747418 C51.8946786,109.362689 52.871475,108.854448 54.5935714,108.222696 Z" id="Path-Copy" transform="translate(75.437, 106.2562) scale(1, -1) rotate(2) translate(-75.437, -106.2562)"></path>
                    <path d="M70.0318481,134.129607 L83.5156895,109.882113 C85.4161505,112.112123 86.7852148,113.594626 87.6228822,114.329624 C87.8867526,114.561153 88.9719817,115.595992 89.2073248,115.762924 C92.3689852,118.005528 95.6102609,120.065224 97.7670473,121.063093 C99.9864039,122.089912 102.932173,123.785042 106.830414,124.762905 C107.24005,124.865661 110.085742,125.172455 111.218476,125.223271 C111.933268,125.255338 113.134702,125.320228 114.822777,125.417943 L100.72095,149.682852 C101.092399,151.264835 101.092474,152.379982 100.721177,153.028292 C100.349879,153.676602 99.3659252,154.148563 97.7693143,154.444176 C94.0089516,153.958805 91.3452405,153.486595 89.7781811,153.027547 C84.8751246,151.591266 81.3198922,149.921833 79.0477255,148.637276 C76.6677456,147.291767 73.208942,145.297227 70.461383,142.278516 C69.7059957,141.448581 68.5860716,139.98543 67.1016107,137.889063 C66.8700132,136.78397 66.8699626,136.039059 67.1014589,135.65433 C67.3329553,135.269601 68.3097517,134.76136 70.0318481,134.129607 Z" id="Path" transform="translate(90.8753, 132.1631) scale(1, -1) rotate(2) translate(-90.8753, -132.1631)"></path>
                </g>
            </g>
            <rect id="Rectangle" fill="#639641" transform="translate(123.5, 126) rotate(-89) translate(-123.5, -126)" x="54" y="113" width="139" height="26"></rect>
        </g>
    </g>
</svg>