<?xml version="1.0" encoding="UTF-8"?>
<svg width="140px" height="34px" viewBox="0 0 140 34" version="1.1" xmlns="http://www.w3.org/2000/svg" xmlns:xlink="http://www.w3.org/1999/xlink">
    <title>Group</title>
    <defs>
        <linearGradient x1="50%" y1="0%" x2="50%" y2="100%" id="linearGradient-1">
            <stop stop-color="#F6E3A0" offset="0%"></stop>
            <stop stop-color="#E9C367" offset="100%"></stop>
        </linearGradient>
    </defs>
    <g id="Page-1" stroke="none" stroke-width="1" fill="none" fill-rule="evenodd">
        <g id="Group" transform="translate(0.5, 0.5)">
            <path d="M14.4754658,0 L124.524534,6.63502932e-16 C128.784232,-4.78230508e-16 130.905519,0.556953667 132.861074,1.60279622 C134.81663,2.64863878 136.351361,4.18337022 137.397204,6.13892578 C138.443046,8.09448133 139,10.2157678 139,14.4754658 L139,18.5245342 C139,22.7842322 138.443046,24.9055187 137.397204,26.8610742 C136.351361,28.8166298 134.81663,30.3513612 132.861074,31.3972038 C130.905519,32.4430463 128.784232,33 124.524534,33 L14.4754658,33 C10.2157678,33 8.09448133,32.4430463 6.13892578,31.3972038 C4.18337022,30.3513612 2.64863878,28.8166298 1.60279622,26.8610742 C0.556953667,24.9055187 0,22.7842322 0,18.5245342 L0,14.4754658 C0,10.2157678 0.556953667,8.09448133 1.60279622,6.13892578 C2.64863878,4.18337022 4.18337022,2.64863878 6.13892578,1.60279622 C8.09448133,0.556953667 10.2157678,0 14.4754658,0 Z" id="Rectangle-Copy-5" stroke="#000000" fill="url(#linearGradient-1)"></path>
            <g id="Slice-Mode" transform="translate(18, 7.1021)" fill="#000000" fill-rule="nonzero">
                <path d="M8.15136719,0.0249023438 C4.73144531,0.368001302 2.8914388,1.84554036 2.63134766,4.45751953 C3.10725911,6.77620443 5.16308594,8.29248047 8.79882812,9.00634766 C9.13639323,9.3273112 9.31624349,9.68701172 9.33837891,10.0854492 C8.25374349,11.2143555 7.06396484,11.9724935 5.76904297,12.3598633 C5.0773112,12.8081055 4.42708333,13.0958659 3.81835937,13.2231445 C3.74641927,13.3061523 3.67447917,13.3421224 3.60253906,13.3310547 C2.83333333,13.7626953 2.14713542,14.0504557 1.54394531,14.1943359 C1.05696615,14.4986979 0.697265625,14.8224284 0.46484375,15.1655273 C5.3733724,15.785319 9.08935547,14.5595703 11.612793,11.4882813 C12.863444,8.32845052 11.0594076,6.23942057 6.20068359,5.22119141 C5.82991536,4.95003255 5.54215495,4.65950521 5.33740234,4.34960938 C6.30582682,3.08235677 7.63948568,2.57877604 9.33837891,2.83886719 C10.699707,1.01269531 10.3040365,0.0747070313 8.15136719,0.0249023438 Z" id="Path"></path>
                <path d="M15.9291992,0.498046875 C15.8129883,0.896484375 15.6967773,1.20361328 15.5805664,1.41943359 L15.6967773,2.23291016 L15.5805664,2.45703125 C15.4477539,3.28157552 15.2568359,3.97330729 15.0078125,4.53222656 L14.8916016,5.33740234 L14.4267578,6.49121094 C14.2220052,8.02408854 13.7626953,9.29134115 13.0488281,10.2929688 C12.8828125,10.9016927 12.6503906,11.4384766 12.3515625,11.9033203 C12.3072917,12.7832031 12.5009766,13.5496419 12.9326172,14.2026367 C12.9824219,14.6508789 13.0598958,15.0354818 13.1650391,15.3564453 L14.5429688,14.5512695 C15.1184896,14.5236003 15.6165365,14.5623372 16.0371094,14.6674805 L16.3857422,14.6674805 L16.9584961,14.7836914 L17.3071289,14.7836914 C17.9158529,14.9386393 18.4526367,15.0133464 18.9174805,15.0078125 L20.4199219,15.2402344 L20.8764648,15.2402344 L21.1088867,15.3564453 C22.160319,15.1184896 23.0817057,15.0410156 23.8730469,15.1240234 L24.5620117,14.0864258 C23.8592122,13.1622721 22.9765625,12.5120443 21.9140625,12.1357422 L20.9926758,12.3598633 L20.644043,12.2436523 L20.1875,12.2436523 L19.6064453,12.1357422 L19.2661133,12.1357422 L18.9174805,12.0195312 C18.5135091,12.0084635 18.2063802,11.9697266 17.9960937,11.9033203 C17.265625,11.8590495 16.6513672,11.7815755 16.1533203,11.6708984 L16.3857422,10.8657227 L16.3857422,10.5170898 L16.6181641,9.71191406 L16.734375,9.48779297 L16.9584961,8.67431641 L17.074707,8.21777344 L17.6557617,6.14257812 L17.7636719,5.56982422 L17.8798828,5.22119141 L17.9960937,4.99707031 L18.5771484,3.03808594 L18.5771484,2.68945313 L19.0336914,0.846679687 C18.1814779,0.420572917 17.4150391,0.15218099 16.734375,0.0415039062 L15.9291992,0.498046875 Z" id="Path"></path>
                <path d="M27.9321289,0.0415039062 C27.2348633,0.694498698 26.9000651,1.46923828 26.9277344,2.36572266 C27.1490885,2.78076172 27.2985026,3.1875 27.3759766,3.5859375 L27.7080078,3.5859375 C28.5491536,3.21516927 29.3238932,3.02978516 30.0322266,3.02978516 L30.0322266,3.36181641 C29.827474,4.0867513 29.7167969,4.71484375 29.7001953,5.24609375 L29.4760742,5.91015625 L29.2602539,7.79443359 L29.144043,8.12646484 L29.0361328,9.23046875 L28.9282227,9.45458984 C28.8894857,10.2514648 28.8147786,10.9155273 28.7041016,11.4467773 C27.0716146,11.7954102 26.222168,11.535319 26.1557617,10.6665039 C25.0877279,11.2475586 24.5343424,12.0970052 24.4956055,13.2148437 L24.9355469,13.546875 L26.1557617,13.9951172 L26.487793,14.1030273 L26.7119141,14.2109375 L27.0439453,14.3271484 L29.5922852,14.9912109 C29.6808268,15.1184896 29.7167969,15.2651367 29.7001953,15.4311523 L30.5883789,15.3232422 L31.3603516,15.2070313 C32.1461589,15.2679036 32.8102214,15.1959635 33.3525391,14.9912109 C33.507487,14.6370443 33.6181641,14.305013 33.6845703,13.9951172 C32.6110026,13.3697917 31.836263,12.6310221 31.3603516,11.7788086 L31.4682617,11.3305664 L31.4682617,10.890625 L31.5844727,10.3344727 L31.5844727,10.0024414 L31.6923828,9.5625 L31.800293,9.23046875 L31.800293,8.79052734 L31.9165039,8.34228516 L32.0244141,7.13037109 L32.1323242,6.68212891 L32.1323242,6.35009766 L32.2485352,6.13427734 L32.5805664,3.91796875 C34.6668294,3.97330729 35.6629232,3.34521484 35.5688477,2.03369141 C35.2976888,1.51904297 35.0403646,1.11230469 34.796875,0.813476562 L34.4648437,0.705566406 L33.2446289,0.481445312 C32.8351237,0.536783854 32.4643555,0.536783854 32.1323242,0.481445312 L31.9165039,0.373535156 L31.5844727,0.373535156 L31.2524414,0.373535156 L30.9204102,0.373535156 L30.472168,0.265625 C29.4982096,0.315429688 28.6515299,0.240722656 27.9321289,0.0415039062 Z" id="Path"></path>
                <path d="M40.6157227,0 C40.1232096,0.232421875 39.6722005,0.395670573 39.2626953,0.489746094 C35.516276,4.04801432 34.4897461,8.10432943 36.1831055,12.6586914 C36.7918294,14.7006836 38.1033529,15.6027018 40.1176758,15.3647461 C42.3201497,15.480957 43.7976888,14.6204427 44.550293,12.7832031 C44.4396159,12.5065104 44.2763672,12.3847656 44.0605469,12.4179688 C41.3821615,13.5136719 39.616862,13.0211589 38.7646484,10.9404297 C38.1448568,8.25097656 38.5571289,5.9156901 40.0014648,3.93457031 C40.8481445,2.96061198 41.7888997,2.79736328 42.8237305,3.44482422 C42.6687826,3.99820964 42.7517904,4.44921875 43.0727539,4.79785156 L43.9360352,4.9140625 C46.7029622,2.97167969 46.2104492,1.33365885 42.4584961,0 L42.0932617,0 L40.6157227,0 Z" id="Path"></path>
                <path d="M47.6879883,0.340332031 C47.4611003,0.860514323 47.2342122,1.27278646 47.0073242,1.57714844 L46.8994141,1.80126953 C46.6393229,2.0945638 46.4511719,2.39339193 46.3349609,2.69775391 C46.6891276,3.37841797 46.8385417,4.05354818 46.7832031,4.72314453 C46.6780599,5.69710286 46.3792318,6.48291016 45.8867187,7.08056641 C45.8424479,7.89404297 45.9558919,8.56917318 46.2270508,9.10595703 L45.8867187,11.0151367 L45.7705078,11.8037109 C45.5989583,12.9270833 45.5629883,13.8650716 45.6625977,14.6176758 C46.3875326,14.8722331 47.0986328,14.9469401 47.7958984,14.8417969 L48.1362305,14.8417969 C49.5418294,15.3343099 50.8533529,15.5224609 52.0708008,15.40625 C52.3530273,14.9303385 52.5024414,14.4793294 52.519043,14.0532227 C51.8881836,13.6049805 51.4399414,13.0792643 51.1743164,12.4760742 L50.2695312,12.3681641 C49.5667318,12.1468099 48.9690755,11.9973958 48.4765625,11.9199219 L48.4765625,11.5795898 L48.5844727,11.3554687 L48.5844727,11.0151367 L48.8085937,10.1186523 L49.0327148,9.33007812 L49.3730469,9.33007812 L49.597168,9.22216797 L50.4936523,9.22216797 C51.2075195,9.11702474 51.8079427,9.11702474 52.2949219,9.22216797 C55.0895182,8.20947266 55.2029622,7.2327474 52.6352539,6.29199219 L52.0708008,6.52441406 L51.7304687,6.52441406 L50.4936523,6.29199219 L49.3730469,6.06787109 L49.3730469,5.73583984 L49.480957,5.51171875 L49.597168,3.48632812 L49.9375,3.37011719 L50.3857422,3.26220703 L51.2822266,3.26220703 C52.3059896,3.00764974 53.1692708,2.85823568 53.8720703,2.81396484 C54.6910807,1.58544922 54.2041016,0.647460937 52.4111328,0 L51.7304687,0.224121094 L50.8339844,0.224121094 L50.4936523,0.224121094 L50.1616211,0.340332031 L49.9375,0.224121094 L49.1489258,0.116210937 L48.8085937,0.116210937 C48.4544271,0.0387369792 48.155599,0 47.9121094,0 L47.6879883,0.340332031 Z" id="Path"></path>
                <path d="M68.4980469,0.282226563 L67.0371094,1.41113281 C66.6386719,1.80957031 66.3370768,2.14713542 66.1323242,2.42382812 C65.6287435,3.50292969 64.9895833,4.33024089 64.2148438,4.90576172 C63.4124349,3.80452474 62.5491536,2.97721354 61.625,2.42382812 C61.625,1.859375 61.586263,1.40836589 61.5087891,1.07080078 L60.2719727,0.174316406 C59.7407227,0.810709635 59.1402995,0.99609375 58.4707031,0.73046875 C58.0999349,1.25065104 57.8730469,1.77913411 57.7900391,2.31591797 C58.2272135,2.97998047 58.4153646,3.6163737 58.3544922,4.22509766 L58.3544922,4.56542969 C58.249349,4.87532552 58.2133789,5.17692057 58.246582,5.47021484 L58.0141602,6.93115234 C57.9920247,7.51220703 57.9173177,8.00195312 57.7900391,8.40039063 C57.7900391,9.4296875 57.640625,10.3317057 57.3417969,11.1064453 L57.4580078,11.8950195 C57.5742188,12.1717122 57.6489258,12.4345703 57.6821289,12.6835938 L58.1303711,14.7172852 L58.3544922,14.6010742 L58.9189453,13.9204102 L59.3671875,13.3642578 L59.4833984,13.0239258 L59.5996094,12.6835938 L60.2719727,11.3305664 L60.4960938,9.75341797 L60.4960938,9.30517578 L60.6123047,9.07275391 L60.7202148,8.06005859 L60.7202148,7.72802734 L60.7202148,7.38769531 L60.8364258,7.04736328 C60.8640951,6.42757161 60.9388021,5.90185547 61.0605469,5.47021484 C62.0843099,6.57698568 62.648763,7.81656901 62.7539062,9.18896484 C63.030599,9.5320638 63.21875,9.86962891 63.3183594,10.2016602 L63.7666016,10.09375 C63.8440755,9.9609375 63.9187826,9.88623047 63.9907227,9.86962891 L64.8955078,8.28417969 L65.1196289,8.17626953 L65.34375,8.06005859 L65.4599609,7.8359375 L65.684082,7.72802734 C65.9607747,7.35725911 66.2236328,7.05566406 66.4726562,6.82324219 C66.4726562,7.6422526 66.3979492,8.31738281 66.2485352,8.84863281 L66.2485352,9.18896484 C65.9663086,10.245931 65.8916016,11.2226563 66.0244141,12.1191406 L65.7919922,12.7998047 L66.0244141,15.2734375 L66.4726562,15.3896484 C68.6197917,12.5341797 69.5577799,9.11425781 69.2866211,5.12988281 C69.5079753,4.5875651 69.6214193,4.10058594 69.6269531,3.66894531 C69.8815104,3.25390625 70.0696615,2.87760417 70.1914062,2.54003906 C70.0309245,1.68229167 69.9921875,0.9296875 70.0751953,0.282226563 C69.5882161,0.0885416667 69.137207,0.0138346354 68.722168,0.0581054687 L68.4980469,0.282226563 Z" id="Path"></path>
                <path d="M76.9233398,0.0581054688 C76.8458659,0.196451823 76.765625,0.276692708 76.6826172,0.298828125 L76.3256836,0.298828125 L75.9604492,0.298828125 C75.019694,0.852213542 74.3805339,0.91031901 74.0429688,0.473144531 L73.5864258,0.639160156 L72.9555664,2.22460937 L72.7148438,2.46533203 L71.5112305,4.02587891 L71.3867188,4.39111328 L71.0297852,5.35400391 L70.9052734,5.7109375 L70.0668945,7.87744141 L70.5483398,9.32177734 C69.9617513,12.0831706 70.844401,14.0504557 73.1962891,15.2236328 C73.6666667,15.3453776 74.1066081,15.3841146 74.5161133,15.3398437 C78.4562174,13.6298828 80.863444,10.7827148 81.737793,6.79833984 C81.5164388,3.31754557 79.9116211,1.07080078 76.9233398,0.0581054688 Z M76.2011719,4.26660156 C77.3134766,4.49348958 77.9969076,5.41764323 78.2514648,7.0390625 C77.5708008,9.17513021 76.4474284,10.8186849 74.8813477,11.9697266 C74.3999023,10.9625651 74.2394206,9.9609375 74.3999023,8.96484375 C74.2449544,8.21223958 74.2034505,7.5703125 74.2753906,7.0390625 L74.640625,6.55761719 L75.2382812,5.59472656 C75.6865234,5.14648437 76.007487,4.70377604 76.2011719,4.26660156 Z" id="Shape"></path>
                <path d="M84.0952148,0.0747070312 C83.7023112,0.827311198 83.4975586,1.57161458 83.480957,2.30761719 C83.6137695,2.36848958 83.7161458,2.48746745 83.7880859,2.66455078 L83.6884766,3.95117187 L83.5805664,5.95166016 L83.3813477,7.8359375 C83.254069,8.46679687 83.1848958,8.97591146 83.1738281,9.36328125 C82.9192708,10.2210286 82.8168945,11.004069 82.8666992,11.7124023 C82.4682617,11.9060872 82.1638997,12.141276 81.9536133,12.4179687 C81.8429362,13.319987 81.8429362,14.1030273 81.9536133,14.7670898 C82.2801107,15.0437826 82.5512695,15.2402344 82.7670898,15.3564453 L83.0742188,15.3564453 L83.3813477,15.2402344 L83.6884766,15.2402344 L83.9873047,15.2402344 C84.3691406,15.140625 84.7454427,15.101888 85.1162109,15.1240234 C85.4869792,14.9358724 85.8245443,14.8168945 86.1289062,14.7670898 C89.9140625,14.7394206 92.0916341,12.8191732 92.6616211,9.00634766 C92.7999674,8.06005859 92.7639974,7.19954427 92.5537109,6.42480469 C92.476237,6.34733073 92.4430339,6.26708984 92.4541016,6.18408203 L92.2548828,5.95166016 L92.1469727,5.60302734 C91.792806,5.14371745 91.5216471,4.71207682 91.3334961,4.30810547 C91.0125326,4.03694661 90.7745768,3.80175781 90.6196289,3.60253906 L90.0053711,2.78076172 C89.3966471,2.35465495 88.9207357,1.88427734 88.5776367,1.36962891 C88.1736654,1.10400391 87.8693034,0.788574219 87.6645508,0.423339844 L87.2578125,0.547851562 L87.050293,0.423339844 C85.8771159,0.11344401 84.8920898,-0.00276692708 84.0952148,0.0747070312 Z M86.402832,3.83496094 C89.1310221,4.79231771 90.3540039,6.83154297 90.0717773,9.95263672 C88.793457,12.0001628 87.3325195,12.1938477 85.6889648,10.5336914 C85.7000326,9.94156901 85.7664388,9.43245443 85.8881836,9.00634766 L85.8881836,8.65771484 C86.0265299,8.02132161 86.0957031,7.47347005 86.0957031,7.01416016 L86.1953125,6.65722656 L86.1953125,6.30859375 L86.1953125,5.95166016 L86.2949219,5.71923828 L86.402832,3.83496094 Z" id="Shape"></path>
                <path d="M95.2680664,0.340332031 C95.0411784,0.860514323 94.8142904,1.27278646 94.5874023,1.57714844 L94.4794922,1.80126953 C94.219401,2.0945638 94.03125,2.39339193 93.9150391,2.69775391 C94.2692057,3.37841797 94.4186198,4.05354818 94.3632812,4.72314453 C94.258138,5.69710286 93.9593099,6.48291016 93.4667969,7.08056641 C93.422526,7.89404297 93.5359701,8.56917318 93.8071289,9.10595703 L93.4667969,11.0151367 L93.3505859,11.8037109 C93.1790365,12.9270833 93.1430664,13.8650716 93.2426758,14.6176758 C93.9676107,14.8722331 94.6787109,14.9469401 95.3759766,14.8417969 L95.7163086,14.8417969 C97.1219076,15.3343099 98.433431,15.5224609 99.6508789,15.40625 C99.9331055,14.9303385 100.08252,14.4793294 100.099121,14.0532227 C99.4682617,13.6049805 99.0200195,13.0792643 98.7543945,12.4760742 L97.8496094,12.3681641 C97.1468099,12.1468099 96.5491536,11.9973958 96.0566406,11.9199219 L96.0566406,11.5795898 L96.1645508,11.3554687 L96.1645508,11.0151367 L96.3886719,10.1186523 L96.612793,9.33007812 L96.953125,9.33007812 L97.1772461,9.22216797 L98.0737305,9.22216797 C98.7875977,9.11702474 99.3880208,9.11702474 99.875,9.22216797 C102.669596,8.20947266 102.78304,7.2327474 100.215332,6.29199219 L99.6508789,6.52441406 L99.3105469,6.52441406 L98.0737305,6.29199219 L96.953125,6.06787109 L96.953125,5.73583984 L97.0610352,5.51171875 L97.1772461,3.48632812 L97.5175781,3.37011719 L97.9658203,3.26220703 L98.8623047,3.26220703 C99.8860677,3.00764974 100.749349,2.85823568 101.452148,2.81396484 C102.271159,1.58544922 101.78418,0.647460937 99.9912109,0 L99.3105469,0.224121094 L98.4140625,0.224121094 L98.0737305,0.224121094 L97.7416992,0.340332031 L97.5175781,0.224121094 L96.7290039,0.116210937 L96.3886719,0.116210937 C96.0345052,0.0387369792 95.7356771,0 95.4921875,0 L95.2680664,0.340332031 Z" id="Path"></path>
            </g>
        </g>
    </g>
</svg>