<?xml version="1.0" encoding="UTF-8"?>
<svg width="108px" height="36px" viewBox="0 0 108 36" version="1.1" xmlns="http://www.w3.org/2000/svg" xmlns:xlink="http://www.w3.org/1999/xlink">
    <title>Frame</title>
    <defs>
        <path d="M0,0 L106,0 L106,35 L0,35 L0,0 Z" id="path-1"></path>
        <linearGradient x1="50%" y1="0%" x2="50%" y2="100%" id="linearGradient-2">
            <stop stop-color="#F6E3A0" offset="0%"></stop>
            <stop stop-color="#E9C367" offset="100%"></stop>
        </linearGradient>
    </defs>
    <g id="Frame" stroke="none" fill="none" transform="translate(1, 1)" xlink:href="#path-1" fill-rule="evenodd" stroke-width="1">
        <g id="Group" fill="url(#linearGradient-2)" stroke="#000000">
            <path d="M14.6687182,0 L91.3312818,7.1530067e-16 C95.8228826,-4.88590056e-16 97.9055187,0.556953667 99.8610742,1.60279622 C101.81663,2.64863878 103.351361,4.18337022 104.397204,6.13892578 C105.443046,8.09448133 106,10.1771174 106,14.6687182 L106,22 C106,28.627417 100.627417,34 94,34 C73.2450683,34 52.4901366,34 31.7352049,34 C25.1568032,34 18.5784016,34 12,34 C5.372583,34 0,28.627417 0,22 L0,14.6687182 C0,10.1771174 0.556953667,8.09448133 1.60279622,6.13892578 C2.64863878,4.18337022 4.18337022,2.64863878 6.13892578,1.60279622 C8.09448133,0.556953667 10.1771174,0 14.6687182,0 Z" id="Rectangle-Copy-4"></path>
        </g>
        <g id="􀜪-Stop" transform="translate(20, 8)" fill="#000000">
            <path d="M9.47119141,18.3989258 C10.5724284,18.3989258 11.610026,18.1872559 12.5839844,17.763916 C13.5579427,17.3405762 14.4156901,16.758138 15.1572266,16.0166016 C15.898763,15.2750651 16.4798177,14.4187012 16.9003906,13.4475098 C17.3209635,12.4763184 17.53125,11.4373372 17.53125,10.3305664 C17.53125,9.22932943 17.3195801,8.19173177 16.8962402,7.21777344 C16.4729004,6.2438151 15.8904622,5.38468424 15.1489258,4.64038086 C14.4073893,3.89607747 13.5496419,3.31502279 12.5756836,2.8972168 C11.6017253,2.47941081 10.5641276,2.27050781 9.46289063,2.27050781 C8.36165365,2.27050781 7.32543945,2.47941081 6.35424805,2.8972168 C5.38305664,3.31502279 4.52530924,3.89607747 3.78100586,4.64038086 C3.03670247,5.38468424 2.45426432,6.2438151 2.03369141,7.21777344 C1.61311849,8.19173177 1.40283203,9.22932943 1.40283203,10.3305664 C1.40283203,11.4373372 1.61450195,12.4763184 2.0378418,13.4475098 C2.46118164,14.4187012 3.04361979,15.2750651 3.78515625,16.0166016 C4.52669271,16.758138 5.38305664,17.3405762 6.35424805,17.763916 C7.32543945,18.1872559 8.36442057,18.3989258 9.47119141,18.3989258 Z M9.47119141,16.9213867 C8.55810547,16.9213867 7.703125,16.7512207 6.90625,16.4108887 C6.109375,16.0705566 5.40934245,15.5987956 4.80615234,14.9956055 C4.20296224,14.3924154 3.73258464,13.6923828 3.39501953,12.8955078 C3.05745443,12.0986328 2.88867188,11.2436523 2.88867188,10.3305664 C2.88867188,9.41748047 3.05745443,8.5625 3.39501953,7.765625 C3.73258464,6.96875 4.20296224,6.26871745 4.80615234,5.66552734 C5.40934245,5.06233724 6.10799154,4.59195964 6.90209961,4.25439453 C7.69620768,3.91682943 8.54980469,3.74804688 9.46289062,3.74804688 C10.3759766,3.74804688 11.2323405,3.91682943 12.0319824,4.25439453 C12.8316243,4.59195964 13.5330404,5.06233724 14.1362305,5.66552734 C14.7394206,6.26871745 15.2097982,6.96875 15.5473633,7.765625 C15.8849284,8.5625 16.0537109,9.41748047 16.0537109,10.3305664 C16.0537109,11.2436523 15.8849284,12.0986328 15.5473633,12.8955078 C15.2097982,13.6923828 14.7394206,14.3924154 14.1362305,14.9956055 C13.5330404,15.5987956 12.8330078,16.0705566 12.0361328,16.4108887 C11.2392578,16.7512207 10.3842773,16.9213867 9.47119141,16.9213867 Z M7.41259766,13.1860352 L11.5214844,13.1860352 C11.7705078,13.1860352 11.9655762,13.116862 12.1066895,12.9785156 C12.2478027,12.8401693 12.3183594,12.6492513 12.3183594,12.4057617 L12.3183594,8.24707031 C12.3183594,8.00358073 12.2478027,7.81266276 12.1066895,7.67431641 C11.9655762,7.53597005 11.7705078,7.46679688 11.5214844,7.46679688 L7.41259766,7.46679688 C7.15804036,7.46679688 6.96020508,7.53597005 6.8190918,7.67431641 C6.67797852,7.81266276 6.60742188,8.00358073 6.60742188,8.24707031 L6.60742188,12.4057617 C6.60742188,12.6492513 6.67797852,12.8401693 6.8190918,12.9785156 C6.96020508,13.116862 7.15804036,13.1860352 7.41259766,13.1860352 Z" id="Shape" fill-rule="nonzero"></path>
            <path d="M30.025807,0.626953125 C26.6058851,0.970052083 24.7658786,2.44759115 24.5057874,5.05957031 C24.9816989,7.37825521 27.0375257,8.89453125 30.6732679,9.60839844 C31.010833,9.92936198 31.1906833,10.2890625 31.2128187,10.6875 C30.1281833,11.8164063 28.9384046,12.5745443 27.6434827,12.9619141 C26.951751,13.4101563 26.3015231,13.6979167 25.6927991,13.8251953 C25.620859,13.9082031 25.5489189,13.9441732 25.4769788,13.9331055 C24.7077731,14.3647461 24.0215752,14.6525065 23.4183851,14.7963867 C22.9314059,15.1007487 22.5717054,15.4244792 22.3392835,15.7675781 C27.2478122,16.3873698 30.9637952,15.1616211 33.4872327,12.090332 C34.7378838,8.9305013 32.9338473,6.84147135 28.0751234,5.82324219 C27.7043551,5.55208333 27.4165947,5.26155599 27.2118421,4.95166016 C28.1802666,3.68440755 29.5139254,3.18082682 31.2128187,3.44091797 C32.5741468,1.61474609 32.1784762,0.676757813 30.025807,0.626953125 Z" id="Path" fill-rule="nonzero"></path>
            <path d="M37.803639,0.651855469 C35.9774671,1.11116536 34.7710869,2.12939453 34.1844984,3.70654297 C34.5829359,4.95719401 35.448984,5.52164714 36.7826429,5.39990234 C36.6830335,5.96988932 36.6470635,6.46240234 36.6747327,6.87744141 L36.6747327,10.2641602 C36.6968682,11.144043 36.6581312,11.8994141 36.5585218,12.5302734 C36.6691989,13.078125 36.6691989,13.5678711 36.5585218,13.9995117 C36.6525973,14.4200846 36.6913343,14.8323568 36.6747327,15.2363281 L36.8988538,15.128418 C37.9226169,16.5063477 38.827402,16.1660156 39.6132093,14.1074219 L39.6132093,13.2026367 L39.4969984,12.4140625 L39.6132093,12.0737305 L39.6132093,11.2851563 L39.7211195,10.6044922 C39.9369398,9.57519531 40.0116468,8.70914714 39.9452405,8.00634766 L39.9452405,7.66601563 C40.2994072,6.61458333 40.4515882,5.63509115 40.4017835,4.72753906 C41.7686455,4.40104167 42.4465426,3.53222656 42.4354749,2.12109375 C40.9966728,0.953450521 39.4527275,0.463704427 37.803639,0.651855469 Z" id="Path" fill-rule="nonzero"></path>
            <path d="M49.2670179,0.66015625 C49.1895439,0.798502604 49.109303,0.87874349 49.0262952,0.900878906 L48.6693616,0.900878906 L48.3041273,0.900878906 C47.3633721,1.45426432 46.7242119,1.51236979 46.3866468,1.07519531 L45.9301038,1.24121094 L45.2992445,2.82666016 L45.0585218,3.06738281 L43.8549085,4.62792969 L43.7303968,4.99316406 L43.3734632,5.95605469 L43.2489515,6.31298828 L42.4105726,8.47949219 L42.8920179,9.92382812 C42.3054294,12.6852214 43.1880791,14.6525065 45.5399671,15.8256836 C46.0103447,15.9474284 46.4502861,15.9861654 46.8597913,15.9418945 C50.7998955,14.2319336 53.2071221,11.3847656 54.081471,7.40039062 C53.8601169,3.91959635 52.2552991,1.67285156 49.2670179,0.66015625 Z M48.5448499,4.86865234 C49.6571546,5.09554036 50.3405856,6.01969401 50.5951429,7.64111328 C49.9144788,9.77718099 48.7911064,11.4207357 47.2250257,12.5717773 C46.7435804,11.5646159 46.5830986,10.5629883 46.7435804,9.56689453 C46.5886325,8.81429036 46.5471286,8.17236328 46.6190687,7.64111328 L46.984303,7.15966797 L47.5819593,6.19677734 C48.0302015,5.74853516 48.351165,5.30582682 48.5448499,4.86865234 Z" id="Shape" fill-rule="nonzero"></path>
            <path d="M56.6547132,0.66015625 C55.0775648,1.75032552 54.8562106,2.85432943 55.9906507,3.97216797 C55.9131767,4.38720703 55.8772067,4.75520833 55.8827405,5.07617188 C55.7111911,5.60188802 55.636484,6.08056641 55.6586195,6.51220703 C54.3747653,7.51383464 54.2281182,8.62060547 55.218678,9.83251953 L55.1107679,10.3803711 C55.1163017,11.144043 54.9309176,11.8081055 54.5546155,12.3725586 C55.373626,17.4471029 56.4776299,17.2617187 57.8666273,11.8164063 C57.8998304,11.0416667 58.0105075,10.3803711 58.1986585,9.83251953 C62.9135023,10.7124023 65.2709241,9.34830729 65.2709241,5.74023438 C64.6345309,2.30371094 62.166432,0.756998698 57.8666273,1.10009766 C57.5456637,0.917480469 57.1416924,0.770833333 56.6547132,0.66015625 Z M58.862721,3.97216797 C61.3861585,3.76741536 62.5288994,4.68880208 62.2909437,6.73632813 C61.0845635,7.61621094 59.7951754,7.80159505 58.4227796,7.29248047 L58.5306898,6.96044922 L58.5306898,6.40429688 L58.6385999,6.07226563 L58.6385999,5.74023438 L58.6385999,5.40820313 L58.862721,3.97216797 Z" id="Shape" fill-rule="nonzero"></path>
        </g>
    </g>
</svg>