<?xml version="1.0" encoding="UTF-8"?>
<svg width="94px" height="34px" viewBox="0 0 94 34" version="1.1" xmlns="http://www.w3.org/2000/svg" xmlns:xlink="http://www.w3.org/1999/xlink">
    <title>Frame</title>
    <defs>
        <path d="M0,0 L92,0 L92,33 L0,33 L0,0 Z" id="path-1"></path>
        <linearGradient x1="50%" y1="0%" x2="50%" y2="100%" id="linearGradient-2">
            <stop stop-color="#F6E3A0" offset="0%"></stop>
            <stop stop-color="#E9C367" offset="100%"></stop>
        </linearGradient>
    </defs>
    <g id="Frame" stroke="none" fill="none" transform="translate(1, 0.5)" xlink:href="#path-1" fill-rule="evenodd" stroke-width="1">
        <g id="Group" transform="translate(-33, 0)">
            <path d="M47.4754658,0 L110.524534,6.63502932e-16 C114.784232,-4.78230508e-16 116.905519,0.556953667 118.861074,1.60279622 C120.81663,2.64863878 122.351361,4.18337022 123.397204,6.13892578 C124.443046,8.09448133 125,10.2157678 125,14.4754658 L125,18.5245342 C125,22.7842322 124.443046,24.9055187 123.397204,26.8610742 C122.351361,28.8166298 120.81663,30.3513612 118.861074,31.3972038 C116.905519,32.4430463 114.784232,33 110.524534,33 L47.4754658,33 C43.2157678,33 41.0944813,32.4430463 39.1389258,31.3972038 C37.1833702,30.3513612 35.6486388,28.8166298 34.6027962,26.8610742 C33.5569537,24.9055187 33,22.7842322 33,18.5245342 L33,14.4754658 C33,10.2157678 33.5569537,8.09448133 34.6027962,6.13892578 C35.6486388,4.18337022 37.1833702,2.64863878 39.1389258,1.60279622 C41.0944813,0.556953667 43.2157678,0 47.4754658,0 Z" id="Rectangle-Copy-4" stroke="#000000" fill="url(#linearGradient-2)"></path>
            <g id="Back" transform="translate(51, 7.1021)" fill="#000000" fill-rule="nonzero">
                <path d="M12.5334473,0 C11.4986165,0.315429688 10.6713053,0.783040365 10.0515137,1.40283203 L10.0515137,2.05859375 L9.93530273,2.81396484 C9.93530273,4.55712891 9.64754232,6.07063802 9.07202148,7.35449219 C8.87280273,7.94108073 8.94474284,8.48339844 9.2878418,8.98144531 L9.2878418,9.41308594 L9.07202148,9.84472656 C9.06095378,10.2597656 8.98901367,10.6222331 8.85620117,10.9321289 L8.85620117,11.7954102 L8.74829102,12.1191406 L8.74829102,12.8745117 L8.5324707,13.737793 C8.42179362,13.9868164 8.34985352,14.2413737 8.31665039,14.5014648 C9.77758789,15.3758138 11.255127,15.5916341 12.7492676,15.1489258 C15.0568848,15.3813477 16.6091309,14.5512695 17.4060059,12.6586914 C19.2487793,10.2569987 19.0661621,8.16520182 16.8581543,6.38330078 C19.1215007,4.52392578 19.3400879,3.04638672 17.513916,1.95068359 L17.6218262,1.62695313 C15.8952637,0.553385417 14.1991374,0.0110677083 12.5334473,0 Z M12.6413574,3.35351562 C15.2312012,3.27050781 15.881429,4.20849609 14.592041,6.16748047 C13.7121582,6.44417318 12.9540202,6.58805339 12.317627,6.59912109 L12.317627,6.27539062 L12.4255371,5.95166016 L12.4255371,5.62792969 L12.4255371,5.30419922 L12.5334473,4.54052734 C12.5389811,4.07568359 12.5749512,3.68001302 12.6413574,3.35351562 Z M15.239502,8.765625 C15.6268717,9.71744792 15.5189616,10.5834961 14.9157715,11.3637695 C14.2240397,12.6144206 13.1781413,12.902181 11.7780762,12.2270508 C11.3741048,11.7954102 11.4460449,10.8574219 11.9938965,9.41308594 L12.317627,9.30517578 L12.6413574,9.19726562 C13.6097819,9.19173177 14.4758301,9.04785156 15.239502,8.765625 Z" id="Shape"></path>
                <path d="M23.3244629,1.34472656 L22.4611816,2.84716797 L21.4484863,5.86865234 L20.4938965,6.44970703 L20.0871582,7.47070312 L20.1950684,8.52490234 C19.7468262,9.42692057 19.3594564,10.320638 19.032959,11.2060547 L18.8171387,14.2109375 C19.2819824,14.7864583 19.7827962,15.1433919 20.3195801,15.2817383 L21.3903809,14.2109375 L22.3449707,10.8491211 L24.8269043,10.3510742 C24.4506022,12.6420898 24.4035645,13.7211914 24.685791,13.5883789 L25.4660645,15.4975586 C28.3547363,11.0649414 28.7116699,6.56038411 26.5368652,1.98388672 L26.7526855,1.12890625 C26.1052246,0.785807292 25.6044108,0.428873698 25.2502441,0.0581054688 L23.3244629,1.34472656 Z M23.4074707,7.86083984 L24.3122559,5.70263672 L24.8352051,7.74462891 L23.4074707,7.86083984 Z" id="Shape"></path>
                <path d="M33.7668457,0 C33.2743327,0.232421875 32.8233236,0.395670573 32.4138184,0.489746094 C28.6673991,4.04801432 27.6408691,8.10432943 29.3342285,12.6586914 C29.9429525,14.7006836 31.2544759,15.6027018 33.2687988,15.3647461 C35.4712728,15.480957 36.9488118,14.6204427 37.701416,12.7832031 C37.5907389,12.5065104 37.4274902,12.3847656 37.2116699,12.4179688 C34.5332845,13.5136719 32.767985,13.0211589 31.9157715,10.9404297 C31.2959798,8.25097656 31.708252,5.9156901 33.1525879,3.93457031 C33.9992676,2.96061198 34.9400228,2.79736328 35.9748535,3.44482422 C35.8199056,3.99820964 35.9029134,4.44921875 36.223877,4.79785156 L37.0871582,4.9140625 C39.8540853,2.97167969 39.3615723,1.33365885 35.6096191,0 L35.2443848,0 L33.7668457,0 Z" id="Path"></path>
                <path d="M40.5983887,0.780273437 C40.4877116,1.1953125 40.4157715,1.55501302 40.3825684,1.859375 L40.3825684,2.17480469 C40.2220866,2.70052083 40.1529134,3.16813151 40.1750488,3.57763672 C40.0422363,3.99267578 39.9702962,4.38834635 39.9592285,4.76464844 C39.5054525,5.05240885 39.181722,5.37613932 38.9880371,5.73583984 L39.2038574,6.69873047 C38.9105632,7.32405599 38.9465332,7.89957682 39.3117676,8.42529297 L39.2038574,9.18066406 L39.0959473,9.39648438 L38.9880371,10.0356445 L38.880127,10.8989258 C38.9022624,11.5629883 38.8303223,12.1385091 38.6643066,12.6254883 C38.8635254,13.3172201 38.9714355,13.889974 38.9880371,14.34375 L39.2038574,15.3149414 C39.4196777,15.3536784 39.599528,15.2097982 39.7434082,14.8833008 L39.9592285,14.6674805 L40.0671387,14.4516602 L40.282959,14.34375 C40.4157715,13.9176432 40.5928548,13.5607096 40.814209,13.2729492 L40.9221191,12.9492187 C41.1434733,12.3792318 41.3592936,11.9116211 41.5695801,11.5463867 C41.6138509,10.699707 41.7937012,9.94710286 42.1091309,9.28857422 L42.3249512,9.71191406 L42.5407715,9.92773438 L42.7565918,10.2514648 L42.864502,10.5751953 C43.240804,11.0013021 43.5257975,11.3969727 43.7194824,11.762207 L44.0432129,12.5175781 C44.3199056,12.8164063 44.5357259,13.1041667 44.6906738,13.3808594 L44.798584,13.6962891 C45.3741048,14.1777344 45.8057454,14.6453451 46.0935059,15.0991211 L46.3093262,15.2070313 L46.9484863,15.4228516 C47.1919759,15.140625 47.3358561,14.8888346 47.380127,14.6674805 L47.5959473,14.0200195 C47.4022624,13.6160482 47.2943522,13.2591146 47.2722168,12.9492187 L47.1643066,12.5175781 C46.8654785,11.914388 46.6524251,11.4108073 46.5251465,11.0068359 C46.3978678,10.9348958 46.3259277,10.8629557 46.3093262,10.7910156 L46.0935059,10.4672852 L45.9855957,10.1435547 C45.8583171,10.0716146 45.786377,9.99967448 45.7697754,9.92773438 L45.6618652,9.71191406 L45.4460449,9.39648438 C44.8317871,8.55533854 44.4001465,7.8359375 44.151123,7.23828125 C46.5362142,6.59635417 48.0082194,5.23225911 48.5671387,3.14599609 C46.7797038,3.07958984 45.2357585,3.51123047 43.9353027,4.44091797 L42.7565918,4.87255859 L42.7565918,4.44091797 L42.864502,4.00927734 L42.864502,3.68554688 L42.9724121,3.36181641 L42.9724121,3.03808594 L43.2961426,1.31982422 C42.7648926,0.589355469 42.1174316,0.157714844 41.3537598,0.0249023438 L40.5983887,0.780273437 Z" id="Path"></path>
            </g>
        </g>
    </g>
</svg>