<?xml version="1.0" encoding="UTF-8"?>
<svg width="148px" height="36px" viewBox="0 0 148 36" version="1.1" xmlns="http://www.w3.org/2000/svg" xmlns:xlink="http://www.w3.org/1999/xlink">
    <title>Frame</title>
    <defs>
        <path d="M0,0 L146,0 L146,35 L0,35 L0,0 Z" id="path-1"></path>
        <linearGradient x1="50%" y1="0%" x2="50%" y2="100%" id="linearGradient-2">
            <stop stop-color="#F6E3A0" offset="0%"></stop>
            <stop stop-color="#E9C367" offset="100%"></stop>
        </linearGradient>
    </defs>
    <g id="Frame" stroke="none" fill="none" transform="translate(1, 0.5)" xlink:href="#path-1" fill-rule="evenodd" stroke-width="1">
        <g id="Group" transform="translate(0.5, 1)" fill="url(#linearGradient-2)" stroke="#000000">
            <path d="M14.1687182,-0.5 L130.831282,-0.5 C135.322883,-0.5 137.405519,0.0569536669 139.361074,1.10279622 C141.31663,2.14863878 142.851361,3.68337022 143.897204,5.63892578 C144.943046,7.59448133 145.5,9.67711736 145.5,14.1687182 L145.5,21.5 C145.5,28.127417 140.127417,33.5 133.5,33.5 C103.403585,33.5 73.3071692,33.5 43.2107539,33.5 C32.6405026,33.5 22.0702513,33.5 11.5,33.5 C4.872583,33.5 -0.5,28.127417 -0.5,21.5 L-0.5,14.1687182 C-0.5,9.67711736 0.0569536669,7.59448133 1.10279622,5.63892578 C2.14863878,3.68337022 3.68337022,2.14863878 5.63892578,1.10279622 C7.59448133,0.0569536669 9.67711736,-0.5 14.1687182,-0.5 Z" id="Rectangle-Copy-4"></path>
        </g>
        <g id="􀊕-Play-Letters" transform="translate(4, 7.5)" fill="#000000">
            <path d="M9.47119141,18.3989258 C10.5724284,18.3989258 11.610026,18.1872559 12.5839844,17.763916 C13.5579427,17.3405762 14.4156901,16.758138 15.1572266,16.0166016 C15.898763,15.2750651 16.4798177,14.4187012 16.9003906,13.4475098 C17.3209635,12.4763184 17.53125,11.4373372 17.53125,10.3305664 C17.53125,9.22932943 17.3195801,8.19173177 16.8962402,7.21777344 C16.4729004,6.2438151 15.8904622,5.38468424 15.1489258,4.64038086 C14.4073893,3.89607747 13.5496419,3.31502279 12.5756836,2.8972168 C11.6017253,2.47941081 10.5641276,2.27050781 9.46289063,2.27050781 C8.36165365,2.27050781 7.32543945,2.47941081 6.35424805,2.8972168 C5.38305664,3.31502279 4.52530924,3.89607747 3.78100586,4.64038086 C3.03670247,5.38468424 2.45426432,6.2438151 2.03369141,7.21777344 C1.61311849,8.19173177 1.40283203,9.22932943 1.40283203,10.3305664 C1.40283203,11.4373372 1.61450195,12.4763184 2.0378418,13.4475098 C2.46118164,14.4187012 3.04361979,15.2750651 3.78515625,16.0166016 C4.52669271,16.758138 5.38305664,17.3405762 6.35424805,17.763916 C7.32543945,18.1872559 8.36442057,18.3989258 9.47119141,18.3989258 Z M9.47119141,16.9213867 C8.55810547,16.9213867 7.703125,16.7512207 6.90625,16.4108887 C6.109375,16.0705566 5.40934245,15.5987956 4.80615234,14.9956055 C4.20296224,14.3924154 3.73258464,13.6923828 3.39501953,12.8955078 C3.05745443,12.0986328 2.88867188,11.2436523 2.88867188,10.3305664 C2.88867188,9.41748047 3.05745443,8.5625 3.39501953,7.765625 C3.73258464,6.96875 4.20296224,6.26871745 4.80615234,5.66552734 C5.40934245,5.06233724 6.10799154,4.59195964 6.90209961,4.25439453 C7.69620768,3.91682943 8.54980469,3.74804688 9.46289062,3.74804688 C10.3759766,3.74804688 11.2323405,3.91682943 12.0319824,4.25439453 C12.8316243,4.59195964 13.5330404,5.06233724 14.1362305,5.66552734 C14.7394206,6.26871745 15.2097982,6.96875 15.5473633,7.765625 C15.8849284,8.5625 16.0537109,9.41748047 16.0537109,10.3305664 C16.0537109,11.2436523 15.8849284,12.0986328 15.5473633,12.8955078 C15.2097982,13.6923828 14.7394206,14.3924154 14.1362305,14.9956055 C13.5330404,15.5987956 12.8330078,16.0705566 12.0361328,16.4108887 C11.2392578,16.7512207 10.3842773,16.9213867 9.47119141,16.9213867 Z M8.04345703,13.4101562 L12.4511719,10.8037109 C12.5729167,10.7317708 12.6531576,10.6363118 12.6918945,10.517334 C12.7306315,10.3983561 12.7306315,10.2793783 12.6918945,10.1604004 C12.6531576,10.0414225 12.5729167,9.94596354 12.4511719,9.87402344 L8.04345703,7.25927734 C7.92171224,7.18733724 7.79443359,7.15828451 7.66162109,7.17211914 C7.52880859,7.18595378 7.41674805,7.23299154 7.32543945,7.31323242 C7.23413086,7.39347331 7.18847656,7.50553385 7.18847656,7.64941406 L7.18847656,13.0283203 C7.18847656,13.1666667 7.23136393,13.2787272 7.31713867,13.364502 C7.40291341,13.4502767 7.51220703,13.4986979 7.64501953,13.5097656 C7.77783203,13.5208333 7.91064453,13.4876302 8.04345703,13.4101562 Z" id="Shape" fill-rule="nonzero"></path>
            <path d="M24.4725843,0.66015625 C22.8954359,1.75032552 22.6740817,2.85432943 23.8085218,3.97216797 C23.7310478,4.38720703 23.6950778,4.75520833 23.7006116,5.07617188 C23.5290622,5.60188802 23.4543551,6.08056641 23.4764905,6.51220703 C22.1926364,7.51383464 22.0459892,8.62060547 23.0365491,9.83251953 L22.928639,10.3803711 C22.9341728,11.144043 22.7487887,11.8081055 22.3724866,12.3725586 C23.1914971,17.4471029 24.295501,17.2617187 25.6844984,11.8164063 C25.7177015,11.0416667 25.8283786,10.3803711 26.0165296,9.83251953 C30.7313734,10.7124023 33.0887952,9.34830729 33.0887952,5.74023438 C32.452402,2.30371094 29.984303,0.756998698 25.6844984,1.10009766 C25.3635348,0.917480469 24.9595635,0.770833333 24.4725843,0.66015625 Z M26.6805921,3.97216797 C29.2040296,3.76741536 30.3467705,4.68880208 30.1088148,6.73632813 C28.9024346,7.61621094 27.6130465,7.80159505 26.2406507,7.29248047 L26.3485609,6.96044922 L26.3485609,6.40429688 L26.456471,6.07226563 L26.456471,5.74023438 L26.456471,5.40820313 L26.6805921,3.97216797 Z" id="Shape" fill-rule="nonzero"></path>
            <path d="M37.197682,1.10009766 C37.081471,1.49853516 36.9652601,1.80566406 36.8490491,2.02148438 L36.9652601,2.83496094 L36.8490491,3.05908203 C36.7162366,3.8836263 36.5253187,4.57535807 36.2762952,5.13427734 L36.1600843,5.93945313 L35.6952405,7.09326172 C35.4904879,8.62613932 35.031178,9.89339193 34.3173109,10.8950195 C34.1512952,11.5037435 33.9188734,12.0405273 33.6200452,12.5053711 C33.5757744,13.3852539 33.7694593,14.1516927 34.2010999,14.8046875 C34.2509046,15.2529297 34.3283786,15.6375326 34.4335218,15.9584961 L35.8114515,15.1533203 C36.3869723,15.125651 36.8850192,15.164388 37.3055921,15.2695312 L37.6542249,15.2695312 L38.2269788,15.3857422 L38.5756116,15.3857422 C39.1843356,15.5406901 39.7211195,15.6153971 40.1859632,15.6098633 L41.6884046,15.8422852 L42.1449476,15.8422852 L42.3773695,15.9584961 C43.4288017,15.7205404 44.3501885,15.6430664 45.1415296,15.7260742 L45.8304945,14.6884766 C45.127695,13.7643229 44.2450452,13.1140951 43.1825452,12.737793 L42.2611585,12.9619141 L41.9125257,12.8457031 L41.4559827,12.8457031 L40.874928,12.737793 L40.534596,12.737793 L40.1859632,12.621582 C39.7819919,12.6105143 39.4748629,12.5717773 39.2645765,12.5053711 C38.5341077,12.4611003 37.9198499,12.3836263 37.421803,12.2729492 L37.6542249,11.4677734 L37.6542249,11.1191406 L37.8866468,10.3139648 L38.0028577,10.0898437 L38.2269788,9.27636719 L38.3431898,8.81982422 L38.9242445,6.74462891 L39.0321546,6.171875 L39.1483655,5.82324219 L39.2645765,5.59912109 L39.8456312,3.64013672 L39.8456312,3.29150391 L40.3021741,1.44873047 C39.4499606,1.0226237 38.6835218,0.754231771 38.0028577,0.643554688 L37.197682,1.10009766 Z" id="Path" fill-rule="nonzero"></path>
            <path d="M50.4872327,1.94677734 L49.6239515,3.44921875 L48.6112562,6.47070312 L47.6566663,7.05175781 L47.249928,8.07275391 L47.3578382,9.12695313 C46.909596,10.0289714 46.5222262,10.9226888 46.1957288,11.8081055 L45.9799085,14.8129883 C46.4447523,15.3885091 46.9455661,15.7454427 47.4823499,15.8837891 L48.5531507,14.8129883 L49.5077405,11.4511719 L51.9896741,10.953125 C51.6133721,13.2441406 51.5663343,14.3232422 51.8485609,14.1904297 L52.6288343,16.0996094 C55.5175062,11.6669922 55.8744398,7.1624349 53.6996351,2.5859375 L53.9154554,1.73095703 C53.2679945,1.38785807 52.7671807,1.03092448 52.413014,0.66015625 L50.4872327,1.94677734 Z M50.5702405,8.46289062 L51.4750257,6.3046875 L51.9979749,8.34667969 L50.5702405,8.46289062 Z" id="Shape" fill-rule="nonzero"></path>
            <path d="M57.6176038,0.875976562 C56.6436455,1.35742188 55.9270114,1.96614583 55.4677015,2.70214844 L55.5756116,3.24169922 L55.8993421,3.24169922 C56.015553,3.31363932 56.0874932,3.38557943 56.1151624,3.45751953 L56.4305921,3.66503906 L56.6464124,3.88085937 L56.9701429,4.09667969 L57.1859632,4.3125 L57.4017835,4.63623047 C57.9773044,4.97932943 58.406178,5.33626302 58.6884046,5.70703125 C58.6441338,6.16080729 58.6801038,6.55647786 58.7963148,6.89404297 C59.1449476,7.40315755 59.3967379,7.8680013 59.5516859,8.28857422 L59.4437757,8.61230469 C59.3607679,9.1546224 59.2528577,9.58349609 59.1200452,9.89892578 C59.0315036,10.8839518 58.8156833,11.7084961 58.4725843,12.3725586 L58.5804945,13.6591797 C58.5030205,14.4781901 58.7188408,15.1228841 59.2279554,15.5932617 C59.2722262,16.1355794 59.4161064,16.2075195 59.659596,15.809082 L59.8754163,15.5932617 L59.9833265,15.3774414 L60.2987562,14.6303711 L60.5145765,14.5224609 C60.7635999,13.9690755 61.0153903,13.5374349 61.2699476,13.2275391 L61.4857679,12.1567383 L62.241139,9.79101562 L62.241139,8.61230469 C62.4237562,8.03678385 62.5288994,7.53597005 62.5565687,7.10986328 C62.7115166,6.5398763 62.7834567,6.03629557 62.772389,5.59912109 C64.1779879,4.40934245 64.9665622,3.05078125 65.1381116,1.5234375 C63.5609632,1.0530599 62.0917249,1.80289714 60.7303968,3.77294922 C59.4852796,2.94840495 58.6275322,1.94677734 58.1571546,0.768066406 L57.725514,0.66015625 L57.6176038,0.875976562 Z" id="Path" fill-rule="nonzero"></path>
            <path d="M72.2103773,1.10009766 C72.0941663,1.49853516 71.9779554,1.80566406 71.8617445,2.02148438 L71.9779554,2.83496094 L71.8617445,3.05908203 C71.728932,3.8836263 71.538014,4.57535807 71.2889905,5.13427734 L71.1727796,5.93945313 L70.7079359,7.09326172 C70.5031833,8.62613932 70.0438734,9.89339193 69.3300062,10.8950195 C69.1639905,11.5037435 68.9315687,12.0405273 68.6327405,12.5053711 C68.5884697,13.3852539 68.7821546,14.1516927 69.2137952,14.8046875 C69.2635999,15.2529297 69.3410739,15.6375326 69.4462171,15.9584961 L70.8241468,15.1533203 C71.3996676,15.125651 71.8977145,15.164388 72.3182874,15.2695312 L72.6669202,15.2695312 L73.2396741,15.3857422 L73.588307,15.3857422 C74.1970309,15.5406901 74.7338148,15.6153971 75.1986585,15.6098633 L76.7010999,15.8422852 L77.1576429,15.8422852 L77.3900648,15.9584961 C78.4414971,15.7205404 79.3628838,15.6430664 80.1542249,15.7260742 L80.8431898,14.6884766 C80.1403903,13.7643229 79.2577405,13.1140951 78.1952405,12.737793 L77.2738538,12.9619141 L76.925221,12.8457031 L76.468678,12.8457031 L75.8876234,12.737793 L75.5472913,12.737793 L75.1986585,12.621582 C74.7946872,12.6105143 74.4875583,12.5717773 74.2772718,12.5053711 C73.546803,12.4611003 72.9325452,12.3836263 72.4344984,12.2729492 L72.6669202,11.4677734 L72.6669202,11.1191406 L72.8993421,10.3139648 L73.015553,10.0898437 L73.2396741,9.27636719 L73.3558851,8.81982422 L73.9369398,6.74462891 L74.0448499,6.171875 L74.1610609,5.82324219 L74.2772718,5.59912109 L74.8583265,3.64013672 L74.8583265,3.29150391 L75.3148695,1.44873047 C74.4626559,1.0226237 73.6962171,0.754231771 73.015553,0.643554688 L72.2103773,1.10009766 Z" id="Path" fill-rule="nonzero"></path>
            <path d="M83.3915296,0.942382812 C83.1646416,1.4625651 82.9377536,1.87483724 82.7108655,2.17919922 L82.6029554,2.40332031 C82.3428642,2.69661458 82.1547132,2.99544271 82.0385023,3.29980469 C82.3926689,3.98046875 82.542083,4.65559896 82.4867445,5.32519531 C82.3816012,6.29915365 82.0827731,7.08496094 81.5902601,7.68261719 C81.5459892,8.49609375 81.6594333,9.17122396 81.9305921,9.70800781 L81.5902601,11.6171875 L81.4740491,12.4057617 C81.3024997,13.5291341 81.2665296,14.4671224 81.366139,15.2197266 C82.0910739,15.4742839 82.8021741,15.5489909 83.4994398,15.4438477 L83.8397718,15.4438477 C85.2453708,15.9363607 86.5568942,16.1245117 87.7743421,16.0083008 C88.0565687,15.5323893 88.2059827,15.0813802 88.2225843,14.6552734 C87.5917249,14.2070312 87.1434827,13.6813151 86.8778577,13.078125 L85.9730726,12.9702148 C85.2702731,12.7488607 84.6726169,12.5994466 84.1801038,12.5219727 L84.1801038,12.1816406 L84.288014,11.9575195 L84.288014,11.6171875 L84.5121351,10.7207031 L84.7362562,9.93212891 L85.0765882,9.93212891 L85.3007093,9.82421875 L86.1971937,9.82421875 C86.9110609,9.71907552 87.511484,9.71907552 87.9984632,9.82421875 C90.7930596,8.81152344 90.9065036,7.83479818 88.3387952,6.89404297 L87.7743421,7.12646484 L87.4340101,7.12646484 L86.1971937,6.89404297 L85.0765882,6.66992187 L85.0765882,6.33789062 L85.1844984,6.11376953 L85.3007093,4.08837891 L85.6410413,3.97216797 L86.0892835,3.86425781 L86.9857679,3.86425781 C88.0095309,3.60970052 88.8728122,3.46028646 89.5756116,3.41601563 C90.3946221,2.1875 89.9076429,1.24951172 88.1146741,0.602050781 L87.4340101,0.826171875 L86.5375257,0.826171875 L86.1971937,0.826171875 L85.8651624,0.942382812 L85.6410413,0.826171875 L84.8524671,0.718261719 L84.5121351,0.718261719 C84.1579684,0.64078776 83.8591403,0.602050781 83.6156507,0.602050781 L83.3915296,0.942382812 Z" id="Path" fill-rule="nonzero"></path>
            <path d="M93.7426038,0.651855469 C91.916432,1.11116536 90.7100517,2.12939453 90.1234632,3.70654297 C90.5219007,4.95719401 91.3879489,5.52164714 92.7216077,5.39990234 C92.6219984,5.96988932 92.5860283,6.46240234 92.6136976,6.87744141 L92.6136976,10.2641602 C92.635833,11.144043 92.597096,11.8994141 92.4974866,12.5302734 C92.6081637,13.078125 92.6081637,13.5678711 92.4974866,13.9995117 C92.5915622,14.4200846 92.6302991,14.8323568 92.6136976,15.2363281 L92.8378187,15.128418 C93.8615817,16.5063477 94.7663669,16.1660156 95.5521741,14.1074219 L95.5521741,13.2026367 L95.4359632,12.4140625 L95.5521741,12.0737305 L95.5521741,11.2851563 L95.6600843,10.6044922 C95.8759046,9.57519531 95.9506116,8.70914714 95.8842054,8.00634766 L95.8842054,7.66601563 C96.2383721,6.61458333 96.390553,5.63509115 96.3407484,4.72753906 C97.7076103,4.40104167 98.3855075,3.53222656 98.3744398,2.12109375 C96.9356377,0.953450521 95.3916924,0.463704427 93.7426038,0.651855469 Z" id="Path" fill-rule="nonzero"></path>
            <path d="M102.275807,0.651855469 C100.449635,1.11116536 99.2432549,2.12939453 98.6566663,3.70654297 C99.0551038,4.95719401 99.921152,5.52164714 101.254811,5.39990234 C101.155201,5.96988932 101.119231,6.46240234 101.146901,6.87744141 L101.146901,10.2641602 C101.169036,11.144043 101.130299,11.8994141 101.03069,12.5302734 C101.141367,13.078125 101.141367,13.5678711 101.03069,13.9995117 C101.124765,14.4200846 101.163502,14.8323568 101.146901,15.2363281 L101.371022,15.128418 C102.394785,16.5063477 103.29957,16.1660156 104.085377,14.1074219 L104.085377,13.2026367 L103.969166,12.4140625 L104.085377,12.0737305 L104.085377,11.2851563 L104.193287,10.6044922 C104.409108,9.57519531 104.483815,8.70914714 104.417409,8.00634766 L104.417409,7.66601563 C104.771575,6.61458333 104.923756,5.63509115 104.873951,4.72753906 C106.240813,4.40104167 106.918711,3.53222656 106.907643,2.12109375 C105.468841,0.953450521 103.924895,0.463704427 102.275807,0.651855469 Z" id="Path" fill-rule="nonzero"></path>
            <path d="M109.339772,0.942382812 C109.112884,1.4625651 108.885996,1.87483724 108.659108,2.17919922 L108.551198,2.40332031 C108.291106,2.69661458 108.102955,2.99544271 107.986744,3.29980469 C108.340911,3.98046875 108.490325,4.65559896 108.434987,5.32519531 C108.329843,6.29915365 108.031015,7.08496094 107.538502,7.68261719 C107.494231,8.49609375 107.607675,9.17122396 107.878834,9.70800781 L107.538502,11.6171875 L107.422291,12.4057617 C107.250742,13.5291341 107.214772,14.4671224 107.314381,15.2197266 C108.039316,15.4742839 108.750416,15.5489909 109.447682,15.4438477 L109.788014,15.4438477 C111.193613,15.9363607 112.505136,16.1245117 113.722584,16.0083008 C114.004811,15.5323893 114.154225,15.0813802 114.170826,14.6552734 C113.539967,14.2070312 113.091725,13.6813151 112.8261,13.078125 L111.921315,12.9702148 C111.218515,12.7488607 110.620859,12.5994466 110.128346,12.5219727 L110.128346,12.1816406 L110.236256,11.9575195 L110.236256,11.6171875 L110.460377,10.7207031 L110.684498,9.93212891 L111.02483,9.93212891 L111.248951,9.82421875 L112.145436,9.82421875 C112.859303,9.71907552 113.459726,9.71907552 113.946705,9.82421875 C116.741302,8.81152344 116.854746,7.83479818 114.287037,6.89404297 L113.722584,7.12646484 L113.382252,7.12646484 L112.145436,6.89404297 L111.02483,6.66992187 L111.02483,6.33789062 L111.132741,6.11376953 L111.248951,4.08837891 L111.589284,3.97216797 L112.037526,3.86425781 L112.93401,3.86425781 C113.957773,3.60970052 114.821054,3.46028646 115.523854,3.41601563 C116.342864,2.1875 115.855885,1.24951172 114.062916,0.602050781 L113.382252,0.826171875 L112.485768,0.826171875 L112.145436,0.826171875 L111.813405,0.942382812 L111.589284,0.826171875 L110.800709,0.718261719 L110.460377,0.718261719 C110.106211,0.64078776 109.807382,0.602050781 109.563893,0.602050781 L109.339772,0.942382812 Z" id="Path" fill-rule="nonzero"></path>
            <path d="M119.367116,0.651855469 C117.020761,1.02815755 116.212819,3.44645182 116.943287,7.90673828 C116.766204,8.74235026 116.497812,9.4313151 116.138112,9.97363281 C116.187916,10.5491536 116.323496,11.0112305 116.54485,11.3598633 L116.644459,11.7001953 L116.644459,13.3188477 C116.727467,14.3370768 116.76067,15.1809896 116.744069,15.8505859 C116.86028,15.9280599 116.926686,16.0055339 116.943287,16.0830078 C117.352793,16.265625 117.756764,16.3015951 118.155201,16.190918 C118.276946,15.9197591 118.412526,15.6901042 118.56194,15.5019531 L118.661549,15.2695312 C118.810963,14.3619792 119.046152,13.6342773 119.367116,13.0864258 L119.873463,14.1240234 L120.271901,14.3481445 L120.678639,14.8129883 L121.176686,15.0454102 L121.782643,15.3857422 L122.189381,15.734375 C122.720631,15.9391276 123.157806,16.1687826 123.500905,16.4233398 L123.899342,16.6557617 L124.30608,16.7719727 L125.111256,17.3447266 L125.418385,17.4609375 L125.617604,17.6933594 L125.916432,17.8095703 L126.223561,17.9174805 L127.833912,18.9550781 L129.145436,19.1875 L129.651784,18.3823242 L129.651784,17.5771484 C129.535573,17.4996745 129.469166,17.4222005 129.452565,17.3447266 C129.33082,17.2672526 129.261647,17.1897786 129.245045,17.1123047 L129.045826,16.9960937 L128.746998,16.7719727 C128.431569,16.5118815 128.19638,16.2434896 128.041432,15.9667969 C127.642994,15.7399089 127.338632,15.4715169 127.128346,15.1616211 L126.929127,15.0454102 L126.729909,14.9291992 L126.123951,14.4643555 L125.517994,14.2402344 L125.318776,14.0078125 L125.111256,13.8916016 C124.402923,13.570638 123.832936,13.1472982 123.401295,12.621582 L123.193776,12.5136719 L122.994557,12.3974609 L122.3886,11.9326172 C121.719004,11.4345703 121.215423,10.8590495 120.877858,10.2060547 L120.37151,9.74951172 C124.488698,7.81819661 126.002207,5.43863932 124.912037,2.61083984 C123.069264,1.27164714 121.220957,0.618652344 119.367116,0.651855469 Z M119.765553,3.57373047 C121.652597,4.06070964 121.552988,4.76627604 119.466725,5.69042969 L119.466725,5.39160156 L119.765553,3.57373047 Z" id="Shape" fill-rule="nonzero"></path>
            <path d="M133.54485,0.626953125 C130.124928,0.970052083 128.284922,2.44759115 128.02483,5.05957031 C128.500742,7.37825521 130.556569,8.89453125 134.192311,9.60839844 C134.529876,9.92936198 134.709726,10.2890625 134.731862,10.6875 C133.647226,11.8164063 132.457448,12.5745443 131.162526,12.9619141 C130.470794,13.4101563 129.820566,13.6979167 129.211842,13.8251953 C129.139902,13.9082031 129.067962,13.9441732 128.996022,13.9331055 C128.226816,14.3647461 127.540618,14.6525065 126.937428,14.7963867 C126.450449,15.1007487 126.090748,15.4244792 125.858326,15.7675781 C130.766855,16.3873698 134.482838,15.1616211 137.006276,12.090332 C138.256927,8.9305013 136.45289,6.84147135 131.594166,5.82324219 C131.223398,5.55208333 130.935638,5.26155599 130.730885,4.95166016 C131.69931,3.68440755 133.032968,3.18082682 134.731862,3.44091797 C136.09319,1.61474609 135.697519,0.676757813 133.54485,0.626953125 Z" id="Path" fill-rule="nonzero"></path>
        </g>
    </g>
</svg>