<?xml version="1.0" encoding="UTF-8"?>
<svg width="140px" height="34px" viewBox="0 0 140 34" version="1.1" xmlns="http://www.w3.org/2000/svg" xmlns:xlink="http://www.w3.org/1999/xlink">
    <title>Group</title>
    <defs>
        <linearGradient x1="50%" y1="0%" x2="50%" y2="100%" id="linearGradient-1">
            <stop stop-color="#F6E3A0" offset="0%"></stop>
            <stop stop-color="#E9C367" offset="100%"></stop>
        </linearGradient>
    </defs>
    <g id="Page-1" stroke="none" stroke-width="1" fill="none" fill-rule="evenodd">
        <g id="Group" transform="translate(-0.5524, 0.5)">
            <path d="M15.527823,0 L125.576891,6.63502932e-16 C129.836589,-4.78230508e-16 131.957876,0.556953667 133.913431,1.60279622 C135.868987,2.64863878 137.403718,4.18337022 138.449561,6.13892578 C139.495404,8.09448133 140.052357,10.2157678 140.052357,14.4754658 L140.052357,18.5245342 C140.052357,22.7842322 139.495404,24.9055187 138.449561,26.8610742 C137.403718,28.8166298 135.868987,30.3513612 133.913431,31.3972038 C131.957876,32.4430463 129.836589,33 125.576891,33 L15.527823,33 C11.2681251,33 9.14683855,32.4430463 7.191283,31.3972038 C5.23572744,30.3513612 3.700996,28.8166298 2.65515344,26.8610742 C1.60931089,24.9055187 1.05235722,22.7842322 1.05235722,18.5245342 L1.05235722,14.4754658 C1.05235722,10.2157678 1.60931089,8.09448133 2.65515344,6.13892578 C3.700996,4.18337022 5.23572744,2.64863878 7.191283,1.60279622 C9.14683855,0.556953667 11.2681251,0 15.527823,0 Z" id="Rectangle-Copy-3" stroke="#000000" fill="url(#linearGradient-1)"></path>
            <g id="􀕾-Listen-Mode" transform="translate(-0.4476, 7.5)" fill="#000000" fill-rule="nonzero">
                <path d="M11.3769891,18.3989258 C12.4782261,18.3989258 13.5158237,18.1872559 14.4897821,17.763916 C15.4637404,17.3405762 16.3214878,16.758138 17.0630243,16.0166016 C17.8045607,15.2750651 18.3856154,14.4187012 18.8061883,13.4475098 C19.2267612,12.4763184 19.4370477,11.4373372 19.4370477,10.3305664 C19.4370477,9.22932943 19.2253778,8.19173177 18.8020379,7.21777344 C18.3786981,6.2438151 17.7962599,5.38468424 17.0547235,4.64038086 C16.313187,3.89607747 15.4554396,3.31502279 14.4814813,2.8972168 C13.507523,2.47941081 12.4699253,2.27050781 11.3686883,2.27050781 C10.2674513,2.27050781 9.23123715,2.47941081 8.26004574,2.8972168 C7.28885434,3.31502279 6.43110694,3.89607747 5.68680355,4.64038086 C4.94250017,5.38468424 4.36006202,6.2438151 3.9394891,7.21777344 C3.51891618,8.19173177 3.30862973,9.22932943 3.30862973,10.3305664 C3.30862973,11.4373372 3.52029965,12.4763184 3.94363949,13.4475098 C4.36697934,14.4187012 4.94941749,15.2750651 5.69095394,16.0166016 C6.4324904,16.758138 7.28885434,17.3405762 8.26004574,17.763916 C9.23123715,18.1872559 10.2702183,18.3989258 11.3769891,18.3989258 Z M11.3769891,16.9213867 C10.4639032,16.9213867 9.60892269,16.7512207 8.81204769,16.4108887 C8.01517269,16.0705566 7.31514014,15.5987956 6.71195004,14.9956055 C6.10875993,14.3924154 5.63838233,13.6923828 5.30081723,12.8955078 C4.96325212,12.0986328 4.79446957,11.2436523 4.79446957,10.3305664 C4.79446957,9.41748047 4.96325212,8.5625 5.30081723,7.765625 C5.63838233,6.96875 6.10875993,6.26871745 6.71195004,5.66552734 C7.31514014,5.06233724 8.01378923,4.59195964 8.8078973,4.25439453 C9.60200538,3.91682943 10.4556024,3.74804688 11.3686883,3.74804688 C12.2817743,3.74804688 13.1381382,3.91682943 13.9377801,4.25439453 C14.737422,4.59195964 15.4388381,5.06233724 16.0420282,5.66552734 C16.6452183,6.26871745 17.1155959,6.96875 17.453161,7.765625 C17.7907261,8.5625 17.9595086,9.41748047 17.9595086,10.3305664 C17.9595086,11.2436523 17.7907261,12.0986328 17.453161,12.8955078 C17.1155959,13.6923828 16.6452183,14.3924154 16.0420282,14.9956055 C15.4388381,15.5987956 14.7388055,16.0705566 13.9419305,16.4108887 C13.1450555,16.7512207 12.290075,16.9213867 11.3769891,16.9213867 Z M11.3686883,7.69921875 C10.9979201,7.69921875 10.5953322,7.68123372 10.1609246,7.64526367 C9.7265171,7.60929362 9.31009457,7.56778971 8.91165707,7.52075195 C8.51321957,7.47371419 8.18672217,7.43082682 7.93216488,7.39208984 C7.89896176,7.38655599 7.86437517,7.38102214 7.82840512,7.37548828 C7.79243506,7.36995443 7.7606154,7.3671875 7.73294613,7.3671875 C7.63333676,7.3671875 7.5406447,7.40592448 7.45486996,7.48339844 C7.36909522,7.5608724 7.32620785,7.66878255 7.32620785,7.80712891 C7.32620785,8.04508464 7.43688493,8.19173177 7.6582391,8.24707031 C7.72464535,8.26367188 7.86437517,8.28857422 8.07742855,8.32177734 C8.29048194,8.35498047 8.52843767,8.38818359 8.79129574,8.42138672 C9.05415381,8.45458984 9.29072608,8.48502604 9.50101254,8.51269531 C9.711299,8.54036458 9.8441115,8.55973307 9.89945004,8.57080078 C10.1318719,8.62060547 10.2536167,8.78662109 10.2646844,9.06884766 C10.2646844,9.20166016 10.2633009,9.41194661 10.260534,9.69970703 C10.2577671,9.98746745 10.2494663,10.2849121 10.2356317,10.592041 C10.221797,10.8991699 10.1982782,11.1523438 10.165075,11.3515625 C10.1429396,11.4733073 10.1028192,11.6656087 10.0447137,11.9284668 C9.98660824,12.1913249 9.92020199,12.4846191 9.84549496,12.8083496 C9.77078793,13.1320801 9.69884782,13.4461263 9.62967465,13.7504883 C9.56050147,14.0548503 9.49962907,14.310791 9.44705746,14.5183105 C9.39448585,14.7258301 9.36543311,14.8434245 9.35989926,14.8710938 C9.31562842,15.0205078 9.33499691,15.1519368 9.41800473,15.2653809 C9.50101254,15.3788249 9.61445655,15.4355469 9.75833676,15.4355469 C9.98522478,15.4355469 10.1374058,15.2999674 10.2148797,15.0288086 C10.2480829,14.8849284 10.299271,14.6732585 10.3684442,14.3937988 C10.4376174,14.1143392 10.5123244,13.8155111 10.5925653,13.4973145 C10.6728062,13.1791178 10.7502801,12.887207 10.8249871,12.621582 C10.8996942,12.355957 10.9564162,12.1622721 10.9951532,12.0405273 C11.039424,11.8745117 11.0878452,11.7569173 11.1404168,11.6877441 C11.1929884,11.618571 11.2690789,11.5839844 11.3686883,11.5839844 C11.45723,11.5839844 11.5277866,11.6171875 11.5803582,11.6835938 C11.6329299,11.75 11.6868849,11.8689779 11.7422235,12.0405273 C11.7754266,12.1622721 11.8279982,12.355957 11.8999383,12.621582 C11.9718784,12.887207 12.0493524,13.1791178 12.1323602,13.4973145 C12.215368,13.8155111 12.2914585,14.1143392 12.3606317,14.3937988 C12.4298049,14.6732585 12.480993,14.8849284 12.5141961,15.0288086 C12.5861362,15.2999674 12.7383172,15.4355469 12.9707391,15.4355469 C13.1201532,15.4355469 13.2335972,15.3788249 13.3110711,15.2653809 C13.3885451,15.1519368 13.4079136,15.0205078 13.3691766,14.8710938 C13.3636427,14.8434245 13.3359735,14.7258301 13.2861688,14.5183105 C13.2363641,14.310791 13.1754917,14.0548503 13.1035516,13.7504883 C13.0316115,13.4461263 12.9569045,13.1320801 12.8794305,12.8083496 C12.8019565,12.4846191 12.7341668,12.1913249 12.6760614,11.9284668 C12.6179559,11.6656087 12.5806024,11.4733073 12.5640008,11.3515625 C12.5307977,11.1523438 12.5086623,10.8991699 12.4975946,10.592041 C12.4865269,10.2849121 12.4796095,9.98746745 12.4768426,9.69970703 C12.4740757,9.41194661 12.4726922,9.20166016 12.4726922,9.06884766 C12.4726922,8.78662109 12.5916701,8.62060547 12.8296258,8.57080078 C12.8849644,8.55973307 13.0177769,8.54036458 13.2280633,8.51269531 C13.4383498,8.48502604 13.674922,8.45458984 13.9377801,8.42138672 C14.2006382,8.38818359 14.4399774,8.35498047 14.6557977,8.32177734 C14.871618,8.28857422 15.0127313,8.26367188 15.0791375,8.24707031 C15.2949579,8.18619792 15.402868,8.03955078 15.402868,7.80712891 C15.402868,7.66878255 15.3599806,7.5608724 15.2742059,7.48339844 C15.1884312,7.40592448 15.098506,7.3671875 15.0044305,7.3671875 C14.9712274,7.3671875 14.9366408,7.36995443 14.9006707,7.37548828 C14.8647007,7.38102214 14.8273472,7.38655599 14.7886102,7.39208984 C14.5395868,7.43082682 14.2172398,7.47371419 13.8215692,7.52075195 C13.4258986,7.56778971 13.0094761,7.60929362 12.5723016,7.64526367 C12.1351271,7.68123372 11.7339227,7.69921875 11.3686883,7.69921875 Z M11.3686883,7.18457031 C11.645381,7.18457031 11.8833368,7.08496094 12.0825555,6.88574219 C12.2817743,6.68652344 12.3813836,6.44856771 12.3813836,6.171875 C12.3813836,5.88964844 12.2817743,5.65169271 12.0825555,5.45800781 C11.8833368,5.26432292 11.645381,5.16748047 11.3686883,5.16748047 C11.0864618,5.16748047 10.8471226,5.26432292 10.6506707,5.45800781 C10.4542189,5.65169271 10.355993,5.88964844 10.355993,6.171875 C10.355993,6.44856771 10.4542189,6.68652344 10.6506707,6.88574219 C10.8471226,7.08496094 11.0864618,7.18457031 11.3686883,7.18457031 Z" id="Shape"></path>
                <path d="M27.8642218,1.10009766 C27.7480109,1.49853516 27.6318,1.80566406 27.515589,2.02148438 L27.6318,2.83496094 L27.515589,3.05908203 C27.3827765,3.8836263 27.1918586,4.57535807 26.9428351,5.13427734 L26.8266242,5.93945313 L26.3617804,7.09326172 C26.1570278,8.62613932 25.6977179,9.89339193 24.9838507,10.8950195 C24.8178351,11.5037435 24.5854132,12.0405273 24.2865851,12.5053711 C24.2423143,13.3852539 24.4359992,14.1516927 24.8676398,14.8046875 C24.9174445,15.2529297 24.9949185,15.6375326 25.1000617,15.9584961 L26.4779914,15.1533203 C27.0535122,15.125651 27.5515591,15.164388 27.972132,15.2695312 L28.3207648,15.2695312 L28.8935187,15.3857422 L29.2421515,15.3857422 C29.8508755,15.5406901 30.3876593,15.6153971 30.8525031,15.6098633 L32.3549445,15.8422852 L32.8114875,15.8422852 L33.0439093,15.9584961 C34.0953416,15.7205404 35.0167283,15.6430664 35.8080695,15.7260742 L36.4970343,14.6884766 C35.7942349,13.7643229 34.9115851,13.1140951 33.8490851,12.737793 L32.9276984,12.9619141 L32.5790656,12.8457031 L32.1225226,12.8457031 L31.5414679,12.737793 L31.2011359,12.737793 L30.8525031,12.621582 C30.4485317,12.6105143 30.1414028,12.5717773 29.9311164,12.5053711 C29.2006476,12.4611003 28.5863898,12.3836263 28.0883429,12.2729492 L28.3207648,11.4677734 L28.3207648,11.1191406 L28.5531867,10.3139648 L28.6693976,10.0898437 L28.8935187,9.27636719 L29.0097296,8.81982422 L29.5907843,6.74462891 L29.6986945,6.171875 L29.8149054,5.82324219 L29.9311164,5.59912109 L30.5121711,3.64013672 L30.5121711,3.29150391 L30.968714,1.44873047 C30.1165005,1.0226237 29.3500617,0.754231771 28.6693976,0.643554688 L27.8642218,1.10009766 Z" id="Path"></path>
                <path d="M39.8671515,0.643554688 C39.1698859,1.29654948 38.8350877,2.07128906 38.862757,2.96777344 C39.0841112,3.3828125 39.2335252,3.78955078 39.3109992,4.18798828 L39.6430304,4.18798828 C40.4841763,3.81722005 41.2589158,3.63183594 41.9672492,3.63183594 L41.9672492,3.96386719 C41.7624966,4.68880208 41.6518195,5.31689453 41.6352179,5.84814453 L41.4110968,6.51220703 L41.1952765,8.39648438 L41.0790656,8.72851562 L40.9711554,9.83251953 L40.8632453,10.0566406 C40.8245083,10.8535156 40.7498013,11.5175781 40.6391242,12.0488281 C39.0066372,12.3974609 38.1571906,12.1373698 38.0907843,11.2685547 C37.0227505,11.8496094 36.4693651,12.699056 36.4306281,13.8168945 L36.8705695,14.1489258 L38.0907843,14.597168 L38.4228156,14.7050781 L38.6469367,14.8129883 L38.9789679,14.9291992 L41.5273078,15.5932617 C41.6158494,15.7205404 41.6518195,15.8671875 41.6352179,16.0332031 L42.5234015,15.925293 L43.2953742,15.809082 C44.0811815,15.8699544 44.745244,15.7980143 45.2875617,15.5932617 C45.4425096,15.2390951 45.5531867,14.9070638 45.6195929,14.597168 C44.5460252,13.9718424 43.7712856,13.2330729 43.2953742,12.3808594 L43.4032843,11.9326172 L43.4032843,11.4926758 L43.5194953,10.9365234 L43.5194953,10.6044922 L43.6274054,10.1645508 L43.7353156,9.83251953 L43.7353156,9.39257813 L43.8515265,8.94433594 L43.9594367,7.73242187 L44.0673468,7.28417969 L44.0673468,6.95214844 L44.1835578,6.73632812 L44.515589,4.52001953 C46.601852,4.57535807 47.5979458,3.94726563 47.5038703,2.63574219 C47.2327114,2.12109375 46.9753872,1.71435547 46.7318976,1.41552734 L46.3998664,1.30761719 L45.1796515,1.08349609 C44.7701463,1.13883464 44.3993781,1.13883464 44.0673468,1.08349609 L43.8515265,0.975585937 L43.5194953,0.975585937 L43.187464,0.975585937 L42.8554328,0.975585937 L42.4071906,0.867675781 C41.4332323,0.917480469 40.5865526,0.842773437 39.8671515,0.643554688 Z" id="Path"></path>
                <path d="M54.8085578,0.626953125 C51.3886359,0.970052083 49.5486294,2.44759115 49.2885382,5.05957031 C49.7644497,7.37825521 51.8202765,8.89453125 55.4560187,9.60839844 C55.7935838,9.92936198 55.9734341,10.2890625 55.9955695,10.6875 C54.9109341,11.8164063 53.7211554,12.5745443 52.4262336,12.9619141 C51.7345018,13.4101563 51.0842739,13.6979167 50.47555,13.8251953 C50.4036099,13.9082031 50.3316698,13.9441732 50.2597296,13.9331055 C49.4905239,14.3647461 48.804326,14.6525065 48.2011359,14.7963867 C47.7141567,15.1007487 47.3544562,15.4244792 47.1220343,15.7675781 C52.030563,16.3873698 55.7465461,15.1616211 58.2699836,12.090332 C59.5206346,8.9305013 57.7165981,6.84147135 52.8578742,5.82324219 C52.487106,5.55208333 52.1993455,5.26155599 51.9945929,4.95166016 C52.9630174,3.68440755 54.2966763,3.18082682 55.9955695,3.44091797 C57.3568976,1.61474609 56.961227,0.676757813 54.8085578,0.626953125 Z" id="Path"></path>
                <path d="M62.5863898,0.651855469 C60.7602179,1.11116536 59.5538377,2.12939453 58.9672492,3.70654297 C59.3656867,4.95719401 60.2317349,5.52164714 61.5653937,5.39990234 C61.4657843,5.96988932 61.4298143,6.46240234 61.4574836,6.87744141 L61.4574836,10.2641602 C61.479619,11.144043 61.440882,11.8994141 61.3412726,12.5302734 C61.4519497,13.078125 61.4519497,13.5678711 61.3412726,13.9995117 C61.4353481,14.4200846 61.4740851,14.8323568 61.4574836,15.2363281 L61.6816046,15.128418 C62.7053677,16.5063477 63.6101528,16.1660156 64.3959601,14.1074219 L64.3959601,13.2026367 L64.2797492,12.4140625 L64.3959601,12.0737305 L64.3959601,11.2851563 L64.5038703,10.6044922 C64.7196906,9.57519531 64.7943976,8.70914714 64.7279914,8.00634766 L64.7279914,7.66601563 C65.082158,6.61458333 65.234339,5.63509115 65.1845343,4.72753906 C66.5513963,4.40104167 67.2292935,3.53222656 67.2182257,2.12109375 C65.7794237,0.953450521 64.2354783,0.463704427 62.5863898,0.651855469 Z" id="Path"></path>
                <path d="M69.6503546,0.942382812 C69.4234666,1.4625651 69.1965786,1.87483724 68.9696906,2.17919922 L68.8617804,2.40332031 C68.6016893,2.69661458 68.4135382,2.99544271 68.2973273,3.29980469 C68.651494,3.98046875 68.800908,4.65559896 68.7455695,5.32519531 C68.6404263,6.29915365 68.3415981,7.08496094 67.8490851,7.68261719 C67.8048143,8.49609375 67.9182583,9.17122396 68.1894171,9.70800781 L67.8490851,11.6171875 L67.7328742,12.4057617 C67.5613247,13.5291341 67.5253546,14.4671224 67.624964,15.2197266 C68.3498989,15.4742839 69.0609992,15.5489909 69.7582648,15.4438477 L70.0985968,15.4438477 C71.5041958,15.9363607 72.8157192,16.1245117 74.0331671,16.0083008 C74.3153937,15.5323893 74.4648078,15.0813802 74.4814093,14.6552734 C73.85055,14.2070312 73.4023078,13.6813151 73.1366828,13.078125 L72.2318976,12.9702148 C71.5290981,12.7488607 70.9314419,12.5994466 70.4389289,12.5219727 L70.4389289,12.1816406 L70.546839,11.9575195 L70.546839,11.6171875 L70.7709601,10.7207031 L70.9950812,9.93212891 L71.3354132,9.93212891 L71.5595343,9.82421875 L72.4560187,9.82421875 C73.1698859,9.71907552 73.7703091,9.71907552 74.2572882,9.82421875 C77.0518846,8.81152344 77.1653286,7.83479818 74.5976203,6.89404297 L74.0331671,7.12646484 L73.6928351,7.12646484 L72.4560187,6.89404297 L71.3354132,6.66992187 L71.3354132,6.33789062 L71.4433234,6.11376953 L71.5595343,4.08837891 L71.8998664,3.97216797 L72.3481086,3.86425781 L73.2445929,3.86425781 C74.268356,3.60970052 75.1316372,3.46028646 75.8344367,3.41601563 C76.6534471,2.1875 76.1664679,1.24951172 74.3734992,0.602050781 L73.6928351,0.826171875 L72.7963507,0.826171875 L72.4560187,0.826171875 L72.1239875,0.942382812 L71.8998664,0.826171875 L71.1112921,0.718261719 L70.7709601,0.718261719 C70.4167935,0.64078776 70.1179653,0.602050781 69.8744757,0.602050781 L69.6503546,0.942382812 Z" id="Path"></path>
                <path d="M85.8368781,0.203613281 C85.7372687,0.585449219 85.6376593,0.770833333 85.53805,0.759765625 L85.2392218,1.05859375 C85.0178677,1.5234375 84.7190395,1.85546875 84.3427375,2.0546875 L84.0439093,2.55273437 L83.9443,2.8515625 C84.0826463,3.09505208 84.1158494,3.42708333 84.0439093,3.84765625 L83.8446906,4.94335938 L83.7450812,5.2421875 L83.6454718,5.74023437 L83.5458625,6.0390625 L83.5458625,6.33789063 L83.3466437,7.13476563 C83.1308234,7.75455729 82.9980109,8.28580729 82.9482062,8.72851562 L82.7489875,8.4296875 C82.6549119,8.09765625 82.5553026,7.83203125 82.4501593,7.6328125 L81.553675,5.14257812 C81.8580369,4.41210937 81.9576463,3.71484375 81.8525031,3.05078125 C81.0832974,2.53059896 80.3196255,2.39778646 79.5614875,2.65234375 C79.0357713,3.01757813 78.6373338,3.3828125 78.366175,3.74804688 L78.1669562,4.24609375 C78.0175421,4.79394531 77.9511359,5.42480469 77.9677375,6.13867187 C77.8017218,6.50390625 77.6357062,6.80273438 77.4696906,7.03515625 L77.4696906,7.43359375 L77.3700812,8.13085938 L77.2704718,8.828125 L77.1708625,9.42578125 L77.0712531,9.72460938 L76.9716437,10.421875 L76.9716437,11.1191406 L76.8720343,11.4179688 C76.8609666,11.7998047 76.8277635,12.1318359 76.772425,12.4140625 L76.772425,12.7128906 C76.6064093,13.3714193 76.5068,13.9358724 76.4735968,14.40625 C76.9661099,14.8876953 77.264938,15.4189453 77.3700812,16 C77.8183234,15.4466146 78.3163703,15.0481771 78.8642218,14.8046875 C78.9915005,13.1113281 79.4231411,11.6503906 80.1591437,10.421875 L80.3583625,10.7207031 L80.5575812,11.0195313 L80.6571906,11.21875 L81.0556281,11.9160156 C81.3599901,12.9895833 81.8248338,13.8860677 82.4501593,14.6054687 C82.992477,14.710612 83.4905239,14.710612 83.9443,14.6054687 C86.1135708,11.9049479 86.9436489,8.98307292 86.4345343,5.83984375 C86.7167609,3.83105469 86.5507453,2.10449219 85.9364875,0.66015625 L85.8368781,0.66015625 L85.9364875,0.66015625 L85.8368781,0.203613281 Z" id="Path"></path>
                <path d="M103.824671,0.884277344 L102.363734,2.01318359 C101.965296,2.41162109 101.663701,2.7491862 101.458948,3.02587891 C100.955368,4.10498047 100.316208,4.93229167 99.5414679,5.5078125 C98.7390591,4.40657552 97.8757778,3.57926432 96.9516242,3.02587891 C96.9516242,2.46142578 96.9128872,2.01041667 96.8354132,1.67285156 L95.5985968,0.776367188 C95.0673468,1.41276042 94.4669237,1.59814453 93.7973273,1.33251953 C93.4265591,1.85270182 93.1996711,2.3811849 93.1166632,2.91796875 C93.5538377,3.58203125 93.7419888,4.21842448 93.6811164,4.82714844 L93.6811164,5.16748047 C93.5759731,5.4773763 93.5400031,5.77897135 93.5732062,6.07226562 L93.3407843,7.53320313 C93.3186489,8.11425781 93.2439419,8.60400391 93.1166632,9.00244141 C93.1166632,10.0317383 92.9672492,10.9337565 92.6684211,11.7084961 L92.784632,12.4970703 C92.9008429,12.773763 92.97555,13.0366211 93.0087531,13.2856445 L93.4569953,15.3193359 L93.6811164,15.203125 L94.2455695,14.5224609 L94.6938117,13.9663086 L94.8100226,13.6259766 L94.9262336,13.2856445 L95.5985968,11.9326172 L95.8227179,10.3554688 L95.8227179,9.90722656 L95.9389289,9.67480469 L96.046839,8.66210938 L96.046839,8.33007813 L96.046839,7.98974609 L96.16305,7.64941406 C96.1907192,7.0296224 96.2654263,6.50390625 96.3871711,6.07226562 C97.4109341,7.17903646 97.9753872,8.41861979 98.0805304,9.79101563 C98.3572231,10.1341146 98.5453742,10.4716797 98.6449836,10.8037109 L99.0932257,10.6958008 C99.1706997,10.5629883 99.2454067,10.4882813 99.3173468,10.4716797 L100.222132,8.88623047 L100.446253,8.77832031 L100.670374,8.66210938 L100.786585,8.43798828 L101.010706,8.33007813 C101.287399,7.9593099 101.550257,7.65771484 101.79928,7.42529297 C101.79928,8.24430339 101.724573,8.91943359 101.575159,9.45068359 L101.575159,9.79101563 C101.292933,10.8479818 101.218226,11.824707 101.351038,12.7211914 L101.118616,13.4018555 L101.351038,15.8754883 L101.79928,15.9916992 C103.946416,13.1362305 104.884404,9.71630859 104.613245,5.73193359 C104.834599,5.18961589 104.948043,4.70263672 104.953577,4.27099609 C105.208135,3.85595703 105.396286,3.47965495 105.51803,3.14208984 C105.357549,2.28434245 105.318812,1.53173828 105.401819,0.884277344 C104.91484,0.690592448 104.463831,0.615885417 104.048792,0.66015625 L103.824671,0.884277344 Z" id="Path"></path>
                <path d="M112.249964,0.66015625 C112.17249,0.798502604 112.092249,0.87874349 112.009241,0.900878906 L111.652308,0.900878906 L111.287073,0.900878906 C110.346318,1.45426432 109.707158,1.51236979 109.369593,1.07519531 L108.91305,1.24121094 L108.282191,2.82666016 L108.041468,3.06738281 L106.837855,4.62792969 L106.713343,4.99316406 L106.356409,5.95605469 L106.231898,6.31298828 L105.393519,8.47949219 L105.874964,9.92382812 C105.288375,12.6852214 106.171025,14.6525065 108.522913,15.8256836 C108.993291,15.9474284 109.433232,15.9861654 109.842737,15.9418945 C113.782842,14.2319336 116.190068,11.3847656 117.064417,7.40039062 C116.843063,3.91959635 115.238245,1.67285156 112.249964,0.66015625 Z M111.527796,4.86865234 C112.640101,5.09554036 113.323532,6.01969401 113.578089,7.64111328 C112.897425,9.77718099 111.774053,11.4207357 110.207972,12.5717773 C109.726527,11.5646159 109.566045,10.5629883 109.726527,9.56689453 C109.571579,8.81429036 109.530075,8.17236328 109.602015,7.64111328 L109.967249,7.15966797 L110.564905,6.19677734 C111.013148,5.74853516 111.334111,5.30582682 111.527796,4.86865234 Z" id="Shape"></path>
                <path d="M119.421839,0.676757813 C119.028935,1.42936198 118.824183,2.17366536 118.807581,2.90966797 C118.940394,2.97054036 119.04277,3.08951823 119.11471,3.26660156 L119.015101,4.55322266 L118.907191,6.55371094 L118.707972,8.43798828 C118.580693,9.06884766 118.51152,9.57796224 118.500452,9.96533203 C118.245895,10.8230794 118.143519,11.6061198 118.193323,12.3144531 C117.794886,12.508138 117.490524,12.7433268 117.280237,13.0200195 C117.16956,13.9220378 117.16956,14.7050781 117.280237,15.3691406 C117.606735,15.6458333 117.877894,15.8422852 118.093714,15.9584961 L118.400843,15.9584961 L118.707972,15.8422852 L119.015101,15.8422852 L119.313929,15.8422852 C119.695765,15.7426758 120.072067,15.7039388 120.442835,15.7260742 C120.813603,15.5379232 121.151168,15.4189453 121.45553,15.3691406 C125.240687,15.3414714 127.418258,13.421224 127.988245,9.60839844 C128.126592,8.66210937 128.090622,7.80159505 127.880335,7.02685547 C127.802861,6.94938151 127.769658,6.86914063 127.780726,6.78613281 L127.581507,6.55371094 L127.473597,6.20507812 C127.11943,5.74576823 126.848271,5.3141276 126.66012,4.91015625 C126.339157,4.6389974 126.101201,4.40380859 125.946253,4.20458984 L125.331995,3.3828125 C124.723271,2.95670573 124.24736,2.48632812 123.904261,1.97167969 C123.50029,1.70605469 123.195928,1.390625 122.991175,1.02539062 L122.584437,1.14990234 L122.376917,1.02539062 C121.20374,0.715494792 120.218714,0.599283854 119.421839,0.676757813 Z M121.729456,4.43701172 C124.457646,5.39436849 125.680628,7.43359375 125.398402,10.5546875 C124.120081,12.6022135 122.659144,12.7958984 121.015589,11.1357422 C121.026657,10.5436198 121.093063,10.0345052 121.214808,9.60839844 L121.214808,9.25976563 C121.353154,8.6233724 121.422327,8.07552083 121.422327,7.61621094 L121.521937,7.25927734 L121.521937,6.91064453 L121.521937,6.55371094 L121.621546,6.32128906 L121.729456,4.43701172 Z" id="Shape"></path>
                <path d="M130.594691,0.942382812 C130.367803,1.4625651 130.140915,1.87483724 129.914027,2.17919922 L129.806116,2.40332031 C129.546025,2.69661458 129.357874,2.99544271 129.241663,3.29980469 C129.59583,3.98046875 129.745244,4.65559896 129.689905,5.32519531 C129.584762,6.29915365 129.285934,7.08496094 128.793421,7.68261719 C128.74915,8.49609375 128.862594,9.17122396 129.133753,9.70800781 L128.793421,11.6171875 L128.67721,12.4057617 C128.505661,13.5291341 128.469691,14.4671224 128.5693,15.2197266 C129.294235,15.4742839 130.005335,15.5489909 130.702601,15.4438477 L131.042933,15.4438477 C132.448532,15.9363607 133.760055,16.1245117 134.977503,16.0083008 C135.25973,15.5323893 135.409144,15.0813802 135.425745,14.6552734 C134.794886,14.2070312 134.346644,13.6813151 134.081019,13.078125 L133.176234,12.9702148 C132.473434,12.7488607 131.875778,12.5994466 131.383265,12.5219727 L131.383265,12.1816406 L131.491175,11.9575195 L131.491175,11.6171875 L131.715296,10.7207031 L131.939417,9.93212891 L132.279749,9.93212891 L132.50387,9.82421875 L133.400355,9.82421875 C134.114222,9.71907552 134.714645,9.71907552 135.201624,9.82421875 C137.996221,8.81152344 138.109665,7.83479818 135.541956,6.89404297 L134.977503,7.12646484 L134.637171,7.12646484 L133.400355,6.89404297 L132.279749,6.66992187 L132.279749,6.33789062 L132.387659,6.11376953 L132.50387,4.08837891 L132.844202,3.97216797 L133.292444,3.86425781 L134.188929,3.86425781 C135.212692,3.60970052 136.075973,3.46028646 136.778773,3.41601563 C137.597783,2.1875 137.110804,1.24951172 135.317835,0.602050781 L134.637171,0.826171875 L133.740687,0.826171875 L133.400355,0.826171875 L133.068323,0.942382812 L132.844202,0.826171875 L132.055628,0.718261719 L131.715296,0.718261719 C131.361129,0.64078776 131.062301,0.602050781 130.818812,0.602050781 L130.594691,0.942382812 Z" id="Path"></path>
            </g>
        </g>
    </g>
</svg>