<?xml version="1.0" encoding="UTF-8"?>
<svg width="140px" height="34px" viewBox="0 0 140 34" version="1.1" xmlns="http://www.w3.org/2000/svg" xmlns:xlink="http://www.w3.org/1999/xlink">
    <title>Frame</title>
    <defs>
        <path d="M0,0 L140,0 L140,33 L0,33 L0,0 Z" id="path-1"></path>
        <linearGradient x1="50%" y1="0%" x2="50%" y2="100%" id="linearGradient-2">
            <stop stop-color="#F6E3A0" offset="0%"></stop>
            <stop stop-color="#E9C367" offset="100%"></stop>
        </linearGradient>
    </defs>
    <g id="Frame" stroke="none" fill="none" transform="translate(0, 0.5)" xlink:href="#path-1" fill-rule="evenodd" stroke-width="1">
        <g id="Group">
            <path d="M14.9754658,0 L125.024534,6.63502932e-16 C129.284232,-4.78230508e-16 131.405519,0.556953667 133.361074,1.60279622 C135.31663,2.64863878 136.851361,4.18337022 137.897204,6.13892578 C138.943046,8.09448133 139.5,10.2157678 139.5,14.4754658 L139.5,18.5245342 C139.5,22.7842322 138.943046,24.9055187 137.897204,26.8610742 C136.851361,28.8166298 135.31663,30.3513612 133.361074,31.3972038 C131.405519,32.4430463 129.284232,33 125.024534,33 L14.9754658,33 C10.7157678,33 8.59448133,32.4430463 6.63892578,31.3972038 C4.68337022,30.3513612 3.14863878,28.8166298 2.10279622,26.8610742 C1.05695367,24.9055187 0.5,22.7842322 0.5,18.5245342 L0.5,14.4754658 C0.5,10.2157678 1.05695367,8.09448133 2.10279622,6.13892578 C3.14863878,4.18337022 4.68337022,2.64863878 6.63892578,1.60279622 C8.59448133,0.556953667 10.7157678,0 14.9754658,0 Z" id="Rectangle-Copy-4" stroke="#000000" fill="url(#linearGradient-2)"></path>
            <g id="How-To-Play" transform="translate(0, 7.1127)" fill="#000000" fill-rule="nonzero">
                <path d="M19.1225586,0.030865354 C18.7794596,0.462505979 18.425293,0.783469521 18.0600586,0.993755979 C18.0323893,1.54160754 17.9604492,2.00368436 17.8442383,2.37998645 L17.8442383,2.69541614 L17.628418,3.5503966 C17.6228841,3.92669869 17.5869141,4.21169218 17.5205078,4.40537707 C17.4707031,4.92002551 17.4015299,5.34613228 17.3129883,5.68369739 L17.3129883,5.99912707 C17.2078451,6.29242134 17.171875,6.57741483 17.2050781,6.85410754 C17.0722656,7.2691466 17.0003255,7.66205025 16.9892578,8.03281848 L16.8813477,8.77158801 C16.7319336,9.78981718 16.5548503,10.6088276 16.3500977,11.2286193 L16.4580078,13.2540099 C16.5354818,13.3591531 16.5714518,13.4670633 16.565918,13.5777404 L16.6738281,14.1089904 L16.8813477,15.0635802 C17.2355143,14.9252338 17.5205078,14.7841206 17.7363281,14.6402404 L17.8442383,14.3248107 L18.9067383,12.0835997 L18.9067383,11.7598693 L19.0146484,11.5523497 L19.1225586,11.1207091 L19.4462891,9.09531848 L19.6538086,9.20322864 L19.9775391,9.31113879 L20.1850586,9.41904895 C21.3305664,9.76768176 22.257487,9.98073515 22.9658203,10.0582091 L22.9658203,10.3736388 C23.2148438,11.0321674 23.355957,11.6021544 23.3891602,12.0835997 C23.3282878,13.3508523 23.5053711,14.4520893 23.9204102,15.3873107 L24.7753906,14.3248107 C24.8805339,13.9595763 24.9856771,13.6745828 25.0908203,13.4698302 L25.3066406,13.1460997 L25.4145508,12.83067 L25.5224609,12.3990294 L25.6303711,12.0835997 L25.8378906,11.7598693 L25.9458008,11.4444396 C26.0011393,10.935325 26.1090495,10.5064513 26.2695312,10.1578185 L26.6928711,8.98740832 L26.6928711,8.67197864 L26.6928711,7.81699817 C26.5655924,7.57350858 26.4936523,7.32448515 26.4770508,7.06992785 L26.5849609,6.64658801 L26.5849609,6.32285754 C26.656901,5.98529244 26.6928711,5.70029895 26.6928711,5.46787707 L26.6928711,5.15244739 L26.6928711,4.82871692 C26.7648112,4.49115181 26.8007812,4.20615832 26.8007812,3.97373645 L26.8007812,3.65830676 L26.8007812,3.22666614 L26.8007812,2.91123645 L26.8007812,0.777935666 C25.40625,-0.328835167 24.4101562,-0.00787162521 23.8125,1.74082629 L24.1362305,2.16416614 L24.2441406,2.37998645 L24.2441406,3.0191466 L24.1362305,3.33457629 C24.2358398,4.91172473 24.0919596,6.2979552 23.7045898,7.4932677 L22.9658203,7.38535754 L22.21875,7.28574817 L22.0029297,7.17783801 L21.6791992,7.17783801 L20.9321289,6.85410754 L19.8696289,6.4307677 L19.8696289,5.99912707 C19.9913737,5.60622343 20.0633138,5.25205676 20.0854492,4.93662707 C20.1518555,4.59906197 20.1850586,4.31406848 20.1850586,4.0816466 L20.2929687,3.86582629 L20.2929687,3.5503966 L20.4008789,2.80332629 C20.6222331,1.98431587 20.6941732,1.23724556 20.6166992,0.562115354 C20.207194,0.158144 19.7810872,-0.0189393335 19.3383789,0.030865354 L19.1225586,0.030865354 Z" id="Path"></path>
                <path d="M33.7485352,0.0474669165 C33.6710612,0.185813271 33.5908203,0.266054156 33.5078125,0.288189573 L33.1508789,0.288189573 L32.7856445,0.288189573 C31.8448893,0.841574989 31.2057292,0.899680458 30.8681641,0.462505979 L30.4116211,0.628521604 L29.7807617,2.21397082 L29.5400391,2.45469348 L28.3364258,4.01524035 L28.2119141,4.38047473 L27.8549805,5.34336535 L27.7304688,5.70029895 L26.8920898,7.86680285 L27.3735352,9.31113879 C26.7869466,12.072532 27.6695964,14.0398172 30.0214844,15.2129943 C30.491862,15.3347391 30.9318034,15.373476 31.3413086,15.3292052 C35.2814128,13.6192443 37.6886393,10.7720763 38.5629883,6.78770129 C38.3416341,3.30690702 36.7368164,1.06016223 33.7485352,0.0474669165 Z M33.0263672,4.25596301 C34.1386719,4.48285103 34.8221029,5.40700468 35.0766602,7.02842395 C34.3959961,9.16449166 33.2726237,10.8080463 31.706543,11.959088 C31.2250977,10.9519266 31.0646159,9.95029895 31.2250977,8.9542052 C31.0701497,8.20160103 31.0286458,7.55967395 31.1005859,7.02842395 L31.4658203,6.54697864 L32.0634766,5.58408801 C32.5117188,5.13584582 32.8326823,4.69313749 33.0263672,4.25596301 Z" id="Shape"></path>
                <path d="M40.3061523,0.0142637915 C39.6310221,0.517844521 39.1993815,1.11550077 39.0112305,1.80723254 C39.0997721,2.548769 39.3653971,3.17686145 39.8081055,3.69150989 L39.9077148,4.38877551 L40.0073242,4.98643176 C40.1401367,5.38486926 40.206543,5.75010364 40.206543,6.08213489 C40.4500326,6.86794218 40.5828451,7.56244087 40.6049805,8.16563098 C41.0698242,9.44395129 41.269043,10.6060607 41.2026367,11.6519591 C41.3686523,11.9175841 41.4654948,12.1832091 41.4931641,12.4488341 C41.609375,13.4504617 41.875,14.310976 42.2900391,15.0303771 L43.0869141,15.0303771 C43.3968099,14.6817443 43.6624349,14.4161193 43.8837891,14.2335021 L44.0830078,13.7354552 C44.3098958,13.4310932 44.4759115,13.1682351 44.5810547,12.946881 L44.5810547,12.6480529 L44.7802734,12.4488341 C44.9794922,11.6962299 45.2119141,11.0985737 45.4775391,10.6558654 C45.5771484,11.0210997 45.6435547,11.353131 45.6767578,11.6519591 C45.9811198,12.2883523 46.1111654,12.8832417 46.0668945,13.4366271 L46.2661133,13.6358458 L46.3657227,13.9346739 C46.6922201,14.5599995 46.9246419,15.0912495 47.0629883,15.5284239 C49.6306966,13.5030333 51.1220703,11.048769 51.5371094,8.16563098 C52.1458333,6.80983671 52.4114583,5.48447864 52.3339844,4.18955676 C52.6438802,3.40928332 52.8098958,2.6815815 52.8320312,2.00645129 C52.3007813,2.3440164 51.9023438,2.73968697 51.6367188,3.19346301 L51.4375,3.59190051 L51.2382812,3.89072864 L51.1386719,4.18955676 L50.9394531,4.38877551 L50.7402344,4.78721301 C50.5686849,5.31292916 50.3722331,5.74456978 50.1508789,6.08213489 L50.0512695,6.38096301 L49.9516602,6.58018176 L49.8520508,6.87900989 L49.7524414,7.07822864 C49.5808919,7.40472603 49.4480794,7.70078723 49.3540039,7.96641223 L48.855957,8.96250598 L48.7563477,9.16172473 L48.6567383,9.36094348 C48.4298503,9.85899035 48.1974284,10.2574279 47.9594727,10.556256 L47.8598633,10.1578185 L47.7602539,9.95859973 C47.6274414,9.33327421 47.4614258,8.80202421 47.262207,8.36484973 C47.0851237,7.861269 46.9191081,7.46559843 46.7641602,7.17783801 C46.9744466,5.83311145 47.0076497,4.67100207 46.8637695,3.69150989 C46.808431,3.56976509 46.7420247,3.50335884 46.6645508,3.49229114 L46.3657227,3.79111926 L46.1665039,3.99033801 C45.2644857,3.8464578 44.4371745,4.1120828 43.6845703,4.78721301 L43.3857422,5.38486926 C43.9003906,6.55804634 43.8671875,7.61777942 43.2861328,8.56406848 L43.1865234,8.16563098 L43.0869141,7.57627551 C43.014974,7.39919218 42.9817708,7.23317655 42.9873047,7.07822864 L42.7880859,6.58018176 L42.7880859,6.08213489 C42.7161458,5.98252551 42.6829427,5.88291614 42.6884766,5.78330676 C42.5113932,5.12477811 42.4117839,4.56032499 42.3896484,4.08994739 C42.2623698,3.70811145 42.1959635,3.3760802 42.1904297,3.09385364 L42.0908203,2.69541614 L41.6923828,0.412701291 C41.2275391,0.119407021 40.7654622,-0.0134054794 40.3061523,0.0142637915 Z" id="Path"></path>
                <path d="M60.1699219,0.0391661352 C58.34375,0.498476031 57.1373698,1.5167052 56.5507812,3.09385364 C56.9492188,4.34450468 57.8152669,4.9089578 59.1489258,4.78721301 C59.0493164,5.35719999 59.0133464,5.84971301 59.0410156,6.26475207 L59.0410156,9.65147082 C59.063151,10.5313536 59.0244141,11.2867247 58.9248047,11.9175841 C59.0354818,12.4654357 59.0354818,12.9551818 58.9248047,13.3868224 C59.0188802,13.8073953 59.0576172,14.2196674 59.0410156,14.6236388 L59.2651367,14.5157286 C60.2888997,15.8936583 61.1936849,15.5533263 61.9794922,13.4947325 L61.9794922,12.5899474 L61.8632812,11.8013732 L61.9794922,11.4610411 L61.9794922,10.6724669 L62.0874023,9.99180285 C62.3032227,8.96250598 62.3779297,8.0964578 62.3115234,7.39365832 L62.3115234,7.05332629 C62.6656901,6.001894 62.8178711,5.02240181 62.7680664,4.11484973 C64.1349284,3.78835233 64.8128255,2.91953723 64.8017578,1.50840442 C63.3629557,0.340761187 61.8190104,-0.148984906 60.1699219,0.0391661352 Z" id="Path"></path>
                <path d="M71.6333008,0.0474669165 C71.5558268,0.185813271 71.4755859,0.266054156 71.3925781,0.288189573 L71.0356445,0.288189573 L70.6704102,0.288189573 C69.7296549,0.841574989 69.0904948,0.899680458 68.7529297,0.462505979 L68.2963867,0.628521604 L67.6655273,2.21397082 L67.4248047,2.45469348 L66.2211914,4.01524035 L66.0966797,4.38047473 L65.7397461,5.34336535 L65.6152344,5.70029895 L64.7768555,7.86680285 L65.2583008,9.31113879 C64.6717122,12.072532 65.554362,14.0398172 67.90625,15.2129943 C68.3766276,15.3347391 68.816569,15.373476 69.2260742,15.3292052 C73.1661784,13.6192443 75.5734049,10.7720763 76.4477539,6.78770129 C76.2263997,3.30690702 74.621582,1.06016223 71.6333008,0.0474669165 Z M70.9111328,4.25596301 C72.0234375,4.48285103 72.7068685,5.40700468 72.9614258,7.02842395 C72.2807617,9.16449166 71.1573893,10.8080463 69.5913086,11.959088 C69.1098633,10.9519266 68.9493815,9.95029895 69.1098633,8.9542052 C68.9549154,8.20160103 68.9134115,7.55967395 68.9853516,7.02842395 L69.3505859,6.54697864 L69.9482422,5.58408801 C70.3964844,5.13584582 70.7174479,4.69313749 70.9111328,4.25596301 Z" id="Shape"></path>
                <path d="M82.2583008,0.0474669165 C80.6811523,1.13763619 80.4597982,2.24164009 81.5942383,3.35947864 C81.5167643,3.7745177 81.4807943,4.142519 81.4863281,4.46348254 C81.3147786,4.98919869 81.2400716,5.46787707 81.262207,5.8995177 C79.9783529,6.9011453 79.8317057,8.00791614 80.8222656,9.2198302 L80.7143555,9.76768176 C80.7198893,10.5313536 80.5345052,11.1954161 80.1582031,11.7598693 C80.9772135,16.8344135 82.0812174,16.6490294 83.4702148,11.2037169 C83.503418,10.4289773 83.6140951,9.76768176 83.8022461,9.2198302 C88.5170898,10.099713 90.8745117,8.73561796 90.8745117,5.12754504 C90.2381185,1.6910216 87.7700195,0.144309364 83.4702148,0.487408323 C83.1492513,0.304791135 82.7452799,0.158144 82.2583008,0.0474669165 Z M84.4663086,3.35947864 C86.9897461,3.15472603 88.132487,4.07611275 87.8945312,6.12363879 C86.688151,7.0035216 85.398763,7.18890572 84.0263672,6.67979114 L84.1342773,6.34775989 L84.1342773,5.79160754 L84.2421875,5.45957629 L84.2421875,5.12754504 L84.2421875,4.79551379 L84.4663086,3.35947864 Z" id="Shape"></path>
                <path d="M94.9833984,0.487408323 C94.8671875,0.885845823 94.7509766,1.19297473 94.6347656,1.40879504 L94.7509766,2.2222716 L94.6347656,2.4463927 C94.5019531,3.27093697 94.3110352,3.96266874 94.0620117,4.52158801 L93.9458008,5.32676379 L93.480957,6.48057239 C93.2762044,8.01344999 92.8168945,9.28070259 92.1030273,10.2823302 C91.9370117,10.8910542 91.7045898,11.427838 91.4057617,11.8926818 C91.3614909,12.7725646 91.5551758,13.5390034 91.9868164,14.1919982 C92.0366211,14.6402404 92.1140951,15.0248432 92.2192383,15.3458068 L93.597168,14.540631 C94.1726888,14.5129617 94.6707357,14.5516987 95.0913086,14.6568419 L95.4399414,14.6568419 L96.0126953,14.7730529 L96.3613281,14.7730529 C96.9700521,14.9280008 97.5068359,15.0027078 97.9716797,14.9971739 L99.4741211,15.2295958 L99.9306641,15.2295958 L100.163086,15.3458068 C101.214518,15.107851 102.135905,15.0303771 102.927246,15.1133849 L103.616211,14.0757872 C102.913411,13.1516336 102.030762,12.5014057 100.968262,12.1251036 L100.046875,12.3492247 L99.6982422,12.2330138 L99.2416992,12.2330138 L98.6606445,12.1251036 L98.3203125,12.1251036 L97.9716797,12.0088927 C97.5677083,11.997825 97.2605794,11.959088 97.050293,11.8926818 C96.3198242,11.8484109 95.7055664,11.770937 95.2075195,11.6602599 L95.4399414,10.8550841 L95.4399414,10.5064513 L95.6723633,9.70127551 L95.7885742,9.47715442 L96.0126953,8.66367785 L96.1289062,8.20713489 L96.7099609,6.13193957 L96.8178711,5.55918567 L96.934082,5.21055285 L97.050293,4.98643176 L97.6313477,3.02744739 L97.6313477,2.67881457 L98.0878906,0.836041135 C97.2356771,0.409934364 96.4692383,0.141542437 95.7885742,0.030865354 L94.9833984,0.487408323 Z" id="Path"></path>
                <path d="M108.272949,1.33408801 L107.409668,2.83652942 L106.396973,5.85801379 L105.442383,6.43906848 L105.035645,7.46006457 L105.143555,8.51426379 C104.695312,9.41628202 104.307943,10.3099995 103.981445,11.1954161 L103.765625,14.2002989 C104.230469,14.7758198 104.731283,15.1327534 105.268066,15.2710997 L106.338867,14.2002989 L107.293457,10.8384825 L109.775391,10.3404357 C109.399089,12.6314513 109.352051,13.7105529 109.634277,13.5777404 L110.414551,15.48692 C113.303223,11.0543029 113.660156,6.54974556 111.485352,1.97324817 L111.701172,1.1182677 C111.053711,0.775168739 110.552897,0.418235146 110.19873,0.0474669165 L108.272949,1.33408801 Z M108.355957,7.85020129 L109.260742,5.69199817 L109.783691,7.73399035 L108.355957,7.85020129 Z" id="Shape"></path>
                <path d="M115.40332,0.263287229 C114.429362,0.744732541 113.712728,1.3534565 113.253418,2.0894591 L113.361328,2.62900989 L113.685059,2.62900989 C113.80127,2.70094999 113.87321,2.77289009 113.900879,2.8448302 L114.216309,3.05234973 L114.432129,3.26817004 L114.755859,3.48399035 L114.97168,3.69981067 L115.1875,4.02354114 C115.763021,4.36664009 116.191895,4.72357369 116.474121,5.09434192 C116.42985,5.54811796 116.46582,5.94378853 116.582031,6.28135364 C116.930664,6.79046822 117.182454,7.25531197 117.337402,7.67588489 L117.229492,7.99961535 C117.146484,8.54193306 117.038574,8.97080676 116.905762,9.28623645 C116.81722,10.2712625 116.6014,11.0958068 116.258301,11.7598693 L116.366211,13.0464904 C116.288737,13.8655008 116.504557,14.5101948 117.013672,14.9805724 C117.057943,15.5228901 117.201823,15.5948302 117.445312,15.1963927 L117.661133,14.9805724 L117.769043,14.7647521 L118.084473,14.0176818 L118.300293,13.9097716 C118.549316,13.3563862 118.801107,12.9247456 119.055664,12.6148497 L119.271484,11.5440489 L120.026855,9.17832629 L120.026855,7.99961535 C120.209473,7.42409452 120.314616,6.92328072 120.342285,6.49717395 C120.497233,5.92718697 120.569173,5.42360624 120.558105,4.98643176 C121.963704,3.79665311 122.752279,2.43809192 122.923828,0.910748166 C121.34668,0.440370562 119.877441,1.1902078 118.516113,3.16025989 C117.270996,2.33571561 116.413249,1.33408801 115.942871,0.155377073 L115.51123,0.0474669165 L115.40332,0.263287229 Z" id="Path"></path>
            </g>
        </g>
    </g>
</svg>