<?xml version="1.0" encoding="UTF-8"?>
<svg width="133px" height="36px" viewBox="0 0 133 36" version="1.1" xmlns="http://www.w3.org/2000/svg" xmlns:xlink="http://www.w3.org/1999/xlink">
    <title>Frame</title>
    <defs>
        <path d="M0,0 L106,0 L106,35 L0,35 L0,0 Z" id="path-1"></path>
        <linearGradient x1="50%" y1="0%" x2="50%" y2="100%" id="linearGradient-2">
            <stop stop-color="#F6E3A0" offset="0%"></stop>
            <stop stop-color="#E9C367" offset="100%"></stop>
        </linearGradient>
    </defs>
    <g id="Frame" stroke="none" fill="none" transform="translate(1, 1)" xlink:href="#path-1" fill-rule="evenodd" stroke-width="1">
        <g id="Group" fill="url(#linearGradient-2)" stroke="#000000">
            <path d="M14.6687182,0 L116.331282,7.1530067e-16 C120.822883,-4.88590056e-16 122.905519,0.556953667 124.861074,1.60279622 C126.81663,2.64863878 128.351361,4.18337022 129.397204,6.13892578 C130.443046,8.09448133 131,10.1771174 131,14.6687182 L131,22 C131,28.627417 125.627417,34 119,34 C92.406641,34 65.813282,34 39.219923,34 C30.1466153,34 21.0733077,34 12,34 C5.372583,34 0,28.627417 0,22 L0,14.6687182 C0,10.1771174 0.556953667,8.09448133 1.60279622,6.13892578 C2.64863878,4.18337022 4.18337022,2.64863878 6.13892578,1.60279622 C8.09448133,0.556953667 10.1771174,0 14.6687182,0 Z" id="Rectangle-Copy-4"></path>
        </g>
        <g id="􀅈-New-Word" transform="translate(14, 7)" fill="#000000">
            <path d="M1.40283203,10.896965 C1.40283203,11.8651301 1.58374151,12.7708232 1.94556046,13.6140442 C2.3073794,14.4572652 2.80711238,15.1989314 3.44475937,15.8390427 C4.08240636,16.479154 4.82281876,16.9801407 5.66599655,17.3420029 C6.50917435,17.7038651 7.41462962,17.8847961 8.38236237,17.8847961 C9.35061391,17.8847961 10.2563286,17.7038651 11.0995064,17.3420029 C11.9426842,16.9801407 12.6843287,16.479154 13.32444,15.8390427 C13.9645513,15.1989314 14.4642843,14.4572652 14.8236389,13.6140442 C15.1829936,12.7708232 15.3626709,11.8651301 15.3626709,10.896965 C15.3626709,10.6813176 15.2948596,10.505942 15.1592369,10.3708382 C15.0236142,10.2357343 14.8488007,10.1681824 14.6347961,10.1681824 C14.4313405,10.1681824 14.2672056,10.2357343 14.1423912,10.3708382 C14.0175769,10.505942 13.9551697,10.6813176 13.9551697,10.896965 C13.9551697,11.6678136 13.8111814,12.3911705 13.5232048,13.0670357 C13.2352282,13.7429008 12.8359693,14.3361041 12.325428,14.8466454 C11.8148867,15.3571866 11.2241694,15.7551918 10.5532761,16.0406609 C9.88238271,16.3261299 9.15874481,16.4688644 8.38236237,16.4688644 C7.61151377,16.4688644 6.88941065,16.3261299 6.21605301,16.0406609 C5.54269536,15.7551918 4.95085398,15.3571866 4.44052887,14.8466454 C3.93020376,14.3361041 3.53245799,13.7429008 3.24729156,13.0670357 C2.96212514,12.3911705 2.81954193,11.6678136 2.81954193,10.896965 C2.81954193,10.1184209 2.96158473,9.39179993 3.24567032,8.71710205 C3.52975591,8.04240417 3.92629115,7.45101674 4.43527603,6.94293976 C4.94426092,6.43486277 5.53463236,6.0369873 6.20639038,5.74931335 C6.8781484,5.4616394 7.5994517,5.31780243 8.37030029,5.31780243 C8.6467336,5.31780243 8.91175334,5.32904307 9.1653595,5.35152435 C9.41896566,5.37400564 9.65398153,5.41049449 9.8704071,5.46099091 L7.64009094,7.67379761 C7.57446289,7.74452718 7.52455012,7.82018534 7.49035263,7.90077209 C7.45615514,7.98135885 7.4390564,8.06847382 7.4390564,8.162117 C7.4390564,8.35796356 7.50535456,8.52343877 7.6379509,8.65854263 C7.77054723,8.79364649 7.93476868,8.86119843 8.13061523,8.86119843 C8.33580017,8.86119843 8.50017293,8.79444631 8.62373352,8.66094208 L11.8545532,5.41611481 C12.0023244,5.26332855 12.07621,5.08849335 12.07621,4.89160919 C12.07621,4.68979645 12.0023244,4.51552327 11.8545532,4.36878967 L8.62373352,1.09322357 C8.49965413,0.948651632 8.33277384,0.876365662 8.12309265,0.876365662 C7.93226115,0.876365662 7.77054723,0.946684519 7.6379509,1.08732224 C7.50535456,1.22795995 7.4390564,1.39646149 7.4390564,1.59282684 C7.4390564,1.68595123 7.45615514,1.77406057 7.49035263,1.85715485 C7.52455012,1.94024913 7.5719986,2.01711782 7.63269806,2.08776093 L9.61515808,4.0454483 C9.43141683,4.00991058 9.23394903,3.98087947 9.02275467,3.95835495 C8.81156031,3.93583043 8.59407552,3.92456818 8.37030029,3.92456818 C7.40265401,3.92456818 6.49789047,4.10383479 5.65600967,4.46236801 C4.81412888,4.82090123 4.07518641,5.31845093 3.43918228,5.95501709 C2.80317815,6.59158325 2.30478541,7.3323199 1.94400406,8.17722702 C1.58322271,9.02213415 1.40283203,9.92871348 1.40283203,10.896965 Z" id="Path" fill-rule="nonzero"></path>
            <path d="M30.1611417,0.203613281 C30.0615324,0.585449219 29.961923,0.770833333 29.8623136,0.759765625 L29.5634855,1.05859375 C29.3421313,1.5234375 29.0433032,1.85546875 28.6670011,2.0546875 L28.368173,2.55273437 L28.2685636,2.8515625 C28.40691,3.09505208 28.4401131,3.42708333 28.368173,3.84765625 L28.1689542,4.94335938 L28.0693449,5.2421875 L27.9697355,5.74023437 L27.8701261,6.0390625 L27.8701261,6.33789063 L27.6709074,7.13476563 C27.4550871,7.75455729 27.3222746,8.28580729 27.2724699,8.72851562 L27.0732511,8.4296875 C26.9791756,8.09765625 26.8795662,7.83203125 26.774423,7.6328125 L25.8779386,5.14257812 C26.1823006,4.41210937 26.28191,3.71484375 26.1767667,3.05078125 C25.407561,2.53059896 24.6438891,2.39778646 23.8857511,2.65234375 C23.360035,3.01757813 22.9615975,3.3828125 22.6904386,3.74804688 L22.4912199,4.24609375 C22.3418058,4.79394531 22.2753996,5.42480469 22.2920011,6.13867187 C22.1259855,6.50390625 21.9599699,6.80273438 21.7939542,7.03515625 L21.7939542,7.43359375 L21.6943449,8.13085938 L21.5947355,8.828125 L21.4951261,9.42578125 L21.3955167,9.72460938 L21.2959074,10.421875 L21.2959074,11.1191406 L21.196298,11.4179688 C21.1852303,11.7998047 21.1520272,12.1318359 21.0966886,12.4140625 L21.0966886,12.7128906 C20.930673,13.3714193 20.8310636,13.9358724 20.7978605,14.40625 C21.2903735,14.8876953 21.5892016,15.4189453 21.6943449,16 C22.1425871,15.4466146 22.6406339,15.0481771 23.1884855,14.8046875 C23.3157641,13.1113281 23.7474048,11.6503906 24.4834074,10.421875 L24.6826261,10.7207031 L24.8818449,11.0195313 L24.9814542,11.21875 L25.3798917,11.9160156 C25.6842537,12.9895833 26.1490975,13.8860677 26.774423,14.6054687 C27.3167407,14.710612 27.8147876,14.710612 28.2685636,14.6054687 C30.4378345,11.9049479 31.2679126,8.98307292 30.758798,5.83984375 C31.0410246,3.83105469 30.8750089,2.10449219 30.2607511,0.66015625 L30.1611417,0.66015625 L30.2607511,0.66015625 L30.1611417,0.203613281 Z" id="Path" fill-rule="nonzero"></path>
            <path d="M32.9834074,0.942382812 C32.7565193,1.4625651 32.5296313,1.87483724 32.3027433,2.17919922 L32.1948332,2.40332031 C31.934742,2.69661458 31.746591,2.99544271 31.63038,3.29980469 C31.9845467,3.98046875 32.1339608,4.65559896 32.0786222,5.32519531 C31.973479,6.29915365 31.6746509,7.08496094 31.1821378,7.68261719 C31.137867,8.49609375 31.251311,9.17122396 31.5224699,9.70800781 L31.1821378,11.6171875 L31.0659269,12.4057617 C30.8943774,13.5291341 30.8584074,14.4671224 30.9580167,15.2197266 C31.6829516,15.4742839 32.3940519,15.5489909 33.0913175,15.4438477 L33.4316496,15.4438477 C34.8372485,15.9363607 36.148772,16.1245117 37.3662199,16.0083008 C37.6484464,15.5323893 37.7978605,15.0813802 37.8144621,14.6552734 C37.1836027,14.2070312 36.7353605,13.6813151 36.4697355,13.078125 L35.5649503,12.9702148 C34.8621509,12.7488607 34.2644946,12.5994466 33.7719816,12.5219727 L33.7719816,12.1816406 L33.8798917,11.9575195 L33.8798917,11.6171875 L34.1040128,10.7207031 L34.3281339,9.93212891 L34.668466,9.93212891 L34.8925871,9.82421875 L35.7890714,9.82421875 C36.5029386,9.71907552 37.1033618,9.71907552 37.590341,9.82421875 C40.3849373,8.81152344 40.4983813,7.83479818 37.930673,6.89404297 L37.3662199,7.12646484 L37.0258878,7.12646484 L35.7890714,6.89404297 L34.668466,6.66992187 L34.668466,6.33789062 L34.7763761,6.11376953 L34.8925871,4.08837891 L35.2329191,3.97216797 L35.6811613,3.86425781 L36.5776457,3.86425781 C37.6014087,3.60970052 38.4646899,3.46028646 39.1674894,3.41601563 C39.9864998,2.1875 39.4995207,1.24951172 37.7065519,0.602050781 L37.0258878,0.826171875 L36.1294035,0.826171875 L35.7890714,0.826171875 L35.4570402,0.942382812 L35.2329191,0.826171875 L34.4443449,0.718261719 L34.1040128,0.718261719 C33.7498462,0.64078776 33.451018,0.602050781 33.2075285,0.602050781 L32.9834074,0.942382812 Z" id="Path" fill-rule="nonzero"></path>
            <path d="M41.0185636,0.626953125 C40.3434334,1.13053385 39.9117928,1.7281901 39.7236417,2.41992187 C39.8121834,3.16145833 40.0778084,3.78955078 40.5205167,4.30419922 L40.6201261,5.00146484 L40.7197355,5.59912109 C40.852548,5.99755859 40.9189542,6.36279297 40.9189542,6.69482422 C41.1624438,7.48063151 41.2952563,8.17513021 41.3173917,8.77832031 C41.7822355,10.0566406 41.9814542,11.21875 41.915048,12.2646484 C42.0810636,12.5302734 42.1779061,12.7958984 42.2055753,13.0615234 C42.3217863,14.063151 42.5874113,14.9236654 43.0024503,15.6430664 L43.7993253,15.6430664 C44.1092212,15.2944336 44.3748462,15.0288086 44.5962003,14.8461914 L44.7954191,14.3481445 C45.0223071,14.0437826 45.1883227,13.7809245 45.293466,13.5595703 L45.293466,13.2607422 L45.4926847,13.0615234 C45.6919035,12.3089193 45.9243253,11.711263 46.1899503,11.2685547 C46.2895597,11.6337891 46.355966,11.9658203 46.3891691,12.2646484 C46.6935311,12.9010417 46.8235766,13.495931 46.7793058,14.0493164 L46.9785246,14.2485352 L47.0781339,14.5473633 C47.4046313,15.1726888 47.6370532,15.7039388 47.7753996,16.1411133 C50.3431079,14.1157227 51.8344816,11.6614583 52.2495207,8.77832031 C52.8582446,7.42252604 53.1238696,6.09716797 53.0463957,4.80224609 C53.3562915,4.02197266 53.5223071,3.29427083 53.5444425,2.61914063 C53.0131925,2.95670573 52.614755,3.3523763 52.34913,3.80615234 L52.1499113,4.20458984 L51.9506925,4.50341797 L51.8510832,4.80224609 L51.6518644,5.00146484 L51.4526457,5.39990234 C51.2810962,5.92561849 51.0846443,6.35725911 50.8632902,6.69482422 L50.7636808,6.99365234 L50.6640714,7.19287109 L50.5644621,7.49169922 L50.4648527,7.69091797 C50.2933032,8.01741536 50.1604907,8.31347656 50.0664152,8.57910156 L49.5683683,9.57519531 L49.4687589,9.77441406 L49.3691496,9.97363281 C49.1422615,10.4716797 48.9098397,10.8701172 48.6718839,11.1689453 L48.5722746,10.7705078 L48.4726652,10.5712891 C48.3398527,9.94596354 48.1738371,9.41471354 47.9746183,8.97753906 C47.797535,8.47395833 47.6315193,8.07828776 47.4765714,7.79052734 C47.6868579,6.44580078 47.720061,5.28369141 47.5761808,4.30419922 C47.5208423,4.18245443 47.454436,4.11604818 47.3769621,4.10498047 L47.0781339,4.40380859 L46.8789152,4.60302734 C45.976897,4.45914714 45.1495858,4.72477214 44.3969816,5.39990234 L44.0981535,5.99755859 C44.6128019,7.17073568 44.5795988,8.23046875 43.9985441,9.17675781 L43.8989347,8.77832031 L43.7993253,8.18896484 C43.7273852,8.01188151 43.6941821,7.84586589 43.699716,7.69091797 L43.5004972,7.19287109 L43.5004972,6.69482422 C43.4285571,6.59521484 43.395354,6.49560547 43.4008878,6.39599609 C43.2238045,5.73746745 43.1241951,5.17301432 43.1020597,4.70263672 C42.9747811,4.32080078 42.9083748,3.98876953 42.902841,3.70654297 L42.8032316,3.30810547 L42.4047941,1.02539062 C41.9399503,0.732096354 41.4778735,0.599283854 41.0185636,0.626953125 Z" id="Path" fill-rule="nonzero"></path>
            <path d="M58.5664152,0.626953125 C57.891285,1.13053385 57.4596443,1.7281901 57.2714933,2.41992187 C57.360035,3.16145833 57.62566,3.78955078 58.0683683,4.30419922 L58.1679777,5.00146484 L58.2675871,5.59912109 C58.4003996,5.99755859 58.4668058,6.36279297 58.4668058,6.69482422 C58.7102954,7.48063151 58.8431079,8.17513021 58.8652433,8.77832031 C59.3300871,10.0566406 59.5293058,11.21875 59.4628996,12.2646484 C59.6289152,12.5302734 59.7257576,12.7958984 59.7534269,13.0615234 C59.8696378,14.063151 60.1352628,14.9236654 60.5503019,15.6430664 L61.3471769,15.6430664 C61.6570727,15.2944336 61.9226977,15.0288086 62.1440519,14.8461914 L62.3432707,14.3481445 C62.5701587,14.0437826 62.7361743,13.7809245 62.8413175,13.5595703 L62.8413175,13.2607422 L63.0405363,13.0615234 C63.239755,12.3089193 63.4721769,11.711263 63.7378019,11.2685547 C63.8374113,11.6337891 63.9038175,11.9658203 63.9370207,12.2646484 C64.2413826,12.9010417 64.3714282,13.495931 64.3271574,14.0493164 L64.5263761,14.2485352 L64.6259855,14.5473633 C64.9524829,15.1726888 65.1849048,15.7039388 65.3232511,16.1411133 C67.8909595,14.1157227 69.3823332,11.6614583 69.7973722,8.77832031 C70.4060962,7.42252604 70.6717212,6.09716797 70.5942472,4.80224609 C70.904143,4.02197266 71.0701587,3.29427083 71.0922941,2.61914063 C70.5610441,2.95670573 70.1626066,3.3523763 69.8969816,3.80615234 L69.6977628,4.20458984 L69.4985441,4.50341797 L69.3989347,4.80224609 L69.199716,5.00146484 L69.0004972,5.39990234 C68.8289477,5.92561849 68.6324959,6.35725911 68.4111417,6.69482422 L68.3115324,6.99365234 L68.211923,7.19287109 L68.1123136,7.49169922 L68.0127042,7.69091797 C67.8411548,8.01741536 67.7083423,8.31347656 67.6142667,8.57910156 L67.1162199,9.57519531 L67.0166105,9.77441406 L66.9170011,9.97363281 C66.6901131,10.4716797 66.4576912,10.8701172 66.2197355,11.1689453 L66.1201261,10.7705078 L66.0205167,10.5712891 C65.8877042,9.94596354 65.7216886,9.41471354 65.5224699,8.97753906 C65.3453865,8.47395833 65.1793709,8.07828776 65.024423,7.79052734 C65.2347095,6.44580078 65.2679126,5.28369141 65.1240324,4.30419922 C65.0686938,4.18245443 65.0022876,4.11604818 64.9248136,4.10498047 L64.6259855,4.40380859 L64.4267667,4.60302734 C63.5247485,4.45914714 62.6974373,4.72477214 61.9448332,5.39990234 L61.646005,5.99755859 C62.1606535,7.17073568 62.1274503,8.23046875 61.5463957,9.17675781 L61.4467863,8.77832031 L61.3471769,8.18896484 C61.2752368,8.01188151 61.2420337,7.84586589 61.2475675,7.69091797 L61.0483488,7.19287109 L61.0483488,6.69482422 C60.9764087,6.59521484 60.9432055,6.49560547 60.9487394,6.39599609 C60.7716561,5.73746745 60.6720467,5.17301432 60.6499113,4.70263672 C60.5226326,4.32080078 60.4562264,3.98876953 60.4506925,3.70654297 L60.3510832,3.30810547 L59.9526457,1.02539062 C59.4878019,0.732096354 59.0257251,0.599283854 58.5664152,0.626953125 Z" id="Path" fill-rule="nonzero"></path>
            <path d="M78.1230558,0.66015625 C78.0455818,0.798502604 77.965341,0.87874349 77.8823332,0.900878906 L77.5253996,0.900878906 L77.1601652,0.900878906 C76.21941,1.45426432 75.5802498,1.51236979 75.2426847,1.07519531 L74.7861417,1.24121094 L74.1552824,2.82666016 L73.9145597,3.06738281 L72.7109464,4.62792969 L72.5864347,4.99316406 L72.2295011,5.95605469 L72.1049894,6.31298828 L71.2666105,8.47949219 L71.7480558,9.92382812 C71.1614673,12.6852214 72.044117,14.6525065 74.396005,15.8256836 C74.8663826,15.9474284 75.306324,15.9861654 75.7158292,15.9418945 C79.6559334,14.2319336 82.06316,11.3847656 82.9375089,7.40039062 C82.7161548,3.91959635 81.1113371,1.67285156 78.1230558,0.66015625 Z M77.4008878,4.86865234 C78.5131925,5.09554036 79.1966235,6.01969401 79.4511808,7.64111328 C78.7705167,9.77718099 77.6471443,11.4207357 76.0810636,12.5717773 C75.5996183,11.5646159 75.4391365,10.5629883 75.5996183,9.56689453 C75.4446704,8.81429036 75.4031665,8.17236328 75.4751066,7.64111328 L75.840341,7.15966797 L76.4379972,6.19677734 C76.8862394,5.74853516 77.2072029,5.30582682 77.4008878,4.86865234 Z" id="Shape" fill-rule="nonzero"></path>
            <path d="M86.6728605,0.651855469 C84.3265063,1.02815755 83.5185636,3.44645182 84.2490324,7.90673828 C84.071949,8.74235026 83.8035571,9.4313151 83.4438566,9.97363281 C83.4936613,10.5491536 83.6292407,11.0112305 83.8505949,11.3598633 L83.9502042,11.7001953 L83.9502042,13.3188477 C84.0332121,14.3370768 84.0664152,15.1809896 84.0498136,15.8505859 C84.1660246,15.9280599 84.2324308,16.0055339 84.2490324,16.0830078 C84.6585376,16.265625 85.0625089,16.3015951 85.4609464,16.190918 C85.5826912,15.9197591 85.7182707,15.6901042 85.8676847,15.5019531 L85.9672941,15.2695312 C86.1167082,14.3619792 86.351897,13.6342773 86.6728605,13.0864258 L87.1792082,14.1240234 L87.5776457,14.3481445 L87.9843839,14.8129883 L88.4824308,15.0454102 L89.0883878,15.3857422 L89.4951261,15.734375 C90.0263761,15.9391276 90.4635506,16.1687826 90.8066496,16.4233398 L91.2050871,16.6557617 L91.6118253,16.7719727 L92.4170011,17.3447266 L92.72413,17.4609375 L92.9233488,17.6933594 L93.2221769,17.8095703 L93.5293058,17.9174805 L95.1396574,18.9550781 L96.4511808,19.1875 L96.9575285,18.3823242 L96.9575285,17.5771484 C96.8413175,17.4996745 96.7749113,17.4222005 96.7583097,17.3447266 C96.6365649,17.2672526 96.5673917,17.1897786 96.5507902,17.1123047 L96.3515714,16.9960937 L96.0527433,16.7719727 C95.7373136,16.5118815 95.5021248,16.2434896 95.3471769,15.9667969 C94.9487394,15.7399089 94.6443774,15.4715169 94.434091,15.1616211 L94.2348722,15.0454102 L94.0356535,14.9291992 L93.4296964,14.4643555 L92.8237394,14.2402344 L92.6245207,14.0078125 L92.4170011,13.8916016 C91.7086678,13.570638 91.1386808,13.1472982 90.7070402,12.621582 L90.4995207,12.5136719 L90.3003019,12.3974609 L89.6943449,11.9326172 C89.0247485,11.4345703 88.5211678,10.8590495 88.1836027,10.2060547 L87.677255,9.74951172 C91.7944425,7.81819661 93.3079516,5.43863932 92.2177824,2.61083984 C90.3750089,1.27164714 88.5267016,0.618652344 86.6728605,0.651855469 Z M87.071298,3.57373047 C88.9583423,4.06070964 88.8587329,4.76627604 86.7724699,5.69042969 L86.7724699,5.39160156 L87.071298,3.57373047 Z" id="Shape" fill-rule="nonzero"></path>
            <path d="M95.0815519,0.676757812 C94.6886483,1.42936198 94.4838957,2.17366536 94.4672941,2.90966797 C94.6001066,2.97054036 94.7024829,3.08951823 94.774423,3.26660156 L94.6748136,4.55322266 L94.5669035,6.55371094 L94.3676847,8.43798828 C94.2404061,9.06884766 94.1712329,9.57796224 94.1601652,9.96533203 C93.9056079,10.8230794 93.8032316,11.6061198 93.8530363,12.3144531 C93.4545988,12.508138 93.1502368,12.7433268 92.9399503,13.0200195 C92.8292733,13.9220378 92.8292733,14.7050781 92.9399503,15.3691406 C93.2664477,15.6458333 93.5376066,15.8422852 93.7534269,15.9584961 L94.0605558,15.9584961 L94.3676847,15.8422852 L94.6748136,15.8422852 L94.9736417,15.8422852 C95.3554777,15.7426758 95.7317798,15.7039388 96.102548,15.7260742 C96.4733162,15.5379232 96.8108813,15.4189453 97.1152433,15.3691406 C100.9004,15.3414714 103.077971,13.421224 103.647958,9.60839844 C103.786305,8.66210937 103.750334,7.80159505 103.540048,7.02685547 C103.462574,6.94938151 103.429371,6.86914063 103.440439,6.78613281 L103.24122,6.55371094 L103.13331,6.20507812 C102.779143,5.74576823 102.507984,5.3141276 102.319833,4.91015625 C101.99887,4.6389974 101.760914,4.40380859 101.605966,4.20458984 L100.991708,3.3828125 C100.382984,2.95670573 99.9070727,2.48632812 99.5639738,1.97167969 C99.1600024,1.70605469 98.8556404,1.390625 98.6508878,1.02539062 L98.2441496,1.14990234 L98.03663,1.02539062 C96.8634529,0.715494792 95.8784269,0.599283854 95.0815519,0.676757812 Z M97.3891691,4.43701172 C100.117359,5.39436849 101.340341,7.43359375 101.058114,10.5546875 C99.7797941,12.6022135 98.3188566,12.7958984 96.6753019,11.1357422 C96.6863696,10.5436198 96.7527759,10.0345052 96.8745207,9.60839844 L96.8745207,9.25976563 C97.012867,8.6233724 97.0820402,8.07552083 97.0820402,7.61621094 L97.1816496,7.25927734 L97.1816496,6.91064453 L97.1816496,6.55371094 L97.2812589,6.32128906 L97.3891691,4.43701172 Z" id="Shape" fill-rule="nonzero"></path>
        </g>
    </g>
</svg>